<?xml version="1.0" encoding="UTF-8"?>
<svg width="222px" height="44px" viewBox="0 0 222 44" version="1.1" xmlns="http://www.w3.org/2000/svg" xmlns:xlink="http://www.w3.org/1999/xlink">
    <!-- Generator: Sketch 57.1 (83088) - https://sketch.com -->
    <title>Logo / Light</title>
    <desc>Created with Sketch.</desc>
    <g id="Logo-/-Light" stroke="none" stroke-width="1" fill="none" fill-rule="evenodd">
        <path d="M35,30.3235669 C35,32.4161463 34.5351609,34.312518 33.6054688,36.0127389 C32.6757766,37.7129597 31.3997477,39.1515865 29.7773437,40.3286624 C28.1549398,41.5057384 26.231782,42.4118864 24.0078125,43.0471338 C21.783843,43.6823811 19.3776171,44 16.7890625,44 C15.2213463,44 13.6627682,43.8038236 12.1132812,43.411465 C10.5637943,43.0191063 9.05990313,42.4586024 7.6015625,41.7299363 C6.14322188,41.0012702 4.76693355,40.1044639 3.47265625,39.0394904 C2.17837895,37.974517 1.02083844,36.7694335 0,35.4242038 L4.265625,31.3324841 C4.81250273,32.0050989 5.46874617,32.7244123 6.234375,33.4904459 C7,34.2564794 7.90233855,34.9664511 8.94140625,35.6203822 C9.98047395,36.2743132 11.1471289,36.8161337 12.4414062,37.2458599 C13.7356836,37.675586 15.1848878,37.8904459 16.7890625,37.8904459 C18.2838616,37.8904459 19.7604094,37.7409781 21.21875,37.4420382 C22.6770906,37.1430983 23.9713485,36.6853534 25.1015625,36.0687898 C26.2317765,35.4522262 27.1432257,34.6675207 27.8359375,33.7146497 C28.5286493,32.7617787 28.875,31.631429 28.875,30.3235669 C28.875,28.7167648 28.5195348,27.4836561 27.8085937,26.6242038 C27.0976527,25.7647515 26.177089,25.1388555 25.046875,24.7464968 C23.916661,24.3541382 22.6224031,24.1205949 21.1640625,24.0458599 C19.7057219,23.9711249 18.2474031,23.933758 16.7890625,23.933758 C11.8671629,23.933758 8.13022109,23.0369516 5.578125,21.2433121 C3.02602891,19.4496726 1.75,16.7405701 1.75,13.1159236 C1.75,11.4343865 2.12369418,9.79958331 2.87109375,8.21146497 C3.61849332,6.62334662 4.65754543,5.22208675 5.98828125,4.00764331 C7.31901707,2.79319987 8.90493871,1.82165969 10.7460938,1.09299363 C12.5872488,0.364327567 14.6015516,0 16.7890625,0 C19.8880363,0 22.7864448,0.485770089 25.484375,1.45732484 C28.1823052,2.42887959 30.752592,4.14775837 33.1953125,6.61401274 L29.4765625,11.0980892 C28.382807,10.2012694 27.3528694,9.43524734 26.3867187,8.8 C25.4205681,8.16475266 24.4453174,7.65095738 23.4609375,7.25859873 C22.4765576,6.86624008 21.44662,6.5859881 20.3710937,6.41783439 C19.2955675,6.24968069 18.1015691,6.1656051 16.7890625,6.1656051 C15.62239,6.1656051 14.5286509,6.35243975 13.5078125,6.72611465 C12.4869741,7.09978955 11.5937538,7.60424311 10.828125,8.23949045 C10.0624962,8.87473778 9.46093969,9.61273465 9.0234375,10.4535032 C8.58593531,11.2942717 8.3671875,12.1630528 8.3671875,13.0598726 C8.3671875,13.6951199 8.49479039,14.3023326 8.75,14.8815287 C9.00520961,15.4607248 9.46093422,15.9745201 10.1171875,16.4229299 C10.7734408,16.8713398 11.6575465,17.2263257 12.7695312,17.4878981 C13.881516,17.7494705 15.3124913,17.8802548 17.0625,17.8802548 C20.6354345,17.8802548 23.5794155,18.1605068 25.8945312,18.7210191 C28.209647,19.2815315 30.0416599,20.0942622 31.390625,21.1592357 C32.7395901,22.2242091 33.6783828,23.5320517 34.2070312,25.0828025 C34.7356797,26.6335534 35,28.3804574 35,30.3235669 Z M65.9441964,31.2895442 L51.8258929,14.1179625 L51.8258929,43 L45.8549107,43 L45.8549107,6.91152815 L41,1 L48.8683036,1 L65.8883929,21.6058981 L83.1316964,1 L91,1 L86.1450893,6.91152815 L86.1450893,43 L80.1741071,43 L80.1741071,14.1179625 L65.9441964,31.2895442 Z M110.934297,1 L117.714849,1 L138,43 L131.106439,43 L128.337714,36.9683794 L115.51117,36.9683794 C113.590004,36.9683794 111.885465,37.0974954 110.397503,37.3557312 C108.909541,37.613967 107.638201,37.9459795 106.583443,38.3517787 C105.528685,38.7575778 104.681125,39.2002611 104.040736,39.6798419 C103.400347,40.1594227 102.96715,40.6205511 102.74113,41.0632411 L101.667543,43 L95,43 L113.250986,6.09090909 L110.934297,1 Z M125,30.6470588 L116.054878,13 L107,33 C107.731711,32.3650762 108.939016,31.8141947 110.621951,31.3473389 C112.304886,30.8804832 114.573156,30.6470588 117.426829,30.6470588 L125,30.6470588 Z M153.503937,7.19302949 L153.503937,43 L147.661417,43 L147.661417,7.19302949 L133,7.19302949 L133,1 L168,1 L168,7.19302949 L153.503937,7.19302949 Z M182.934297,1 L189.714849,1 L210,43 L203.106439,43 L200.337714,36.9683794 L187.51117,36.9683794 C185.590004,36.9683794 183.885465,37.0974954 182.397503,37.3557312 C180.909541,37.613967 179.638201,37.9459795 178.583443,38.3517787 C177.528685,38.7575778 176.681125,39.2002611 176.040736,39.6798419 C175.400347,40.1594227 174.96715,40.6205511 174.74113,41.0632411 L173.667543,43 L167,43 L185.250986,6.09090909 L182.934297,1 Z M198,30.6470588 L189.054878,13 L180,33 C180.731711,32.3650762 181.939016,31.8141947 183.621951,31.3473389 C185.304886,30.8804832 187.573156,30.6470588 190.426829,30.6470588 L198,30.6470588 Z M215,39.5294118 C215,38.5490147 215.33333,37.7156897 216,37.0294118 C216.66667,36.3431338 217.490191,36 218.470588,36 C219.450985,36 220.28431,36.3431338 220.970588,37.0294118 C221.656866,37.7156897 222,38.5490147 222,39.5294118 C222,40.5098088 221.656866,41.33333 220.970588,42 C220.28431,42.66667 219.450985,43 218.470588,43 C217.490191,43 216.66667,42.66667 216,42 C215.33333,41.33333 215,40.5098088 215,39.5294118 Z" id="SMATA." fill="#FFFFFF"></path>
    </g>
</svg>