<?xml version="1.0" encoding="UTF-8"?>
<svg width="18px" height="18px" viewBox="0 0 18 18" version="1.1" xmlns="http://www.w3.org/2000/svg" xmlns:xlink="http://www.w3.org/1999/xlink">
    <!-- Generator: Sketch 57.1 (83088) - https://sketch.com -->
    <title>plus</title>
    <desc>Created with Sketch.</desc>
    <defs>
        <path d="M19.9998976,11.2727273 C19.0359048,11.2727273 18.254443,12.0541935 18.254443,13.0181818 L18.254443,18.2545564 L13.0181776,18.2545564 C12.0541936,18.2545564 11.2727273,19.0360182 11.2727273,20.0000109 C11.2727273,20.9639927 12.0541936,21.7454655 13.0181776,21.7454655 L18.254443,21.7454655 L18.254443,26.9818182 C18.254443,27.9458545 19.0359048,28.7272727 19.9998976,28.7272727 C20.9638794,28.7272727 21.7453521,27.9458545 21.7453521,26.9818182 L21.7453521,21.7454655 L26.9818685,21.7454655 C27.9457957,21.7454655 28.727323,20.9639927 28.727323,20.0000109 C28.727323,19.0360182 27.9457957,18.2545564 26.9818685,18.2545564 L21.7453521,18.2545564 L21.7453521,13.0181818 C21.7453521,12.0541935 20.9638794,11.2727273 19.9998976,11.2727273 Z" id="path-1"></path>
    </defs>
    <g id="Symbols" stroke="none" stroke-width="1" fill="none" fill-rule="evenodd">
        <g id="DMS-/-Header" transform="translate(-1261.000000, -69.000000)">
            <g id="Buttons/Add" transform="translate(1250.000000, 58.000000)">
                <mask id="mask-2" fill="white">
                    <use xlink:href="#path-1"></use>
                </mask>
                <use id="plus" fill="#333333" xlink:href="#path-1"></use>
            </g>
        </g>
    </g>
</svg>