<svg width="25" height="25" xmlns="http://www.w3.org/2000/svg">

 <g stroke="null">
  <title>Layer 1</title>
  <path stroke="null" id="svg_1" fill="#ffffff" d="m12.5,3.19136c-4.78297,0 -8.14506,3.35819 -8.14506,6.90394l0,9.38618l8.14506,0l8.14506,0l0,-9.38618c0,-3.54575 -3.3621,-6.90394 -8.14506,-6.90394zm2.32716,18.61728l5.8179,0l2.32716,0l1.16358,0l0,-2.32716l-1.16358,0l0,-9.38618c0,-5.09825 -4.68858,-9.2311 -10.47222,-9.2311c-5.78365,0 -10.47222,4.13285 -10.47222,9.2311l0,9.38618l-1.16358,0l0,2.32716l1.16358,0l2.32716,0l5.8179,0c0,1.28524 1.04192,2.32716 2.32716,2.32716c1.28524,0 2.32716,-1.04192 2.32716,-2.32716z" clip-rule="evenodd" fill-rule="evenodd"/>
 </g>
</svg>