<?xml version="1.0" encoding="UTF-8"?>
<svg width="17px" height="20px" viewBox="0 0 17 20" version="1.1" xmlns="http://www.w3.org/2000/svg" xmlns:xlink="http://www.w3.org/1999/xlink">
    <!-- Generator: Sketch 57.1 (83088) - https://sketch.com -->
    <title>icon-bell</title>
    <desc>Created with Sketch.</desc>
    <g id="Building-Profile" stroke="none" stroke-width="1" fill="none" fill-rule="evenodd">
        <g id="Desktop-HD-Copy" transform="translate(-1125.000000, -15.000000)" fill="#333333" fill-rule="nonzero">
            <g id="Header" transform="translate(0.000000, -24.000000)">
                <path d="M1133.5,39 C1132.60984,39 1131.88095,39.7203124 1131.88095,40.6 C1131.88095,40.80625 1131.92206,41.00625 1131.99479,41.1875 C1129.71801,41.7718752 1128.2381,43.7265624 1128.2381,46.2 C1128.2381,49.3328124 1127.46019,50.7593752 1126.72024,51.5625 C1126.35026,51.9640624 1125.98503,52.2078124 1125.67039,52.4375 C1125.51228,52.5515624 1125.3684,52.6656252 1125.24033,52.8125 C1125.11226,52.9593752 1125,53.16875 1125,53.4 C1125,53.95 1125.34152,54.4171876 1125.82217,54.725 C1126.30283,55.0328124 1126.93369,55.23125 1127.6942,55.3875 C1128.6808,55.5890624 1129.89825,55.6953124 1131.23586,55.75 C1131.13467,56.0156252 1131.07143,56.3015624 1131.07143,56.6 C1131.07143,57.9203124 1132.16397,59 1133.5,59 C1134.83603,59 1135.92857,57.9203124 1135.92857,56.6 C1135.92857,56.3 1135.86691,56.0140624 1135.76414,55.75 C1137.10175,55.6953124 1138.3192,55.5890624 1139.3058,55.3875 C1140.06631,55.23125 1140.69717,55.0328124 1141.17783,54.725 C1141.65848,54.4171876 1142,53.95 1142,53.4 C1142,53.16875 1141.88774,52.9593752 1141.75967,52.8125 C1141.6316,52.6656252 1141.48772,52.5515624 1141.32961,52.4375 C1141.01497,52.2078124 1140.64974,51.9640624 1140.27976,51.5625 C1139.53981,50.7593752 1138.7619,49.3328124 1138.7619,46.2 C1138.7619,43.7281252 1137.27883,41.775 1135.00521,41.1875 C1135.07794,41.00625 1135.11905,40.80625 1135.11905,40.6 C1135.11905,39.7203124 1134.39016,39 1133.5,39 Z M1133.5,39.8 C1133.9522,39.8 1134.30952,40.1531252 1134.30952,40.6 C1134.30952,41.0468752 1133.9522,41.4 1133.5,41.4 C1133.04781,41.4 1132.69048,41.0468752 1132.69048,40.6 C1132.69048,40.1531252 1133.04781,39.8 1133.5,39.8 Z M1134.44866,41.875 C1136.60686,42.2546876 1137.95238,43.9031252 1137.95238,46.2 C1137.95238,49.4671876 1138.79353,51.1453124 1139.67262,52.1 C1140.11217,52.5765624 1140.55645,52.875 1140.84896,53.0875 C1140.99442,53.19375 1141.10352,53.2828124 1141.15253,53.3375 C1141.20154,53.3921876 1141.19048,53.3875 1141.19048,53.4 C1141.19048,53.65 1141.07347,53.8328124 1140.73512,54.05 C1140.39676,54.2671876 1139.84654,54.46875 1139.14137,54.6125 C1137.73103,54.9015624 1135.72303,55 1133.5,55 C1131.27697,55 1129.26897,54.9015624 1127.85863,54.6125 C1127.15346,54.46875 1126.60324,54.2671876 1126.26488,54.05 C1125.92653,53.8328124 1125.80952,53.65 1125.80952,53.4 C1125.80952,53.3875 1125.79846,53.3921876 1125.84747,53.3375 C1125.89648,53.2828124 1126.00558,53.19375 1126.15104,53.0875 C1126.44355,52.875 1126.88784,52.5765624 1127.32738,52.1 C1128.20647,51.1453124 1129.04762,49.4671876 1129.04762,46.2 C1129.04762,43.9046876 1130.39472,42.26875 1132.55134,41.8875 C1132.82013,42.0828124 1133.14425,42.2 1133.5,42.2 C1133.85891,42.2 1134.17987,42.0734376 1134.44866,41.875 Z M1132.10863,55.775 C1132.56241,55.7843752 1133.02409,55.8 1133.5,55.8 C1133.97591,55.8 1134.43759,55.7843752 1134.89137,55.775 C1135.03525,56.0156252 1135.11905,56.3 1135.11905,56.6 C1135.11905,57.4890624 1134.39965,58.2 1133.5,58.2 C1132.60035,58.2 1131.88095,57.4890624 1131.88095,56.6 C1131.88095,56.2968752 1131.96159,56.0156252 1132.10863,55.775 Z" id="bell"></path>
            </g>
        </g>
    </g>
</svg>
