<?xml version="1.0" encoding="UTF-8"?>
<svg width="20px" height="16px" viewBox="0 0 20 16" version="1.1" xmlns="http://www.w3.org/2000/svg" xmlns:xlink="http://www.w3.org/1999/xlink">
    <!-- Generator: Sketch 57.1 (83088) - https://sketch.com -->
    <title>camera</title>
    <desc>Created with Sketch.</desc>
    <g id="Messaging-UI" stroke="none" stroke-width="1" fill="none" fill-rule="evenodd">
        <g id="Job-Detail-Page-Copy-3" transform="translate(-997.000000, -817.000000)" fill="#333333" fill-rule="nonzero">
            <g id="Group" transform="translate(416.000000, 804.000000)">
                <path d="M590.75,13 C589.989062,13 589.279688,13.5656252 588.975,14.35 L588.725,15 L586.6,15 L586.6,14.6 C586.6,14.3796876 586.420312,14.2 586.2,14.2 L583.4,14.2 C583.179688,14.2 583,14.3796876 583,14.6 L583,15.1625 C581.854688,15.5140624 581,16.54375 581,17.8 L581,26.2 C581,27.7421876 582.257812,29 583.8,29 L598.2,29 C599.742188,29 601,27.7421876 601,26.2 L601,17.8 C601,16.2578124 599.742188,15 598.2,15 L597.275,15 L597.025,14.35 C596.720312,13.5656252 596.0125,13 595.25,13 L590.75,13 Z M590.75,13.8 L595.25,13.8 C595.55625,13.8 596.084375,14.1468752 596.275,14.6375 L596.625,15.55 C596.685938,15.7031252 596.835938,15.8015624 597,15.8 L598.2,15.8 C599.309375,15.8 600.2,16.6906252 600.2,17.8 L600.2,26.2 C600.2,27.3093752 599.309375,28.2 598.2,28.2 L583.8,28.2 C582.690625,28.2 581.8,27.3093752 581.8,26.2 L581.8,17.8 C581.8,16.8046876 582.517188,15.9843752 583.4625,15.825 C583.654688,15.7953124 583.796875,15.63125 583.8,15.4375 L583.8,15 L585.8,15 L585.8,15.4 C585.8,15.6203124 585.979688,15.8 586.2,15.8 L589,15.8 C589.164062,15.8015624 589.314062,15.7031252 589.375,15.55 L589.725,14.6375 C589.915625,14.1468752 590.44375,13.8 590.75,13.8 Z M593,16.6 C590.134375,16.6 587.8,18.9343752 587.8,21.8 C587.8,24.6656252 590.134375,27 593,27 C595.865625,27 598.2,24.6656252 598.2,21.8 C598.2,18.9343752 595.865625,16.6 593,16.6 Z M583.8,17 C583.357812,17 583,17.3578124 583,17.8 C583,18.2421876 583.357812,18.6 583.8,18.6 C584.242188,18.6 584.6,18.2421876 584.6,17.8 C584.6,17.3578124 584.242188,17 583.8,17 Z M593,17.4 C595.434375,17.4 597.4,19.3656252 597.4,21.8 C597.4,24.2343752 595.434375,26.2 593,26.2 C590.565625,26.2 588.6,24.2343752 588.6,21.8 C588.6,19.3656252 590.565625,17.4 593,17.4 Z" id="camera"></path>
            </g>
        </g>
    </g>
</svg>