<?xml version="1.0" encoding="UTF-8"?>
<svg width="21px" height="15px" viewBox="0 0 21 15" version="1.1" xmlns="http://www.w3.org/2000/svg" xmlns:xlink="http://www.w3.org/1999/xlink">
    <!-- Generator: Sketch 57.1 (83088) - https://sketch.com -->
    <title>Shape</title>
    <desc>Created with Sketch.</desc>
    <g id="Symbols" stroke="none" stroke-width="1" fill="none" fill-rule="evenodd">
        <g id="Icon-/-Credit-Card" transform="translate(0.000000, -3.000000)" fill="#FFFFFF" fill-rule="nonzero">
            <path d="M2.2826087,3 C1.02717391,3 0,4.02717391 0,5.2826087 L0,15.326087 C0,16.5815217 1.02717391,17.6086957 2.2826087,17.6086957 L18.7173913,17.6086957 C19.9728261,17.6086957 21,16.5815217 21,15.326087 L21,5.2826087 C21,4.02717391 19.9728261,3 18.7173913,3 L2.2826087,3 Z M2.2826087,3.91304348 L18.7173913,3.91304348 C19.4788554,3.91304348 20.0869565,4.52114459 20.0869565,5.2826087 L20.0869565,6.19565217 L0.913043478,6.19565217 L0.913043478,5.2826087 C0.913043478,4.52114459 1.52114459,3.91304348 2.2826087,3.91304348 Z M0.913043478,8.47826087 L20.0869565,8.47826087 L20.0869565,15.326087 C20.0869565,16.0875511 19.4788554,16.6956522 18.7173913,16.6956522 L2.2826087,16.6956522 C1.52114459,16.6956522 0.913043478,16.0875511 0.913043478,15.326087 L0.913043478,8.47826087 Z M3.19565217,9.84782609 L3.19565217,10.7608696 L10.5,10.7608696 L10.5,9.84782609 L3.19565217,9.84782609 Z" id="Shape"></path>
        </g>
    </g>
</svg>