<?xml version="1.0" encoding="UTF-8"?>
<svg width="21px" height="21px" viewBox="0 0 21 21" version="1.1" xmlns="http://www.w3.org/2000/svg" xmlns:xlink="http://www.w3.org/1999/xlink">
    <!-- Generator: Sketch 57.1 (83088) - https://sketch.com -->
    <title>Shape</title>
    <desc>Created with Sketch.</desc>
    <g id="Symbols" stroke="none" stroke-width="1" fill="none" fill-rule="evenodd">
        <g id="Icon-/-Clock" fill="#FFFFFF" fill-rule="nonzero">
            <path d="M10.5,0 C4.70641728,0 0,4.70641728 0,10.5 C0,16.2935827 4.70641728,21 10.5,21 C16.2935827,21 21,16.2935827 21,10.5 C21,4.70641728 16.2935827,0 10.5,0 Z M10.5,0.913043478 C15.800137,0.913043478 20.0869565,5.19986296 20.0869565,10.5 C20.0869565,15.800137 15.800137,20.0869565 10.5,20.0869565 C5.19986296,20.0869565 0.913043478,15.800137 0.913043478,10.5 C0.913043478,5.19986296 5.19986296,0.913043478 10.5,0.913043478 Z M10.4928668,2.27631142 C10.2410877,2.28030288 10.0400303,2.48734417 10.0434783,2.73913043 L10.0434783,9.20979104 C9.49662941,9.40313112 9.13087085,9.91997943 9.13043478,10.5 C9.13085167,10.7040354 9.1768517,10.9053997 9.26507309,11.0893769 L6.52505107,13.8293989 C6.40578896,13.9439021 6.35774697,14.1139338 6.39945335,14.2739182 C6.44115972,14.4339027 6.56609734,14.5588403 6.72608176,14.6005467 C6.88606618,14.642253 7.05609789,14.594211 7.17060111,14.4749489 L9.91062313,11.7349269 C10.0946003,11.8231483 10.2959646,11.8691483 10.5,11.8695652 C11.25639,11.8695652 11.8695652,11.25639 11.8695652,10.5 C11.8687519,9.92030675 11.5030625,9.40391333 10.9565217,9.21068263 L10.9565217,2.73913043 C10.9582115,2.61573246 10.9098758,2.49690611 10.8225282,2.40972642 C10.7351805,2.32254672 10.6162613,2.27443987 10.4928668,2.27631142 Z" id="Shape"></path>
        </g>
    </g>
</svg>