<?xml version="1.0" encoding="UTF-8"?>
<svg width="16px" height="16px" viewBox="0 0 16 16" version="1.1" xmlns="http://www.w3.org/2000/svg" xmlns:xlink="http://www.w3.org/1999/xlink">
    <!-- Generator: Sketch 57.1 (83088) - https://sketch.com -->
    <title>Shape</title>
    <desc>Created with Sketch.</desc>
    <g id="Symbols" stroke="none" stroke-width="1" fill="none" fill-rule="evenodd">
        <g id="UI-/-Comments" transform="translate(0.000000, -1.000000)" fill="#333333" fill-rule="nonzero">
            <path d="M1.73913043,1.60869565 C0.783967304,1.60869565 0,2.39266296 0,3.34782609 L0,11.6956522 C0,12.6508153 0.783967304,13.4347826 1.73913043,13.4347826 L3.16304348,13.4347826 C3.21059791,13.8532609 3.20516313,14.240489 3.09782609,14.5652174 C2.9660327,14.9646741 2.72010887,15.3002717 2.26086957,15.576087 C2.13179339,15.6576087 2.07201078,15.8138588 2.11141322,15.9605979 C2.1508153,16.107337 2.2826087,16.2119565 2.43478261,16.2173913 C3.91032626,16.2173913 5.60190226,15.4470108 6.45652174,13.4347826 L14.2608696,13.4347826 C15.2160327,13.4347826 16,12.6508153 16,11.6956522 L16,3.34782609 C16,2.39266296 15.2160327,1.60869565 14.2608696,1.60869565 L1.73913043,1.60869565 Z M1.73913043,2.30434783 L14.2608696,2.30434783 C14.8369565,2.30434783 15.3043478,2.77173913 15.3043478,3.34782609 L15.3043478,11.6956522 C15.3043478,12.2717391 14.8369565,12.7391304 14.2608696,12.7391304 L6.26086957,12.7391304 C6.11548904,12.7391304 5.98505426,12.8301631 5.93478261,12.9673913 C5.39402191,14.442935 4.42798922,15.1453805 3.42391304,15.4021739 C3.55978261,15.2078803 3.68885878,15.0027176 3.76086957,14.7826087 C3.941576,14.2336957 3.92663061,13.6331523 3.81521739,13.0217391 C3.7839673,12.8600543 3.64402191,12.741848 3.47826087,12.7391304 L1.73913043,12.7391304 C1.16304348,12.7391304 0.695652174,12.2717391 0.695652174,11.6956522 L0.695652174,3.34782609 C0.695652174,2.77173913 1.16304348,2.30434783 1.73913043,2.30434783 Z" id="Shape"></path>
        </g>
    </g>
</svg>