<svg width="25" height="25" xmlns="http://www.w3.org/2000/svg">
 <g stroke="null">
  <title>Layer 1</title>
  <path stroke="null" fill="#ffffff" d="m0.15382,10.81685c0,-6.02416 5.60418,-10.78107 12.34618,-10.78107c6.742,0 12.34618,4.75691 12.34618,10.78107c0,6.02491 -5.60418,10.78107 -12.34618,10.78107c-0.71095,0 -1.40403,-0.05781 -2.07707,-0.15823l-5.85976,3.52454l0,-5.89511c-2.67693,-1.96386 -4.40935,-4.91859 -4.40935,-8.25226zm12.34618,-8.15865c-5.44577,0 -9.70057,3.73405 -9.70057,8.15865c0,2.72154 1.59724,5.16167 4.10599,6.6569l0.28954,0.1725l-0.03659,2.66746l2.7535,-1.64068l0.2267,0.04793c0.76128,0.16084 1.54899,0.25455 2.36144,0.25455c5.44577,0 9.70057,-3.7334 9.70057,-8.15865c0,-4.4246 -4.2548,-8.15865 -9.70057,-8.15865z" clip-rule="evenodd" fill-rule="evenodd"/>
 </g>
</svg>