<?xml version="1.0" encoding="UTF-8"?>
<svg width="19px" height="19px" viewBox="0 0 19 19" version="1.1" xmlns="http://www.w3.org/2000/svg" xmlns:xlink="http://www.w3.org/1999/xlink">
    <!-- Generator: Sketch 57.1 (83088) - https://sketch.com -->
    <title>Shape</title>
    <desc>Created with Sketch.</desc>
    <g id="Symbols" stroke="none" stroke-width="1" fill="none" fill-rule="evenodd">
        <g id="Icon-/-Complete" transform="translate(-1.000000, -1.000000)" fill="#333333" fill-rule="nonzero">
            <path d="M4.16666667,1 C2.40308802,1 1,2.40308802 1,4.16666667 L1,16.8333333 C1,18.5969124 2.40308802,20 4.16666667,20 L16.8333333,20 C18.5969124,20 20,18.5969124 20,16.8333333 L20,5.97619048 L19.0952381,7.02232143 L19.0952381,16.8333333 C19.0952381,18.1003533 18.1003533,19.0952381 16.8333333,19.0952381 L4.16666667,19.0952381 C2.89964669,19.0952381 1.9047619,18.1003533 1.9047619,16.8333333 L1.9047619,4.16666667 C1.9047619,2.89964669 2.89964669,1.9047619 4.16666667,1.9047619 L16.1123512,1.9047619 L16.8333333,1 L4.16666667,1 Z M18.7559524,2.69642857 L10.0052083,13.016369 L6.3296131,9.58110119 L5.70758929,10.2455357 L9.73660714,13.9918155 L10.0900298,14.3169643 L10.3869048,13.9635417 L19.4345238,3.27604167 L18.7559524,2.69642857 Z" id="Shape"></path>
        </g>
    </g>
</svg>