<svg width="29" height="25" xmlns="http://www.w3.org/2000/svg">
 <g stroke="null">
  <title>Layer 1</title>
  <path stroke="null" fill="#ffffff" d="m11.1872,7.8993c-0.8935,-0.8355 -1.4491,-2.0073 -1.4491,-3.3047c0,-2.53752 2.1254,-4.5946 4.7472,-4.5946c2.6219,0 4.7473,2.05708 4.7473,4.5946c0,1.3147 -0.5706,2.5005 -1.4851,3.338c1.6598,0.846 2.9324,2.3077 3.4934,4.0712c0.1535,-0.0145 0.3092,-0.0219 0.4667,-0.0219c2.6219,0 4.7473,2.0571 4.7473,4.5946c0,1.223 -0.4937,2.3344 -1.2988,3.1577c1.9719,1.0582 3.3702,2.9959 3.6295,5.2658l-2.3961,0c-0.3767,-2.173 -2.3294,-3.8288 -4.6816,-3.8288c-2.3523,0 -4.3049,1.6558 -4.6816,3.8288l-2.3955,0c0.2592,-2.2697 1.6572,-4.2072 3.6287,-5.2654c-0.8052,-0.8233 -1.2991,-1.9349 -1.2991,-3.1581c0,-1.5664 0.81,-2.9498 2.0467,-3.7792c-0.5582,-1.9366 -2.3942,-3.3573 -4.5731,-3.3573c-2.1519,0 -3.9693,1.3857 -4.5517,3.2855c1.2986,0.8198 2.157,2.2384 2.157,3.851c0,1.2232 -0.4938,2.3347 -1.299,3.158c1.9716,1.0582 3.3696,2.9958 3.6289,5.2655l-2.3964,0c-0.3766,-2.173 -2.3293,-3.8288 -4.6816,-3.8288c-2.3522,0 -4.30487,1.6558 -4.68155,3.8288l-2.39525,0c0.25926,-2.2699 1.65748,-4.2075 3.62929,-5.2657c-0.80509,-0.8233 -1.29883,-1.9347 -1.29883,-3.1578c0,-2.5375 2.12544,-4.5946 4.74724,-4.5946c0.1139,0 0.2268,0.0039 0.3387,0.0115c0.5702,-1.7822 1.8675,-3.2552 3.5564,-4.0941zm3.2981,-1.0074c1.3109,0 2.3736,-1.0285 2.3736,-2.2973c0,-1.2687 -1.0627,-2.29728 -2.3736,-2.29728c-1.3109,0 -2.3736,1.02858 -2.3736,2.29728c0,1.2688 1.0627,2.2973 2.3736,2.2973zm-4.8199,9.6846c0,1.2688 -1.0627,2.2973 -2.3736,2.2973c-1.3109,0 -2.3736,-1.0285 -2.3736,-2.2973c0,-1.2687 1.0627,-2.2973 2.3736,-2.2973c1.3109,0 2.3736,1.0286 2.3736,2.2973zm14.4159,0c0,1.2688 -1.0627,2.2973 -2.3737,2.2973c-1.3109,0 -2.3736,-1.0285 -2.3736,-2.2973c0,-1.2687 1.0627,-2.2973 2.3736,-2.2973c1.311,0 2.3737,1.0286 2.3737,2.2973z" clip-rule="evenodd" fill-rule="evenodd"/>
 </g>
</svg>