<svg width="21.6" height="25" xmlns="http://www.w3.org/2000/svg">
 <g stroke="null">
  <title>Layer 1</title>
  <path stroke="null" fill="#ffffff" d="m8.85268,0.12743c-0.84352,0 -1.59049,0.55915 -1.8134,1.36329c-1.90183,0.98369 -3.30214,2.6849 -3.63201,4.64148c-0.92263,0.09683 -1.68223,0.86096 -1.68223,1.85378l0,1.50373c0,1.06331 0.87126,1.86428 1.88087,1.86428l0.45837,0c-0.0663,0.37983 -0.10082,0.77059 -0.10082,1.16943c0,2.14564 1.00012,4.05691 2.55824,5.29047c-3.09939,1.2444 -5.51456,3.83907 -6.52268,7.05869l2.37685,0c1.3282,-3.29141 4.54516,-5.61323 8.30276,-5.61323c3.7576,0 6.97447,2.32183 8.30276,5.61323l2.37685,0c-1.00816,-3.21962 -3.42329,-5.81429 -6.52268,-7.05869c1.55811,-1.23356 2.55824,-3.14483 2.55824,-5.29047c0,-0.39885 -0.03452,-0.78961 -0.10082,-1.16943l0.44547,0c1.00952,0 1.88081,-0.80097 1.88081,-1.86428l0,-1.41732c0.06656,-0.54009 -0.12508,-1.05384 -0.49835,-1.41723c-0.28673,-0.27921 -0.6436,-0.43844 -1.00824,-0.50153c-0.30561,-1.9342 -1.62236,-3.64338 -3.53521,-4.5901c-0.19685,-0.843 -0.96322,-1.4361 -1.83194,-1.4361l-3.89285,0zm6.14941,11.22655l-8.6469,0c-0.10005,0.37286 -0.15336,0.7649 -0.15336,1.16943c0,2.48011 2.00435,4.49062 4.47681,4.49062c2.47246,0 4.47681,-2.01051 4.47681,-4.49062c0,-0.40453 -0.05331,-0.79658 -0.15336,-1.16943zm-5.79185,-8.36254l0,-1.25019l3.17765,0l0,1.25019l0.96065,0.36362c1.82331,0.68279 2.6699,2.21562 2.6699,3.6628l0,1.05453l1.36238,0l0,1.41732l-13.41735,0l0,-1.41732l1.37536,0l0,-1.05453c0,-1.41689 0.78303,-2.88555 2.6699,-3.6628l1.2015,-0.36362z" clip-rule="evenodd" fill-rule="evenodd"/>
 </g>
</svg>
