<?xml version="1.0" encoding="UTF-8"?>
<svg width="20px" height="20px" viewBox="0 0 20 20" version="1.1" xmlns="http://www.w3.org/2000/svg" xmlns:xlink="http://www.w3.org/1999/xlink">
    <!-- Generator: Sketch 57.1 (83088) - https://sketch.com -->
    <title>Shape</title>
    <desc>Created with Sketch.</desc>
    <g id="Symbols" stroke="none" stroke-width="1" fill="none" fill-rule="evenodd">
        <g id="Alert-/-Success" transform="translate(-644.000000, -18.000000)" fill="#FFFFFF" fill-rule="nonzero">
            <path d="M646.380952,18 C645.071659,18 644,19.071659 644,20.3809524 L644,35.6190476 C644,36.928341 645.071659,38 646.380952,38 L661.619048,38 C662.928341,38 664,36.928341 664,35.6190476 L664,20.3809524 C664,19.071659 662.928341,18 661.619048,18 L646.380952,18 Z M646.380952,18.952381 L661.619048,18.952381 C662.413564,18.952381 663.047619,19.5864362 663.047619,20.3809524 L663.047619,35.6190476 C663.047619,36.4135638 662.413564,37.047619 661.619048,37.047619 L646.380952,37.047619 C645.586436,37.047619 644.952381,36.4135638 644.952381,35.6190476 L644.952381,20.3809524 C644.952381,19.5864362 645.586436,18.952381 646.380952,18.952381 Z M650.050967,23.3776043 L649.377604,24.0509671 L653.326637,28 L649.377604,31.9490329 L650.050967,32.6223957 L654,28.6733629 L657.949033,32.6223957 L658.622396,31.9490329 L654.673363,28 L658.622396,24.0509671 L657.949033,23.3776043 L654,27.3266371 L650.050967,23.3776043 Z" id="Shape"></path>
        </g>
    </g>
</svg>