<svg width="34" height="25" xmlns="http://www.w3.org/2000/svg">
 <g stroke="null">
  <title>Layer 1</title>
  <path stroke="null" fill="#ffffff" d="m14.01459,19.53901l15.1211,-19.45204l-9.8009,22.87733c-0.7533,1.7585 -2.7825,2.46855 -4.3962,1.53858c-1.7204,-0.99167 -2.1631,-3.36986 -0.924,-4.96387z"/>
  <path stroke="null" fill="#ffffff" d="m23.4031,5.6852c-1.9648,-0.8432 -4.1294,-1.3102 -6.4031,-1.3102c-8.9746,0 -16.25,7.2754 -16.25,16.25l2.5,0c0,-7.5939 6.1561,-13.75 13.75,-13.75c1.6105,0 3.1562,0.2769 4.5924,0.7856l1.8107,-1.9754zm2.6381,4.58l0.9277,-2.474c3.8222,2.9732 6.2811,7.6163 6.2811,12.8338l-2.5,0c0,-4.1325 -1.8231,-7.8392 -4.7088,-10.3598z" clip-rule="evenodd" fill-rule="evenodd"/>
 </g>
</svg>
