<svg width="920" height="920" xmlns="http://www.w3.org/2000/svg">
 <metadata>Svg Vector Icons : http://www.onlinewebfonts.com/icon</metadata>

 <g>
  <title>background</title>
  <rect x="-1" y="-1" width="922" height="922" id="canvas_background" fill="none"/>
 </g>
 <g>
  <title>Layer 1</title>
  <g id="svg_1" stroke="null">
   <g transform="translate(0,512) scale(0.10000000149011612,-0.10000000149011612) " id="svg_2" stroke="null">
    <path fill="#ffffff" d="m3517.44288,5050.34781c-1701.6,-103.07136 -3087.4,-591.87103 -3412.7,-1206.77061l-61.3,-115.51421l-5.7,-2909.49089c-3.8,-2891.75519 -3.8,-2909.49089 34.5,-3001.88368c245,-574.13533 1351.3,-1029.04216 2909.4,-1196.18491c367.5,-40.85712 430.7,-37.32855 488.1,15.97142c65.1,58.68567 65.1,149.31418 -1.9,211.52843c-28.7,24.8857 -67,46.24283 -88.1,46.24283c-19.1,0 -162.7,12.44285 -317.7,26.64998c-968.5,92.39279 -1856.6,323.51407 -2300.7,600.69245c-134,83.57137 -285.2,225.73556 -340.7,323.51407l-51.7,88.86423l-5.7,670.05669c-3.8,369.66404 -1.9,671.82097 3.8,671.82097c5.7,0 74.6,-44.47854 155,-97.77851c394.3,-261.29982 1112.1,-503.0068 1885.3,-630.96386c681.4,-113.74992 1770.5,-181.25702 1868.1,-115.51421c65.1,40.85712 93.8,122.6642 65.1,186.64273c-40.2,88.86423 -101.4,106.59993 -367.5,106.59993c-451.7,0 -1083.3,53.29996 -1575.3,133.34277c-1050.8,170.67131 -1785.8,483.41396 -1975.3,840.728l-53.6,101.30707l-5.7,671.82097l-7.7,670.05669l160.8,-106.78564c1096.7,-732.27093 3728.6,-995.33504 5767,-575.80675c622.1,127.95706 1251.8,358.98547 1569.5,574.04247l134,90.62851l9.6,-312.8355l9.6,-312.8355l53.6,-42.6214c68.9,-55.15711 149.3,-55.15711 218.2,0l53.6,42.6214l0,1606.70606l0,1604.94177l-70.8,135.10705c-417.3,792.72089 -2559.2,1336.58481 -4743.1,1205.09919l0,-0.00001zm1158,-300.39265c1223.1,-56.92139 2216.5,-266.59268 2830.9,-600.69245c204.8,-111.98564 415.3,-303.92122 457.5,-421.19972c109.1,-296.77123 -88,-547.39249 -627.8,-790.86375c-1494.9,-675.34954 -4693.3,-686.02811 -6272.3,-21.35713c-304.3,129.72134 -568.5,328.80692 -646.9,488.79967c-53.6,108.45707 -49.8,257.6784 7.7,364.37118c53.6,99.54279 227.8,257.6784 384.7,351.92833c742.5,440.60684 2331.1,698.28524 3866.2,629.01386l0,0.00001zm-4050.1,-1933.74869c57.4,-33.79998 199.1,-104.83564 315.8,-156.37132c1033.6,-458.52826 2784.9,-657.61384 4375.5,-495.85681c1102.5,111.98564 2057.6,387.4926 2557.2,737.56379l122.5,87.09994l0,-670.05669c0,-666.52812 0,-670.05669 -45.9,-760.6852c-283.3,-563.45676 -1895,-984.65648 -3772.6,-984.65648c-1873.8,0 -3485.5,424.82114 -3766.8,991.71362c-40.2,79.94995 -42.1,111.98564 -47.9,757.15663l-7.7,673.58526l84.2,-58.59282c44,-32.03569 128.3,-85.33566 185.7,-120.89992z" id="svg_3" stroke="null"/>
    <path fill="#ffffff" d="m5967.44288,-25.77733c-93.8,-31.94284 -141.6,-135.10705 -103.4,-227.49985c19.1,-44.47854 112.9,-79.94995 218.2,-79.94995l95.7,0l0,-245.23555c0,-358.98547 45.9,-556.30677 193.3,-821.13516c126.3,-227.49985 310.1,-419.43543 591.5,-618.52101c5.7,-3.52857 -17.2,-23.12141 -47.9,-44.47854c-210.5,-138.63562 -449.8,-405.2283 -564.6,-625.57815c-130.2,-247.09269 -157,-367.89975 -166.5,-723.35665l-9.6,-316.36407l-118.7,0c-99.5,0 -126.3,-7.15 -160.8,-40.85712c-59.3,-58.68567 -57.4,-159.99275 5.7,-216.82128l45.9,-44.38568l1552.3,0l1554.2,0l55.5,51.53568c70.8,67.5071 74.7,145.69276 7.7,206.14272c-38.3,37.32855 -65.1,44.47854 -158.9,44.47854l-112.9,0l-11.5,289.71409c-7.7,199.08558 -23,334.09977 -49.8,433.64256c-91.9,343.01405 -308.1,655.84956 -608.7,877.96369l-137.6,101.21422l103.4,74.65709c308.2,220.44271 545.5,552.7782 643.1,897.55654c26.8,101.30707 42.1,223.97128 49.8,428.34971l11.5,287.94981l114.8,7.15c95.7,7.15 122.5,15.97142 160.8,56.92139c57.4,62.21424 55.5,136.87134 -1.9,200.84986l-45.9,49.77139l-1539,3.43571c-844.1,1.76428 -1550.4,-1.76428 -1565.7,-7.15l0,0.00001zm2526.6,-566.89247c0,-307.44979 -30.6,-453.23541 -134,-655.84956c-113,-216.82128 -291,-394.54973 -539.8,-534.94964c-112.9,-65.74281 -132.1,-69.36424 -296.7,-74.65709c-166.5,-7.15 -181.8,-3.52857 -290.9,49.77139c-250.7,124.42849 -467,332.33549 -585.7,559.83534c-101.4,195.46415 -126.3,307.44979 -137.8,627.34243l-11.5,287.94981l999.1,0l997.3,0l0,-259.44268zm-759.9,-1626.2989c325.4,-152.84275 576.1,-419.43543 694.8,-735.7995c49.8,-129.72134 53.6,-168.81417 61.3,-458.52826l7.7,-314.59979l-993.4,3.52857l-991.5,5.29285l1.9,284.32838c1.9,207.99986 11.5,314.59979 34.5,398.17116c97.6,339.48548 331.1,611.37102 675.7,787.33518c118.7,60.44996 143.6,67.5071 279.4,67.5071c114.7,0.09286 168.3,-8.82142 229.6,-37.23569z" id="svg_4" stroke="null"/>
   </g>
  </g>
 </g>
</svg>
