<svg width="25" height="25" xmlns="http://www.w3.org/2000/svg">
 <g stroke="null">
  <title>Layer 1</title>
  <path stroke="null" fill="#ffffff" d="m2.59938,0.12422l2.72554,0l9.65023,0l2.47516,0l7.42547,7.42547l0,16.08851l-0.00099,0l0,1.23758l-24.75056,0l0,-1.23758l0,-1.23758l0,-19.80124l0,-2.47516l2.47516,0zm18.47773,7.42547l-3.6268,-3.38403l0,3.38403l1.36183,0l2.26497,0zm-3.6268,2.47516l-1.23857,0l-1.23659,0l0,-7.42547l-12.37578,0l0,19.80124l4.95407,0l14.84717,0l0,-12.37578l-4.95031,0zm2.47516,1.85637l0,2.47516l-14.85093,0l0,-2.47516l14.85093,0zm-14.85093,5.5691l0,2.47516l14.85093,0l0,-2.47516l-14.85093,0zm0,-11.1382l7.42547,0l0,2.47516l-7.42547,0l0,-2.47516z" clip-rule="evenodd" fill-rule="evenodd"/>
 </g>
</svg>