<?xml version="1.0" encoding="UTF-8"?>
<svg width="21px" height="21px" viewBox="0 0 21 21" version="1.1" xmlns="http://www.w3.org/2000/svg" xmlns:xlink="http://www.w3.org/1999/xlink">
    <!-- Generator: Sketch 57.1 (83088) - https://sketch.com -->
    <title>Shape</title>
    <desc>Created with Sketch.</desc>
    <g id="Symbols" stroke="none" stroke-width="1" fill="none" fill-rule="evenodd">
        <g id="Icon-/-Dollar-Dark" fill="#333333" fill-rule="nonzero">
            <path d="M10.5,0 C4.70641728,0 0,4.70641728 0,10.5 C0,16.2935827 4.70641728,21 10.5,21 C16.2935827,21 21,16.2935827 21,10.5 C21,4.70641728 16.2935827,0 10.5,0 Z M10.5,0.913043478 C15.800137,0.913043478 20.0869565,5.19986296 20.0869565,10.5 C20.0869565,15.800137 15.800137,20.0869565 10.5,20.0869565 C5.19986296,20.0869565 0.913043478,15.800137 0.913043478,10.5 C0.913043478,5.19986296 5.19986296,0.913043478 10.5,0.913043478 Z M10.0434783,3.65217391 L10.0434783,4.93079133 C7.48695652,5.06774785 7.05290433,6.98442607 7.05290433,7.85181737 C7.05290433,12.1431217 13.3077872,9.86051302 13.3077872,13.1018174 C13.3077872,13.5126869 13.2166609,15.3389519 10.5231826,15.3389519 C10.4318783,15.3389519 7.64638259,15.339487 7.73768693,12.4634 L6.77916933,12.4634 C6.87047367,15.5220957 8.81086957,15.9322522 10.0434783,16.0692087 L10.0434783,17.3478261 L10.9565217,17.3478261 L10.9565217,16.0692087 C14.0152174,15.8409478 14.2208307,13.5583391 14.2208307,13.1018174 C14.2208307,8.99312172 7.9659478,11.0936568 7.9659478,7.94365676 C7.9659478,6.89365676 8.37753046,5.66104807 10.5231826,5.66104807 C12.714487,5.66104807 12.9884,7.39583067 13.0340522,8.17191763 L13.9925698,8.17191763 C14.0838742,6.89365676 13.1710087,5.02209567 10.9797044,4.93079133 L10.9797044,3.65217391 L10.0434783,3.65217391 Z" id="Shape"></path>
        </g>
    </g>
</svg>