<svg width="25" height="25" xmlns="http://www.w3.org/2000/svg">

 <g stroke="null">
  <title>Layer 1</title>
  <path stroke="null" fill="#ffffff" d="m24.90654,12.5c0,-6.83478 -5.55456,-12.37539 -12.40654,-12.37539c-6.85198,0 -12.40654,5.54061 -12.40654,12.37539c0,6.83478 5.55456,12.37539 12.40654,12.37539c6.85198,0 12.40654,-5.54061 12.40654,-12.37539zm-22.55735,0c0,-5.59209 4.54464,-10.12532 10.1508,-10.12532c5.60617,0 10.15083,4.53322 10.15083,10.12532c0,5.59209 -4.54467,10.12535 -10.15083,10.12535c-5.60617,0 -10.1508,-4.53325 -10.1508,-10.12535zm9.0229,-6.75023l2.25571,0l0,1.20685c0.92116,0.12603 1.73781,0.39779 2.44985,0.81529c1.02617,0.59333 1.56412,1.45673 1.61394,2.59012l-2.7614,0c-0.04973,-0.64144 -0.41051,-1.09725 -1.08215,-1.36733c-0.07067,-0.02822 -0.14411,-0.05415 -0.22024,-0.07792l0,2.69031l0.9292,0.17306c1.03868,0.19286 1.82227,0.45096 2.35089,0.77411c0.82102,0.50165 1.23142,1.22754 1.23142,2.17777c0,0.97429 -0.48197,1.78453 -1.44601,2.43092c-0.76672,0.51353 -1.78853,0.82153 -3.06551,0.924l0,1.16329l-2.25571,0l0,-1.18259c-1.208,-0.11722 -2.19874,-0.41403 -2.97211,-0.89024c-1.02627,-0.63669 -1.5393,-1.5097 -1.5393,-2.61903l2.74264,0c0.08714,0.4871 0.25816,0.85133 0.51313,1.0924c0.28992,0.27285 0.70846,0.46096 1.25564,0.56422l0,-2.89881c-1.39321,-0.24741 -2.35913,-0.51591 -2.89757,-0.80529c-0.92662,-0.49205 -1.38993,-1.2613 -1.38993,-2.30796c0,-0.95508 0.44773,-1.74849 1.34328,-2.38033c0.71432,-0.50393 1.69573,-0.80697 2.94422,-0.90895l0,-1.16388zm-0.96642,3.32452c0.26739,-0.14029 0.58956,-0.238 0.96642,-0.29335l0,2.39479c-0.4649,-0.10237 -0.79015,-0.19504 -0.97575,-0.2783c-0.43532,-0.18811 -0.65308,-0.47264 -0.65308,-0.8537c0,-0.41482 0.22084,-0.73797 0.66241,-0.96944zm3.22213,7.16812l0,-2.51904c0.48872,0.1089 0.86995,0.228 1.14378,0.3575c0.398,0.19286 0.5971,0.46541 0.5971,0.81747c0,0.60293 -0.40118,1.01538 -1.20343,1.23724c-0.16079,0.04396 -0.33994,0.0796 -0.53745,0.10682z" clip-rule="evenodd" fill-rule="evenodd"/>
 </g>
</svg>
