<?xml version="1.0" encoding="UTF-8"?>
<svg width="14px" height="14px" viewBox="0 0 14 14" version="1.1" xmlns="http://www.w3.org/2000/svg" xmlns:xlink="http://www.w3.org/1999/xlink">
    <!-- Generator: Sketch 57.1 (83088) - https://sketch.com -->
    <title>Shape</title>
    <desc>Created with Sketch.</desc>
    <g id="Symbols" stroke="none" stroke-width="1" fill="none" fill-rule="evenodd">
        <g id="Email-Link" transform="translate(0.000000, -6.000000)" fill="#FFFFFF" fill-rule="nonzero">
            <path d="M7.12899131,6 C3.22384501,6 0.0425055522,9.16377265 0,13.0659817 L0,13.0725203 L0,13.0796536 C0.0425866913,16.9014777 3.15858979,20 6.98335601,20 C9.33246957,20 11.3196965,19.2959838 12.9442934,17.3464674 C13.0836075,17.1793329 13.123174,16.9505711 13.0480883,16.7463542 C12.9730027,16.5421373 12.7946723,16.3934909 12.5802725,16.3564085 C12.3658727,16.3193262 12.147976,16.3994416 12.0086618,16.5665761 C10.5897804,18.2692336 9.11180766,18.7826087 6.98335601,18.7826087 C3.81583744,18.7826087 1.256849,16.2396651 1.21798573,13.0725203 C1.2572486,9.82534417 3.88135744,7.2173913 7.12899131,7.2173913 C8.44880023,7.2173913 9.7255214,7.66595377 10.6527682,8.45380435 C11.5800156,9.24165496 12.1721297,10.3465468 12.1721297,11.779042 L12.1721297,11.8967391 C12.1721297,12.9270834 11.6871204,13.905537 11.0207201,14.6204145 C10.3543198,15.3352916 9.50083083,15.7391304 8.9966881,15.7391304 C8.88490357,15.7391304 8.88957683,15.7252631 8.88077449,15.7153533 C8.87197183,15.7054434 8.82430366,15.639 8.82430366,15.4347826 L8.82430366,15.4193275 L8.82370927,15.4038724 C8.82370927,15.4038724 8.78226136,14.6907684 9.19106653,13.6978601 C9.1915684,13.6966415 9.19175223,13.695513 9.19225531,13.6942935 L10.6058085,10.1841882 C10.6860452,9.99306666 10.6635189,9.77425181 10.546027,9.6034858 C10.4285351,9.43271978 10.2322258,9.33347261 10.0250508,9.34009839 C9.78091302,9.34799203 9.56513494,9.50104942 9.47698701,9.72885526 L9.39852249,9.92442248 C9.28664697,9.79050274 9.16281788,9.67060309 9.0258151,9.56776487 C8.50909579,9.17990096 7.87261288,9.04347826 7.21518353,9.04347826 C6.33416292,9.04347826 5.3702751,9.54409361 4.52776818,10.4106659 C3.68526188,11.2772376 3.0095957,12.561947 3.0095957,14.1591373 C3.0095957,15.6962612 4.26637783,16.9565217 5.8022247,16.9565217 C6.64808249,16.9565217 7.3085964,16.5976722 7.75551962,16.1712806 C7.8106507,16.2975871 7.87705057,16.4183423 7.97070297,16.5237772 C8.23225218,16.8182145 8.6279074,16.9565217 8.9966881,16.9565217 C10.0322413,16.9565217 11.070369,16.3522084 11.9111752,15.4502377 C12.7519814,14.5482673 13.3895211,13.3011774 13.3895211,11.8967391 L13.3895211,11.779042 C13.3895211,10.0003637 12.6116041,8.5205387 11.4409816,7.52590014 C10.2703591,6.53126159 8.72179079,6 7.12899131,6 Z M7.21518353,10.2608696 C7.70575388,10.2608696 8.0543831,10.3606302 8.29526162,10.5414402 C8.51463766,10.7061103 8.68649344,10.9655261 8.79161001,11.4301121 L8.06700075,13.230044 L7.65684427,14.2477071 C7.65624706,14.2486961 7.65565267,14.2496869 7.6550611,14.2506793 C7.4412257,14.5935244 7.23117823,14.977517 6.9470957,15.2623982 C6.66301349,15.547279 6.3526481,15.7391304 5.8022247,15.7391304 C4.92581101,15.7391304 4.22698701,15.0397525 4.22698701,14.1591373 C4.22698701,12.901849 4.74648105,11.9327103 5.40098501,11.2595109 C6.05548927,10.5863114 6.8900734,10.2608696 7.21518353,10.2608696 Z" id="Shape"></path>
        </g>
    </g>
</svg>