<svg width="50" height="50" xmlns="http://www.w3.org/2000/svg">

 <g>
  <title>background</title>
  <rect fill="none" id="canvas_background" height="602" width="802" y="-1" x="-1"/>
 </g>
 <g>
  <title>Layer 1</title>
  <path stroke="null" id="svg_1" fill="#FFFFFF" d="m6.02381,0.11831c-3.26096,0 -5.93006,2.66561 -5.93006,5.92232l0,37.90287c0,3.25671 2.6691,5.92232 5.93006,5.92232l19.96298,0a1.18613,1.18458 0 0 0 0.38684,0l6.72923,0a1.18613,1.18458 0 0 0 0.38684,0l10.48648,0c3.26096,0 5.93006,-2.66561 5.93006,-5.92232l0,-37.90287c0,-3.25671 -2.6691,-5.92232 -5.93006,-5.92232l-37.95237,0zm0,2.36893l37.95237,0c1.97884,0 3.55803,1.57714 3.55803,3.55339l0,37.90287c0,1.97626 -1.5792,3.55339 -3.55803,3.55339l-9.48809,0l0,-16.58251l4.53093,0l1.66088,-8.29125l-6.19181,0l0,-2.36893c0,-0.66033 0.06292,-0.71195 0.28492,-0.85597c0.22201,-0.14401 0.908,-0.3285 2.08711,-0.3285l3.55803,0l0,-6.66956l-0.67639,-0.32156c0,0 -2.72432,-1.30014 -6.43968,-1.30014c-2.66853,0 -4.86076,1.06181 -6.26362,2.8131c-1.40286,1.75129 -2.03846,4.09627 -2.03846,6.66261l0,2.36893l-3.55803,0l0,8.29125l3.55803,0l0,16.58251l-18.97619,0c-1.97884,0 -3.55803,-1.57714 -3.55803,-3.55339l0,-37.90287c0,-1.97626 1.5792,-3.55339 3.55803,-3.55339zm27.27827,10.66018c2.46579,0 4.01745,0.54303 4.74405,0.83051l0,2.72288l-1.18601,0c-1.36489,0 -2.45865,0.11276 -3.37967,0.71022c-0.92101,0.59746 -1.36438,1.73155 -1.36438,2.84318l0,4.73786l5.66831,0l-0.71114,3.55339l-4.95716,0l0,18.95144l-4.74405,0l0,-18.95144l-3.55803,0l0,-3.55339l3.55803,0l0,-4.73786c0,-2.17151 0.55042,-3.97216 1.51958,-5.18203c0.96916,-1.20987 2.33496,-1.92476 4.41048,-1.92476z"/>
 </g>
</svg>