<?xml version="1.0" encoding="UTF-8"?>
<svg width="17px" height="19px" viewBox="0 0 17 19" version="1.1" xmlns="http://www.w3.org/2000/svg" xmlns:xlink="http://www.w3.org/1999/xlink">
    <!-- Generator: Sketch 57.1 (83088) - https://sketch.com -->
    <title>file-plus</title>
    <desc>Created with Sketch.</desc>
    <g id="Messaging-UI" stroke="none" stroke-width="1" fill="none" fill-rule="evenodd">
        <g id="Job-Detail-Page-Copy-3" transform="translate(-949.000000, -816.000000)" fill="#333333" fill-rule="nonzero">
            <g id="Group" transform="translate(416.000000, 804.000000)">
                <path d="M533,12 L533,30.24 L543.695804,30.24 C544.334449,30.7179689 545.12977,31 545.987762,31 C548.0932,31 549.807692,29.2944532 549.807692,27.2 C549.807692,25.6473439 548.86017,24.3099218 547.515734,23.720625 L547.515734,17.545625 L547.408299,17.426875 L542.060397,12.106875 L541.941024,12 L533,12 Z M533.763986,12.76 L541.403846,12.76 L541.403846,18.08 L546.751748,18.08 L546.751748,23.483125 C546.50405,23.4326564 546.250382,23.4 545.987762,23.4 C543.882324,23.4 542.167832,25.1055468 542.167832,27.2 C542.167832,28.0564843 542.460296,28.8432032 542.943755,29.48 L533.763986,29.48 L533.763986,12.76 Z M542.167832,13.30625 L546.202633,17.32 L542.167832,17.32 L542.167832,13.30625 Z M545.987762,24.16 C547.679872,24.16 549.043706,25.5167189 549.043706,27.2 C549.043706,28.8832814 547.679872,30.24 545.987762,30.24 C544.295653,30.24 542.931818,28.8832814 542.931818,27.2 C542.931818,25.5167189 544.295653,24.16 545.987762,24.16 Z M545.605769,25.3 L545.605769,26.82 L544.077797,26.82 L544.077797,27.58 L545.605769,27.58 L545.605769,29.1 L546.369755,29.1 L546.369755,27.58 L547.897727,27.58 L547.897727,26.82 L546.369755,26.82 L546.369755,25.3 L545.605769,25.3 Z" id="file-plus"></path>
            </g>
        </g>
    </g>
</svg>