<?xml version="1.0" encoding="UTF-8"?>
<svg width="16px" height="16px" viewBox="0 0 16 16" version="1.1" xmlns="http://www.w3.org/2000/svg" xmlns:xlink="http://www.w3.org/1999/xlink">
    <!-- Generator: Sketch 57.1 (83088) - https://sketch.com -->
    <title>grid</title>
    <desc>Created with Sketch.</desc>
    <defs>
        <path d="M8.33333,3 L4.33333,3 C3.596,3 3,3.596 3,4.33333 L3,8.33333 C3,9.06933 3.596,9.66667 4.33333,9.66667 L8.33333,9.66667 C9.07067,9.66667 9.66667,9.06933 9.66667,8.33333 L9.66667,4.33333 C9.66667,3.597333 9.07067,3 8.33333,3 Z M17.6667,3 L13.6667,3 C12.92933,3 12.33333,3.596 12.33333,4.33333 L12.33333,8.33333 C12.33333,9.06933 12.92933,9.66667 13.6667,9.66667 L17.6667,9.66667 C18.404,9.66667 19,9.06933 19,8.33333 L19,4.33333 C19,3.597333 18.404,3 17.6667,3 Z M8.33333,12.33333 L4.33333,12.33333 C3.596,12.33333 3,12.92933 3,13.6667 L3,17.6667 C3,18.4027 3.596,19 4.33333,19 L8.33333,19 C9.07067,19 9.66667,18.4027 9.66667,17.6667 L9.66667,13.6667 C9.66667,12.93067 9.07067,12.33333 8.33333,12.33333 Z M17.6667,12.33333 L13.6667,12.33333 C12.92933,12.33333 12.33333,12.92933 12.33333,13.6667 L12.33333,17.6667 C12.33333,18.4027 12.92933,19 13.6667,19 L17.6667,19 C18.404,19 19,18.4027 19,17.6667 L19,13.6667 C19,12.93067 18.404,12.33333 17.6667,12.33333 Z" id="path-1"></path>
    </defs>
    <g id="Symbols" stroke="none" stroke-width="1" fill="none" fill-rule="evenodd">
        <g id="Icon/Basic/Grid" transform="translate(-3.000000, -3.000000)">
            <mask id="mask-2" fill="white">
                <use xlink:href="#path-1"></use>
            </mask>
            <use id="grid" fill="#FFFFFF" xlink:href="#path-1"></use>
        </g>
    </g>
</svg>