<?xml version="1.0" encoding="utf-8"?>
<svg xmlns="http://www.w3.org/2000/svg" viewBox="0 0 50 50" fill="#2c2c2c"><path d="M25,2C12.318,2,2,12.317,2,25s10.318,23,23,23s23-10.317,23-23S37.682,2,25,2z M33,18c1.657,0,3,1.343,3,3s-1.343,3-3,3 s-3-1.343-3-3S31.343,18,33,18z M17,18c1.657,0,3,1.343,3,3s-1.343,3-3,3s-3-1.343-3-3S15.343,18,17,18z M38.814,30.581 C38.597,30.884,33.418,38,25,38s-13.597-7.116-13.814-7.419c-0.32-0.449-0.216-1.072,0.232-1.394 c0.449-0.321,1.074-0.218,1.395,0.23C12.86,29.483,17.628,36,25,36s12.14-6.517,12.187-6.582c0.322-0.448,0.945-0.552,1.395-0.23 C39.03,29.509,39.134,30.132,38.814,30.581z" fill="333333"/></svg>
