<?xml version="1.0" encoding="UTF-8"?>
<svg width="22px" height="20px" viewBox="0 0 22 20" version="1.1" xmlns="http://www.w3.org/2000/svg" xmlns:xlink="http://www.w3.org/1999/xlink">
    <!-- Generator: Sketch 57.1 (83088) - https://sketch.com -->
    <title>Mask</title>
    <desc>Created with Sketch.</desc>
    <defs>
        <path d="M6.2173913,1 C2.78923222,1 0,3.78923222 0,7.2173913 C0,14.2773439 7.98471491,17.7615489 10.701087,20.0258152 L11,20.2798913 L11.298913,20.0258152 C14.0152856,17.7615489 22,14.2773439 22,7.2173913 C22,3.78923222 19.2107678,1 15.7826087,1 C13.8434106,1 12.1396062,1.9210257 11,3.31657609 C9.86039426,1.9210257 8.15658991,1 6.2173913,1 Z M6.2173913,1.95652174 C8.05197035,1.95652174 9.6548913,2.89809783 10.5964674,4.31793478 L11,4.91576087 L11.4035326,4.31793478 C12.3451087,2.89809783 13.9480301,1.95652174 15.7826087,1.95652174 C18.6932747,1.95652174 21.0434783,4.30672578 21.0434783,7.2173913 C21.0434783,13.3862095 14.1535326,16.5789743 11,19.0692935 C7.84646739,16.5789743 0.956521739,13.3862095 0.956521739,7.2173913 C0.956521739,4.30672578 3.30672578,1.95652174 6.2173913,1.95652174 Z" id="path-1"></path>
    </defs>
    <g id="Symbols" stroke="none" stroke-width="1" fill="none" fill-rule="evenodd">
        <g id="Icon/Basic/Heart-outline" transform="translate(0.000000, -1.000000)">
            <mask id="mask-2" fill="white">
                <use xlink:href="#path-1"></use>
            </mask>
            <use id="Mask" fill="#000000" fill-rule="nonzero" xlink:href="#path-1"></use>
        </g>
    </g>
</svg>