<?xml version="1.0" encoding="UTF-8"?>
<svg width="20px" height="20px" viewBox="0 0 20 20" version="1.1" xmlns="http://www.w3.org/2000/svg" xmlns:xlink="http://www.w3.org/1999/xlink">
    <!-- Generator: Sketch 57.1 (83088) - https://sketch.com -->
    <title>icon-help</title>
    <desc>Created with Sketch.</desc>
    <g id="Building-Profile" stroke="none" stroke-width="1" fill="none" fill-rule="evenodd">
        <g id="Desktop-HD-Copy" transform="translate(-1057.000000, -15.000000)" fill="#333333" fill-rule="nonzero">
            <g id="Header" transform="translate(0.000000, -24.000000)">
                <path d="M1067,39 C1066.55241,39 1066.10645,39.0439454 1065.75,39.1302083 C1065.57096,39.1725262 1065.42611,39.2197267 1065.28125,39.2994792 C1065.20801,39.3385417 1065.13151,39.390625 1065.0599,39.46875 C1065.02246,39.5110679 1064.9834,39.5712892 1064.95573,39.6380208 C1064.69206,39.6949871 1064.43001,39.7682292 1064.17448,39.8463542 C1063.97754,39.7666017 1063.31185,39.5110679 1062.40365,39.4557292 C1062.27018,39.4475913 1062.13021,39.4410808 1061.98698,39.4427083 C1060.98926,39.4573567 1059.8125,39.7552083 1058.78385,40.7838542 C1056.5931,42.9746096 1057.68685,45.8098958 1057.84635,46.1875 C1057.76986,46.4397788 1057.69499,46.6953125 1057.63802,46.9557292 C1057.57129,46.9833983 1057.51107,47.0224608 1057.46875,47.0598958 C1057.39062,47.1315104 1057.33854,47.2080079 1057.29948,47.28125 C1057.21973,47.4261067 1057.17253,47.5709637 1057.13021,47.75 C1057.04395,48.1064454 1057,48.5524087 1057,49 C1057,49.4475913 1057.04395,49.8935546 1057.13021,50.25 C1057.17253,50.4290367 1057.21973,50.5738933 1057.29948,50.71875 C1057.33854,50.7919921 1057.39062,50.8684896 1057.46875,50.9401042 C1057.51107,50.9775392 1057.57129,51.0166017 1057.63802,51.0442708 C1057.69499,51.306315 1057.76823,51.5585938 1057.84635,51.8125 C1057.68685,52.1901042 1056.5931,55.0253908 1058.78385,57.2161458 C1060.97461,59.4069012 1063.8099,58.3131513 1064.1875,58.1536458 C1064.4349,58.2301433 1064.68717,58.29362 1064.94271,58.3489583 C1064.97038,58.4238283 1065.01921,58.4856771 1065.0599,58.53125 C1065.13151,58.609375 1065.20801,58.6614583 1065.28125,58.7005208 C1065.42611,58.7802733 1065.57096,58.8274742 1065.75,58.8697917 C1066.10645,58.9560546 1066.55241,59 1067,59 C1067.44759,59 1067.89355,58.9560546 1068.25,58.8697917 C1068.42904,58.8274742 1068.57389,58.7802733 1068.71875,58.7005208 C1068.79199,58.6614583 1068.86849,58.609375 1068.9401,58.53125 C1068.97754,58.4889325 1069.0166,58.4287108 1069.04427,58.3619792 C1069.30469,58.3050129 1069.56022,58.2317708 1069.8125,58.1536458 C1070.1901,58.3131513 1073.02539,59.4069012 1075.21615,57.2161458 C1077.38411,55.0481771 1076.33105,52.2519533 1076.15365,51.8255208 C1076.2334,51.5699871 1076.30501,51.3095704 1076.36198,51.0442708 C1076.42871,51.0166017 1076.48893,50.9775392 1076.53125,50.9401042 C1076.60938,50.8684896 1076.66146,50.7919921 1076.70052,50.71875 C1076.78027,50.5738933 1076.82747,50.4290367 1076.86979,50.25 C1076.95605,49.8935546 1077,49.4475913 1077,49 C1077,48.5524087 1076.95605,48.1064454 1076.86979,47.75 C1076.82747,47.5709637 1076.78027,47.4261067 1076.70052,47.28125 C1076.66146,47.2080079 1076.60938,47.1315104 1076.53125,47.0598958 C1076.48893,47.0224608 1076.42871,46.9833983 1076.36198,46.9557292 C1076.30501,46.693685 1076.23177,46.4414062 1076.15365,46.1875 C1076.31315,45.8098958 1077.4069,42.9746096 1075.21615,40.7838542 C1074.1875,39.7552083 1073.01074,39.4573567 1072.01302,39.4427083 C1071.86979,39.4410808 1071.72982,39.4475913 1071.59635,39.4557292 C1070.66699,39.5110679 1069.98828,39.7747396 1069.8125,39.8463542 C1069.56185,39.7698567 1069.30469,39.6949871 1069.04427,39.6380208 C1069.0166,39.5712892 1068.97754,39.5110679 1068.9401,39.46875 C1068.86849,39.390625 1068.79199,39.3385417 1068.71875,39.2994792 C1068.57389,39.2197267 1068.42904,39.1725262 1068.25,39.1302083 C1067.89355,39.0439454 1067.44759,39 1067,39 Z M1067,39.8333333 C1067.38574,39.8333333 1067.77311,39.8723958 1068.04167,39.9375 C1068.13932,39.9619142 1068.19792,39.9944663 1068.25,40.015625 L1068.25,44.0520833 C1068.1849,44.1578775 1068.17188,44.2864583 1068.21094,44.4036458 C1068.08073,44.3580729 1067.73079,44.2473958 1067,44.2473958 C1066.22689,44.2473958 1065.8737,44.3776042 1065.76302,44.4166667 C1065.80697,44.3076171 1065.80208,44.1839192 1065.75,44.078125 L1065.75,40.1979167 C1065.79395,40.1360679 1065.82161,40.0644533 1065.82812,39.9895833 C1065.86719,39.9716796 1065.89648,39.9521483 1065.95833,39.9375 C1066.22689,39.8723958 1066.61426,39.8333333 1067,39.8333333 Z M1062.03906,40.2630208 C1062.36458,40.2581379 1062.66243,40.2792971 1062.92448,40.328125 C1060.91113,41.2770183 1059.27702,42.8981121 1058.32812,44.9114583 C1058.16048,43.9886067 1058.1849,42.5807292 1059.38281,41.3828125 C1060.24544,40.5201825 1061.21712,40.2744142 1062.03906,40.2630208 Z M1071.6224,40.2630208 C1072.50618,40.2060546 1073.63249,40.3981121 1074.61719,41.3828125 C1075.82161,42.5872396 1075.84277,44.0016275 1075.67188,44.9244792 C1074.72461,42.9127604 1073.10026,41.2770183 1071.08854,40.328125 C1071.25293,40.2988283 1071.43197,40.2760417 1071.6224,40.2630208 Z M1064.91667,40.4973958 L1064.91667,44 C1063.60156,44.5485025 1062.56152,45.6015625 1062.01302,46.9166667 L1058.4974,46.9166667 C1059.26888,43.7574871 1061.75749,41.2688804 1064.91667,40.4973958 Z M1069.08333,40.5104167 C1072.23763,41.2819012 1074.7181,43.76237 1075.48958,46.9166667 L1072,46.9166667 C1071.4515,45.6015625 1070.39844,44.5631513 1069.08333,44.0130208 L1069.08333,40.5104167 Z M1065.04688,44.859375 C1065.19499,45.0953775 1065.4554,45.25 1065.75,45.25 C1065.80371,45.2516275 1065.85579,45.2418621 1065.90625,45.2239583 C1065.90625,45.2239583 1066.22363,45.0807292 1067,45.0807292 C1067.77637,45.0807292 1068.09375,45.2239583 1068.09375,45.2239583 C1068.14421,45.2418621 1068.19629,45.2516275 1068.25,45.25 C1068.5446,45.25 1068.80501,45.0953775 1068.95312,44.859375 C1069.91341,45.3134767 1070.68652,46.0865888 1071.14062,47.046875 C1070.90462,47.1949871 1070.75,47.4554038 1070.75,47.75 C1070.74837,47.8037108 1070.75814,47.8557942 1070.77604,47.90625 C1070.77604,47.90625 1070.91927,48.2236329 1070.91927,49 C1070.91927,49.7763671 1070.77604,50.09375 1070.77604,50.09375 C1070.75814,50.1442058 1070.74837,50.1962892 1070.75,50.25 C1070.75,50.5445962 1070.90462,50.8050129 1071.14062,50.953125 C1070.68652,51.9117837 1069.91504,52.6881513 1068.95312,53.140625 C1068.80501,52.9046225 1068.5446,52.75 1068.25,52.75 C1068.19629,52.7483725 1068.14421,52.7581379 1068.09375,52.7760417 C1068.09375,52.7760417 1067.77637,52.9192708 1067,52.9192708 C1066.22363,52.9192708 1065.90625,52.7760417 1065.90625,52.7760417 C1065.85579,52.7581379 1065.80371,52.7483725 1065.75,52.75 C1065.45215,52.75 1065.19499,52.9127604 1065.04688,53.1536458 C1064.08984,52.6995442 1063.31185,51.9134117 1062.85938,50.953125 C1063.09538,50.8050129 1063.25,50.5445962 1063.25,50.25 C1063.25163,50.1962892 1063.24186,50.1442058 1063.22396,50.09375 C1063.22396,50.09375 1063.08073,49.7763671 1063.08073,49 C1063.08073,48.2236329 1063.22396,47.90625 1063.22396,47.90625 C1063.24186,47.8557942 1063.25163,47.8037108 1063.25,47.75 C1063.25,47.4602867 1063.10189,47.1966146 1062.8724,47.046875 C1063.32487,46.0882163 1064.08659,45.3118492 1065.04688,44.859375 Z M1058.08073,47.75 L1062.41667,47.75 C1062.38086,47.8509117 1062.2474,48.2089846 1062.2474,49 C1062.2474,49.7307942 1062.35807,50.0807292 1062.40365,50.2109375 C1062.3418,50.1865233 1062.27507,50.1783854 1062.20833,50.1848958 C1062.14323,50.1914062 1062.08138,50.2141929 1062.02604,50.25 L1058.01562,50.25 C1057.99447,50.1979167 1057.96191,50.1393229 1057.9375,50.0416667 C1057.8724,49.7731121 1057.83333,49.3857421 1057.83333,49 C1057.83333,48.6142579 1057.8724,48.2268879 1057.9375,47.9583333 C1057.96029,47.86556 1057.99447,47.8118492 1058.01562,47.7630208 C1058.03841,47.7597658 1058.05957,47.7565104 1058.08073,47.75 Z M1071.58333,47.75 L1075.98438,47.75 C1076.00553,47.8020833 1076.03809,47.8606771 1076.0625,47.9583333 C1076.1276,48.2268879 1076.16667,48.6142579 1076.16667,49 C1076.16667,49.3857421 1076.1276,49.7731121 1076.0625,50.0416667 C1076.0446,50.1149087 1076.02995,50.1555992 1076.01042,50.1979167 C1075.9974,50.1979167 1075.98438,50.1979167 1075.97135,50.1979167 C1075.91602,50.2044271 1075.86393,50.2223308 1075.8151,50.25 L1071.58333,50.25 C1071.61914,50.1490887 1071.7526,49.7910158 1071.7526,49 C1071.7526,48.2089846 1071.61914,47.8509117 1071.58333,47.75 Z M1058.51042,51.0833333 L1062.01302,51.0833333 C1062.56152,52.3951825 1063.60319,53.4384767 1064.91667,53.9869792 L1064.91667,57.4895833 C1061.76237,56.7164712 1059.2819,54.2392579 1058.51042,51.0833333 Z M1071.98698,51.0833333 L1075.5026,51.0833333 C1074.73112,54.2441408 1072.24414,56.73112 1069.08333,57.5026042 L1069.08333,54 C1070.39518,53.44987 1071.43848,52.39681 1071.98698,51.0833333 Z M1075.67188,53.0755208 C1075.84277,53.9983725 1075.82161,55.4127604 1074.61719,56.6171875 C1073.41276,57.8216146 1071.99837,57.8427733 1071.07552,57.671875 C1073.09212,56.7229817 1074.72135,55.0888671 1075.67188,53.0755208 Z M1058.32812,53.0885417 C1059.27865,55.0986329 1060.91113,56.7262371 1062.92448,57.671875 C1062.00163,57.8427733 1060.58724,57.8216146 1059.38281,56.6171875 C1058.1849,55.4192708 1058.16048,54.0113933 1058.32812,53.0885417 Z M1068.25,53.5833333 C1068.21582,53.6761067 1068.21582,53.7770183 1068.25,53.8697917 L1068.25,57.8411458 C1068.22721,57.8899742 1068.21419,57.943685 1068.21094,57.9973958 C1068.16536,58.0169271 1068.12142,58.0429688 1068.04167,58.0625 C1067.77311,58.1276042 1067.38574,58.1666667 1067,58.1666667 C1066.61426,58.1666667 1066.22689,58.1276042 1065.95833,58.0625 C1065.88509,58.0445962 1065.8444,58.0299479 1065.80208,58.0104167 C1065.80046,57.9420575 1065.78255,57.8753254 1065.75,57.8151042 L1065.75,53.9869792 C1065.83138,53.8730471 1065.85091,53.7265625 1065.80208,53.5963542 C1065.94043,53.6435546 1066.28711,53.7526042 1067,53.7526042 C1067.79102,53.7526042 1068.14909,53.6191408 1068.25,53.5833333 Z" id="help"></path>
            </g>
        </g>
    </g>
</svg>
