<svg width="25" height="25" xmlns="http://www.w3.org/2000/svg">
 <g stroke="null">
  <title>Layer 1</title>
  <path stroke="null" fill="#ffffff" d="m1.78778,12.5c0,-2.60017 0.91718,-4.98509 2.44412,-6.84571l3.23055,3.24679c-0.71945,1.01532 -1.14258,2.25747 -1.14258,3.59892c0,1.2077 0.34296,2.33491 0.93633,3.28861l-3.25265,3.26899c-1.38957,-1.81582 -2.21577,-4.08977 -2.21577,-6.5576zm3.62295,8.07139c1.88881,1.67694 4.37083,2.69466 7.08926,2.69466c2.58716,0 4.96017,-0.92182 6.81149,-2.4564l-3.23056,-3.24679c-1.01024,0.72306 -2.24619,1.14832 -3.58093,1.14832c-1.46675,0 -2.8141,-0.51354 -3.87387,-1.37143l-3.2154,3.23164zm17.80148,-8.06957c-0.00041,2.59942 -0.91746,4.9836 -2.44403,6.84381l-3.23056,-3.24679c0.71937,-1.01532 1.1425,-2.25739 1.1425,-3.59884c0,-1.47412 -0.51097,-2.82824 -1.36457,-3.89333l3.21152,-3.22766c1.66863,1.89805 2.68217,4.39147 2.68514,7.12282zm-4.1912,-8.5371c-1.80616,-1.39655 -4.06743,-2.22789 -6.52193,-2.23077c-2.58675,0.00021 -4.95943,0.92193 -6.8105,2.45633l3.23056,3.24677c1.01024,-0.72298 2.2461,-1.14824 3.58085,-1.14824c1.20166,0 2.32323,0.34468 3.27217,0.94104l3.24885,-3.26513zm-18.88127,8.53528c0,-6.8607 5.53385,-12.42236 12.36025,-12.42236c6.82335,0.00742 12.35283,5.56472 12.36025,12.42236c0,6.8607 -5.53385,12.42236 -12.36025,12.42236c-6.8264,0 -12.36025,-5.56166 -12.36025,-12.42236zm16.48033,0c0,2.28687 -1.84464,4.14079 -4.12008,4.14079c-2.27544,0 -4.12008,-1.85391 -4.12008,-4.14079c0,-2.28687 1.84464,-4.14079 4.12008,-4.14079c2.27544,0 4.12008,1.85391 4.12008,4.14079z" clip-rule="evenodd" fill-rule="evenodd"/>
 </g>
</svg>