<?xml version="1.0" encoding="UTF-8"?>
<svg width="20px" height="20px" viewBox="0 0 20 20" version="1.1" xmlns="http://www.w3.org/2000/svg" xmlns:xlink="http://www.w3.org/1999/xlink">
    <!-- Generator: Sketch 57.1 (83088) - https://sketch.com -->
    <title>Shape</title>
    <desc>Created with Sketch.</desc>
    <g id="Symbols" stroke="none" stroke-width="1" fill="none" fill-rule="evenodd">
        <g id="Alert-/-Success" transform="translate(-17.000000, -19.000000)" fill="#FFFFFF" fill-rule="nonzero">
            <path d="M27,19 C21.4823022,19 17,23.4823022 17,29 C17,34.5176978 21.4823022,39 27,39 C32.5176978,39 37,34.5176978 37,29 C37,23.4823022 32.5176978,19 27,19 Z M27,19.8695652 C32.0477496,19.8695652 36.1304348,23.9522504 36.1304348,29 C36.1304348,34.0477496 32.0477496,38.1304348 27,38.1304348 C21.9522504,38.1304348 17.8695652,34.0477496 17.8695652,29 C17.8695652,23.9522504 21.9522504,19.8695652 27,19.8695652 Z M27,22.9130435 C26.2796286,22.9130435 25.6956522,23.4970199 25.6956522,24.2173913 C25.6956522,24.9377627 26.2796286,25.5217391 27,25.5217391 C27.7203714,25.5217391 28.3043478,24.9377627 28.3043478,24.2173913 C28.3043478,23.4970199 27.7203714,22.9130435 27,22.9130435 L27,22.9130435 Z M25.2608696,27.2608696 L25.2608696,28.1304348 L25.6956522,28.1304348 L26.1304348,28.1304348 L26.1304348,33.7826087 L25.6956522,33.7826087 L25.2608696,33.7826087 L25.2608696,34.6521739 L25.6956522,34.6521739 L26.1304348,34.6521739 L27.8695652,34.6521739 L28.3043478,34.6521739 L28.7391304,34.6521739 L28.7391304,33.7826087 L28.3043478,33.7826087 L27.8695652,33.7826087 L27.8695652,27.2608696 L27.4347826,27.2608696 L25.6956522,27.2608696 L25.2608696,27.2608696 Z" id="Shape"></path>
        </g>
    </g>
</svg>