<svg width="50" height="50" xmlns="http://www.w3.org/2000/svg">

 <g>
  <title>background</title>
  <rect fill="none" id="canvas_background" height="602" width="802" y="-1" x="-1"/>
 </g>
 <g>
  <title>Layer 1</title>
  <path stroke="null" id="svg_1" fill="#FFFFFF" d="m14.82386,0.125c-8.10418,0 -14.69886,6.59468 -14.69886,14.69886l0,20.35227c0,8.10418 6.59468,14.69886 14.69886,14.69886l20.35227,0c8.10418,0 14.69886,-6.59468 14.69886,-14.69886l0,-20.35227c0,-8.10418 -6.59468,-14.69886 -14.69886,-14.69886l-20.35227,0zm0,2.26136l20.35227,0c6.88187,0 12.4375,5.55563 12.4375,12.4375l0,20.35227c0,6.88187 -5.55563,12.4375 -12.4375,12.4375l-20.35227,0c-6.88187,0 -12.4375,-5.55563 -12.4375,-12.4375l0,-20.35227c0,-6.88187 5.55563,-12.4375 12.4375,-12.4375zm23.74432,6.78409a2.26136,2.26136 0 0 0 -2.26136,2.26136a2.26136,2.26136 0 0 0 2.26136,2.26136a2.26136,2.26136 0 0 0 2.26136,-2.26136a2.26136,2.26136 0 0 0 -2.26136,-2.26136zm-13.56818,3.39205c-6.85565,0 -12.4375,5.58185 -12.4375,12.4375c0,6.85565 5.58185,12.4375 12.4375,12.4375c6.85565,0 12.4375,-5.58185 12.4375,-12.4375c0,-6.85565 -5.58185,-12.4375 -12.4375,-12.4375zm0,2.26136c5.63352,0 10.17614,4.54262 10.17614,10.17614c0,5.63352 -4.54262,10.17614 -10.17614,10.17614c-5.63352,0 -10.17614,-4.54262 -10.17614,-10.17614c0,-5.63352 4.54262,-10.17614 10.17614,-10.17614z"/>
 </g>
</svg>