<?xml version="1.0" encoding="UTF-8"?>
<svg width="16px" height="14px" viewBox="0 0 16 14" version="1.1" xmlns="http://www.w3.org/2000/svg" xmlns:xlink="http://www.w3.org/1999/xlink">
    <!-- Generator: Sketch 57.1 (83088) - https://sketch.com -->
    <title>list</title>
    <desc>Created with Sketch.</desc>
    <defs>
        <path d="M16.0286,9.71429 L9.4,9.71429 C8.76914,9.71429 8.71429,10.22514 8.71429,10.85714 C8.71429,11.48914 8.76914,12 9.4,12 L16.0286,12 C16.6594,12 16.71429,11.48914 16.71429,10.85714 C16.71429,10.22514 16.6594,9.71429 16.0286,9.71429 Z M18.3143,15.4286 L9.4,15.4286 C8.76914,15.4286 8.71429,15.9394 8.71429,16.5714 C8.71429,17.2034 8.76914,17.7143 9.4,17.7143 L18.3143,17.7143 C18.9451,17.7143 19,17.2034 19,16.5714 C19,15.9394 18.9451,15.4286 18.3143,15.4286 Z M9.4,6.28571 L18.3143,6.28571 C18.9451,6.28571 19,5.77486 19,5.14286 C19,4.510857 18.9451,4 18.3143,4 L9.4,4 C8.76914,4 8.71429,4.510857 8.71429,5.14286 C8.71429,5.77486 8.76914,6.28571 9.4,6.28571 Z M5.74286,9.71429 L3.685714,9.71429 C3.0548571,9.71429 3,10.22514 3,10.85714 C3,11.48914 3.0548571,12 3.685714,12 L5.74286,12 C6.37371,12 6.42857,11.48914 6.42857,10.85714 C6.42857,10.22514 6.37371,9.71429 5.74286,9.71429 Z M5.74286,15.4286 L3.685714,15.4286 C3.0548571,15.4286 3,15.9394 3,16.5714 C3,17.2034 3.0548571,17.7143 3.685714,17.7143 L5.74286,17.7143 C6.37371,17.7143 6.42857,17.2034 6.42857,16.5714 C6.42857,15.9394 6.37371,15.4286 5.74286,15.4286 Z M5.74286,4 L3.685714,4 C3.0548571,4 3,4.510857 3,5.14286 C3,5.77486 3.0548571,6.28571 3.685714,6.28571 L5.74286,6.28571 C6.37371,6.28571 6.42857,5.77486 6.42857,5.14286 C6.42857,4.510857 6.37371,4 5.74286,4 Z" id="path-1"></path>
    </defs>
    <g id="Symbols" stroke="none" stroke-width="1" fill="none" fill-rule="evenodd">
        <g id="Icon/Basic/List" transform="translate(-3.000000, -4.000000)">
            <mask id="mask-2" fill="white">
                <use xlink:href="#path-1"></use>
            </mask>
            <use id="list" fill="#333333" fill-rule="nonzero" xlink:href="#path-1"></use>
        </g>
    </g>
</svg>