<?xml version="1.0" encoding="UTF-8"?>
<svg width="21px" height="19px" viewBox="0 0 21 19" version="1.1" xmlns="http://www.w3.org/2000/svg" xmlns:xlink="http://www.w3.org/1999/xlink">
    <!-- Generator: Sketch 57.1 (83088) - https://sketch.com -->
    <title>Shape</title>
    <desc>Created with Sketch.</desc>
    <g id="Symbols" stroke="none" stroke-width="1" fill="none" fill-rule="evenodd">
        <g id="Icon-/-Open" transform="translate(0.000000, -1.000000)" fill="#FFFFFF" fill-rule="nonzero">
            <path d="M10.5,1 C9.74923585,1 9.13043478,1.61880107 9.13043478,2.36956522 C9.13043478,2.43911357 9.13400159,2.50331193 9.14470109,2.56929348 L1.69769022,7.39130435 L0.456521739,7.39130435 C0.442255435,7.39130435 0.42798913,7.39130435 0.413722826,7.39130435 C0.178328804,7.4127038 -0.00178317391,7.61064889 -1.31256995e-05,7.84782609 L-1.31256995e-05,18.8043478 C-1.31256995e-05,19.0557913 0.205078239,19.2608696 0.456521739,19.2608696 L20.5434783,19.2608696 C20.7949218,19.2608696 21,19.0557913 21,18.8043478 L21,7.84782609 C21,7.59638259 20.7949218,7.39130435 20.5434783,7.39130435 L19.3023098,7.39130435 L11.8552989,2.56929348 C11.8659989,2.50331193 11.8695652,2.43911357 11.8695652,2.36956522 C11.8695652,1.61880107 11.2507642,1 10.5,1 Z M10.5,1.91304348 C10.7567935,1.91304348 10.9565217,2.11277174 10.9565217,2.36956522 C10.9565217,2.6263587 10.7567935,2.82608696 10.5,2.82608696 C10.2432065,2.82608696 10.0434783,2.6263587 10.0434783,2.36956522 C10.0434783,2.11277174 10.2432065,1.91304348 10.5,1.91304348 Z M9.57269022,3.38247283 C9.81700057,3.60716735 10.1469092,3.73913043 10.5,3.73913043 C10.8530913,3.73913043 11.1829994,3.60716735 11.4273098,3.38247283 L17.6331522,7.39130435 L3.36684783,7.39130435 L9.57269022,3.38247283 Z M0.913043478,8.30434783 L1.68342391,8.30434783 C1.75832224,8.32396411 1.83678691,8.32396411 1.91168478,8.30434783 L19.1025815,8.30434783 C19.1721299,8.32218093 19.2470277,8.32218093 19.3165761,8.30434783 L20.0869565,8.30434783 L20.0869565,18.3478261 L0.913043478,18.3478261 L0.913043478,8.30434783 Z M4.33695652,10.5869565 C3.4595788,10.5869565 2.73913043,11.3074049 2.73913043,12.1847826 L2.73913043,14.4673913 C2.73913043,15.344769 3.4595788,16.0652174 4.33695652,16.0652174 C5.21433424,16.0652174 5.93478261,15.344769 5.93478261,14.4673913 L5.93478261,12.1847826 C5.93478261,11.3074049 5.21433424,10.5869565 4.33695652,10.5869565 Z M6.84782609,10.5869565 L6.84782609,16.0652174 L7.76086957,16.0652174 L7.76086957,14.2391304 L8.2173913,14.2391304 C9.22138259,14.2391304 10.0434783,13.4170348 10.0434783,12.4130435 C10.0434783,11.4090522 9.22138259,10.5869565 8.2173913,10.5869565 L6.84782609,10.5869565 Z M10.9565217,10.5869565 L10.9565217,16.0652174 L13.6956522,16.0652174 L13.6956522,15.1521739 L11.8695652,15.1521739 L11.8695652,13.7826087 L13.2391304,13.7826087 L13.2391304,12.8695652 L11.8695652,12.8695652 L11.8695652,11.5 L13.6956522,11.5 L13.6956522,10.5869565 L10.9565217,10.5869565 Z M14.6086957,10.5869565 L14.6086957,16.0652174 L15.5217391,16.0652174 L15.5217391,12.6413043 L16.4490489,15.7370924 L16.548913,16.0652174 L17.8043478,16.0652174 L17.8043478,10.5869565 L16.8913043,10.5869565 L16.8913043,14.0108696 L15.9639946,10.9150815 L15.8641304,10.5869565 L14.6086957,10.5869565 Z M4.33695652,11.5 C4.72036357,11.5 5.02173913,11.8013756 5.02173913,12.1847826 L5.02173913,14.4673913 C5.02173913,14.8507983 4.72036357,15.1521739 4.33695652,15.1521739 C3.95354948,15.1521739 3.65217391,14.8507983 3.65217391,14.4673913 L3.65217391,12.1847826 C3.65217391,11.8013756 3.95354948,11.5 4.33695652,11.5 Z M7.76086957,11.5 L8.2173913,11.5 C8.72741191,11.5 9.13043478,11.9030233 9.13043478,12.4130435 C9.13043478,12.9230641 8.72741191,13.326087 8.2173913,13.326087 L7.76086957,13.326087 L7.76086957,11.5 Z" id="Shape"></path>
        </g>
    </g>
</svg>