<?xml version="1.0" encoding="UTF-8"?>
<svg width="20px" height="20px" viewBox="0 0 20 20" version="1.1" xmlns="http://www.w3.org/2000/svg" xmlns:xlink="http://www.w3.org/1999/xlink">
    <!-- Generator: Sketch 57.1 (83088) - https://sketch.com -->
    <title>Shape</title>
    <desc>Created with Sketch.</desc>
    <g id="Symbols" stroke="none" stroke-width="1" fill="none" fill-rule="evenodd">
        <g id="Icon-/-Pencil" fill="#FFFFFF" fill-rule="nonzero">
            <path d="M18.1322732,0 C17.6299526,0 17.1613569,0.18959107 16.8116852,0.538650942 L16.4424885,0.907201587 L16.4282887,0.907201587 C16.3359895,0.859360765 16.2312653,0.84518574 16.1300914,0.864676512 C16.0431173,0.884167285 15.965018,0.928464124 15.9028934,0.992251736 L1.63202327,15.2381517 C1.62669821,15.2470109 1.6213736,15.2576424 1.6178234,15.2665017 C1.58232373,15.303711 1.55392398,15.3462361 1.53262418,15.3940769 L0.0274378725,19.3914339 C-0.0329113513,19.5562185 0.00791293652,19.742266 0.133936904,19.8662973 C0.258186,19.9921007 0.444559191,20.032854 0.609632576,19.9726099 L4.61399614,18.4700573 C4.66192082,18.4487948 4.70452043,18.4204447 4.74179498,18.3850072 C4.75066979,18.3779196 4.76131992,18.3779196 4.77019472,18.3708321 L19.0410649,4.12493222 C19.1937137,3.96723518 19.2132382,3.72271577 19.0836645,3.5437562 L19.4528611,3.17520555 C20.1823796,2.44873576 20.1823796,1.26512119 19.4528611,0.538650942 C19.1031894,0.18959107 18.6345937,0 18.1322732,0 Z M16.2152906,1.9419784 L18.0896735,3.81308167 L16.5844872,5.30145927 L14.7243042,3.44453103 L16.2152906,1.9419784 Z M2.2994172,15.9469029 L2.72541333,16.3721536 L3.63420506,16.3721536 L3.63420506,17.2793552 L4.06020118,17.704606 L1.85922121,18.5409324 L1.46162482,18.1440317 L2.2994172,15.9469029 Z" id="Shape"></path>
        </g>
    </g>
</svg>