<svg version="1.1" width="25" height="25" xmlns="http://www.w3.org/2000/svg">
  <style>.st0{fill:#2c2c2c}</style>
  <path class="st0" d="M4.9 13.7H1c-.3 0-.5.2-.5.5v9.9c0 .3.2.5.5.5h3.9c.3 0 .5-.2.5-.5v-9.9c0-.2-.3-.5-.5-.5zm-.5 10H1.5v-8.9h2.9v8.9zM17.6 13.1h-3.9c-.3 0-.5.2-.5.5v10.6c0 .3.2.5.5.5h3.9c.3 0 .5-.2.5-.5V13.6c0-.3-.2-.5-.5-.5zm-.5 10.6h-2.9v-9.6h2.9v9.6zM11.2 9.9H7.4c-.3 0-.5.2-.5.5v13.8c0 .3.2.5.5.5h3.9c.3 0 .5-.2.5-.5V10.4c-.1-.3-.3-.5-.6-.5zm-.5 13.8H7.9V10.9h2.9v12.8zM24 9.9h-3.9c-.3 0-.5.2-.5.5v13.8c0 .3.2.5.5.5H24c.3 0 .5-.2.5-.5V10.4c0-.3-.2-.5-.5-.5zm-.5 13.8h-2.9V10.9h2.9v12.8z"/>
  <path class="st0" d="M24.8.7V.6.5s0-.1-.1-.1l-.1-.1h-.1-2.6c-.3 0-.5.2-.5.5s.2.5.5.5h1.3L15.9 9 9.6 3.4c-.2-.2-.5-.2-.6 0L2.6 9.6c-.2.2-.2.5 0 .7.1.1.2.2.4.2.1 0 .3 0 .3-.1l6.1-5.9 6.2 5.6c.2.2.5.2.7 0l7.6-8v1.2c0 .3.2.5.5.5s.5-.2.5-.5L24.8.7z"/>
</svg>
