<svg width="20" height="20" viewBox="0 0 20 20" fill="none" xmlns="http://www.w3.org/2000/svg">
<path fill-rule="evenodd" clip-rule="evenodd" d="M5.18438 0.215625C5.58438 0.103125 6.20469 0 7.13594 0C8.06719 0 8.71719 0.103125 9.14375 0.2125C9.57031 0.321875 9.80625 0.457812 9.80625 0.457812L9.97656 0.560938L9.99844 0.759375C9.99844 0.759375 10.4 4.60469 10.4 6C10.4 7.24844 9.79531 7.98594 9.25156 8.42813C9.11223 8.54249 8.97747 8.64191 8.85861 8.72959C8.74688 8.81202 8.6492 8.88408 8.575 8.94844C8.42344 9.08125 8.4 9.13125 8.4 9.2C8.4 9.51758 8.46944 10.3532 8.55185 11.3449C8.56756 11.5339 8.58374 11.7287 8.6 11.9266C8.7 13.1625 8.8 14.5484 8.8 15.6C8.80156 17.5016 8.66719 18.5297 8.39844 19.1672C8.26406 19.4859 8.075 19.7203 7.84375 19.8516C7.61406 19.9844 7.37813 20 7.2 20C7.02031 20 6.78594 19.9828 6.55625 19.85C6.325 19.7188 6.1375 19.4859 6.00156 19.1672C5.73281 18.5281 5.6 17.5031 5.6 15.6C5.59844 14.5469 5.7 13.1625 5.8 11.9266C5.82047 11.6736 5.84094 11.4257 5.86055 11.1882L5.86056 11.1881L5.86056 11.1881C5.93675 10.2654 6 9.49947 6 9.2C6 9.13281 5.975 9.07812 5.82188 8.94219C5.74416 8.87319 5.64108 8.79614 5.52285 8.70778L5.52283 8.70776C5.40813 8.62203 5.27919 8.52565 5.14531 8.41563C4.60469 7.97031 4 7.23438 4 6C4 3.94844 4.40313 0.75 4.40313 0.75L4.425 0.58125L4.55938 0.48125C4.55938 0.48125 4.6375 0.425 4.7375 0.376562C4.83906 0.328125 4.98438 0.270312 5.18438 0.215625ZM12.1172 0.117188C12.1937 0.0421876 12.2953 0 12.4016 0C12.4547 0 12.5078 0.0109375 12.5578 0.0328125C14.0516 0.671875 14.9375 1.74219 15.4281 2.80781C15.9187 3.87344 16.0297 4.93281 16.0297 5.62969V5.63125C16.0281 6.87656 15.4781 7.95937 14.9641 8.89531L14.9242 8.96803L14.9242 8.96804C14.4284 9.87316 14 10.6552 14 11.2C14 11.4545 14.1159 11.8146 14.2688 12.2896C14.3046 12.4008 14.3424 12.5183 14.3813 12.6422C14.5859 13.2938 14.8 14.1266 14.8 15.2C14.8 17.1078 14.5578 18.2562 14.1844 18.9797C13.8109 19.7016 13.2437 19.9813 12.8 19.9813C12.6062 19.9813 12.3828 19.9484 12.1875 19.8109C11.9922 19.6734 11.8688 19.4578 11.7906 19.2109C11.6359 18.7156 11.6 18.0109 11.6 16.8C11.6 15.9641 11.7109 14.3062 11.8203 12.7297L11.8431 12.4061L11.8431 12.406C11.9457 10.9494 12.0405 9.60437 12.0391 9.26094C12.0391 8.71194 12.0232 7.1684 12.0117 6.04631C12.0052 5.40556 12 4.90223 12 4.8V0.4C12 0.29375 12.0422 0.192188 12.1172 0.117188ZM7.13594 0.8C7.30469 0.8 7.45313 0.80625 7.6 0.8125V4.8C7.59844 4.94375 7.67344 5.07813 7.79844 5.15156C7.92344 5.22344 8.07656 5.22344 8.20156 5.15156C8.32656 5.07813 8.40156 4.94375 8.4 4.8V0.884375C8.61562 0.917188 8.80469 0.951562 8.94531 0.9875C9.12218 1.03298 9.15502 1.04986 9.19167 1.0687C9.20035 1.07316 9.20924 1.07773 9.22031 1.08281C9.25469 1.42031 9.6 4.825 9.6 6C9.6 7.0125 9.20469 7.43594 8.74688 7.80781C8.64549 7.89114 8.54041 7.9683 8.43532 8.04545L8.4353 8.04546L8.43528 8.04548C8.30392 8.14193 8.17256 8.23837 8.04844 8.34688C7.825 8.54219 7.6 8.82969 7.6 9.2C7.6 9.58488 7.66056 10.3051 7.73419 11.1809L7.73421 11.1811C7.75593 11.4395 7.77878 11.7114 7.80156 11.9922C7.90156 13.2234 8 14.6 8 15.6C8.00156 17.4609 7.83906 18.4344 7.6625 18.8562C7.57344 19.0672 7.49844 19.1281 7.44688 19.1578C7.39531 19.1875 7.32813 19.2 7.20156 19.2H7.2C7.07344 19.2 7.00625 19.1875 6.95469 19.1562C6.90156 19.1266 6.82813 19.0656 6.73906 18.8562C6.5625 18.4344 6.4 17.4609 6.4 15.6C6.39844 14.5984 6.49688 13.2234 6.59844 11.9922C6.62098 11.7146 6.64361 11.4456 6.66513 11.1897L6.66513 11.1896C6.73907 10.3105 6.8 9.58606 6.8 9.2C6.8 8.82812 6.57656 8.54219 6.35469 8.34375C6.22868 8.23272 6.09521 8.13362 5.96158 8.03439L5.96156 8.03438C5.85825 7.95766 5.75483 7.88087 5.65469 7.79844C5.19688 7.42031 4.8 6.99531 4.8 6C4.8 4.18154 5.12818 1.44326 5.17254 1.07309L5.17344 1.06563L5.18438 1.06101L5.18438 1.06101C5.23961 1.03769 5.29298 1.01516 5.4 0.984375C5.54531 0.94375 5.74688 0.903125 6 0.86875V4.8C5.99844 4.94375 6.07344 5.07813 6.19844 5.15156C6.32344 5.22344 6.47656 5.22344 6.60156 5.15156C6.72656 5.07813 6.80156 4.94375 6.8 4.8V0.809375C6.83655 0.808345 6.87209 0.806977 6.90772 0.805604L6.90774 0.805603C6.98025 0.80281 7.05318 0.8 7.13594 0.8ZM14.7 3.14219C14.3516 2.38438 13.7094 1.69375 12.8 1.14375V4.8C12.8 4.86853 12.8042 5.2752 12.8098 5.82231C12.8214 6.94676 12.8391 8.66446 12.8391 9.25938C12.8403 9.66009 12.7696 10.6548 12.6857 11.836C12.6639 12.1424 12.6413 12.4615 12.6187 12.7859C12.5094 14.3594 12.4 16.0359 12.4 16.8C12.4 17.9891 12.4609 18.675 12.5547 18.9703C12.6 19.1187 12.6375 19.15 12.65 19.1578C12.6625 19.1656 12.6906 19.1812 12.8 19.1812C12.9672 19.1812 13.1984 19.1437 13.4734 18.6125C13.7484 18.0797 14 17.0375 14 15.2C14 14.2312 13.8125 13.5 13.6187 12.8813C13.5763 12.7468 13.5325 12.6177 13.49 12.4924C13.3369 12.0411 13.2 11.6378 13.2 11.2C13.2 10.4038 13.617 9.66226 14.0534 8.88616C14.1231 8.76209 14.1934 8.63714 14.2625 8.51094C14.7656 7.59531 15.2281 6.63594 15.2297 5.63125C15.2297 5.02031 15.125 4.06406 14.7 3.14219Z" fill="#333333"/>
</svg>
