<?xml version="1.0" encoding="UTF-8"?>
<svg width="18px" height="25px" viewBox="0 0 18 25" version="1.1" xmlns="http://www.w3.org/2000/svg" xmlns:xlink="http://www.w3.org/1999/xlink">
    <!-- Generator: Sketch 59.1 (86144) - https://sketch.com -->
    <title>Shape</title>
    <desc>Created with Sketch.</desc>
    <g id="Symbols" stroke="none" stroke-width="1" fill="none" fill-rule="evenodd">
        <g id="Building-Profile-/-Intro" transform="translate(-108.000000, -409.000000)" fill="#333333" fill-rule="nonzero">
            <g id="Group-6" transform="translate(85.000000, 382.000000)">
                <g id="Group-5" transform="translate(23.000000, 27.000000)">
                    <path d="M6.99951918,0.00403847812 C6.29340058,0.0251268782 5.61115246,0.39288877 5.22244368,1.0354951 L5.0851195,1.2633514 C4.88900892,1.587129 4.54345482,1.78654623 4.16555658,1.79433798 L4.16453943,1.79433798 L3.8980288,1.80044125 C2.7544011,1.82425913 1.82278497,2.75520154 1.7995129,3.8989571 L1.79340948,4.16546762 C1.78561809,4.54337263 1.58559359,4.88964192 1.26242305,5.08503065 L1.03456675,5.22337197 C0.055994458,5.81573429 -0.285687236,7.08840105 0.265551736,8.09090263 L0.266568939,8.09090263 L0.394738133,8.32486235 C0.57710041,8.65594719 0.57710041,9.05575036 0.394738133,9.3868352 L0.266568939,9.61977778 C-0.284582276,10.62212 0.0563742359,11.8949893 1.03558395,12.4873084 L1.2634402,12.6246326 C1.58721801,12.8207432 1.78663524,13.1662973 1.79442663,13.5441955 L1.79442663,13.5452127 L1.80053005,13.8117233 C1.81979602,14.7368152 2.43659651,15.5141885 3.27549258,15.7932596 L0.569699221,21.6564902 C0.495084587,21.8178179 0.507889202,22.0060574 0.603663421,22.1557947 C0.69943764,22.305532 0.864957559,22.3960925 1.04270447,22.396006 L4.4381701,22.396006 L6.36477663,24.8047726 C6.47875914,24.9471781 6.65892975,25.0195833 6.83975756,24.9956534 C7.02058536,24.9717234 7.17572024,24.8549453 7.2487372,24.687793 L8.87119593,20.9800419 L10.4936547,24.687793 C10.5666716,24.8549453 10.7218065,24.9717234 10.9026343,24.9956534 C11.0834621,25.0195833 11.2636327,24.9471781 11.3776152,24.8047726 L13.3042218,22.396006 L16.6996874,22.396006 C16.8774343,22.3960925 17.0429542,22.305532 17.1387284,22.1557947 C17.2345026,22.0060573 17.2473072,21.8178179 17.1726926,21.6564902 L14.4628302,15.7841047 C15.2876106,15.4971516 15.8912725,14.7266932 15.9103281,13.8117233 L15.9103281,13.8107062 L15.9164315,13.5452127 L15.9164315,13.5441955 C15.9242229,13.1662905 16.1242474,12.8200213 16.4474179,12.6246326 L16.6762914,12.4862913 C17.6548886,11.8939284 17.9955278,10.6222794 17.4442895,9.61977778 L17.4432718,9.61876063 L17.3130682,9.38378375 C17.1318139,9.05309265 17.1320691,8.65425871 17.3140859,8.3238452 L17.4432718,8.09090263 L17.4432718,8.08988548 C17.9941841,7.08797867 17.6535043,5.81602439 16.6752742,5.22337197 L16.6742571,5.22235482 L16.4464008,5.08503065 C16.1226464,4.88901798 15.9232057,4.54336591 15.9154143,4.16546762 L15.9154143,4.16445036 L15.9093109,3.8989571 L15.9093109,3.89793989 C15.8854935,2.75430876 14.9545503,1.82269617 13.810795,1.79942404 L13.5442844,1.79332073 C13.1663794,1.78552887 12.8201102,1.58550448 12.6247215,1.26233419 L12.4863801,1.03447789 C11.894061,0.0552681783 10.6211917,-0.285688344 9.61884948,0.265462881 L9.61884948,0.266480084 L9.38488976,0.394649278 C9.05380492,0.577011555 8.65400174,0.577011555 8.3229169,0.394649278 L8.08997433,0.266480084 C7.83938865,0.12869228 7.57217128,0.0465282356 7.30264931,0.0162450656 C7.20157902,0.00488886387 7.10039312,0.00102582722 6.99951918,0.00403847812 Z M6.9730717,1.04261562 C7.17906109,1.02758455 7.39251114,1.07116255 7.58848683,1.17892254 L7.82041225,1.30709168 C8.46325034,1.66116824 9.24557347,1.66116824 9.88841156,1.30709168 L10.1213541,1.17790528 L10.1213541,1.17892254 C10.6439565,0.891562569 11.2866097,1.06328278 11.5952995,1.57360215 L11.7336408,1.80145845 C12.1131296,2.42863169 12.7890322,2.81949321 13.521906,2.83494953 L13.7894333,2.84105285 C14.385896,2.85318886 14.8565632,3.32283913 14.8686993,3.91930141 L14.8686993,3.92031861 L14.8737855,4.18682913 C14.88891,4.92034861 15.2800468,5.59620113 15.9072766,5.97611127 L16.1351329,6.1144526 C16.6451399,6.42295336 16.8174513,7.06495138 16.5308295,7.58738083 L16.401643,7.82134055 C16.0475668,8.46417864 16.0475668,9.24548461 16.401643,9.8883227 L16.4026607,9.88933985 L16.4026607,9.890357 L16.5318466,10.1212653 C16.819119,10.6437077 16.6460404,11.2865646 16.1361501,11.5952107 L15.9082938,11.733552 C15.2804567,12.1131423 14.8899266,12.7893214 14.8748027,13.5228343 L14.8697164,13.7893444 L14.8697164,13.7903616 C14.8575814,14.3868248 14.3869131,14.8564744 13.7904504,14.8686104 L13.5229232,14.8747138 C12.7897931,14.8901768 12.1143937,15.280246 11.734658,15.9071878 L11.734658,15.9082049 L11.5963167,16.1360612 C11.2876268,16.6463807 10.6449736,16.8181005 10.1223713,16.5307406 L10.1223713,16.5317578 L9.88942871,16.4025718 C9.24659062,16.0484946 8.46426749,16.0484946 7.82142941,16.4025718 L7.58848683,16.5317578 L7.58848683,16.5307406 C7.06604437,16.818013 6.42318753,16.6459515 6.11454145,16.1360612 L5.97620013,15.9082049 C5.59671132,15.2810314 4.92080933,14.89017 4.18793493,14.8747138 L4.18691778,14.8747138 L3.92040768,14.8686104 C3.32394498,14.8564754 2.85327772,14.3868248 2.8411417,13.7903616 L2.8411417,13.7893444 L2.83605543,13.5228343 C2.82093098,12.7893146 2.42979415,12.1134621 1.80256435,11.733552 L1.57470805,11.5952107 C1.06440681,11.2864505 0.891651319,10.6438676 1.1790115,10.1212653 L1.30718028,9.88933985 L1.30718028,9.8883227 C1.6607669,9.24565388 1.66109397,8.46388178 1.30718028,7.82134055 L1.17799435,7.58839798 L1.1790115,7.58839798 C0.891738972,7.06595551 1.06380058,6.42309867 1.5736909,6.1144526 L1.8015472,5.97611127 C2.42872076,5.59662247 2.81958207,4.92071995 2.83503828,4.18784633 L2.83503828,4.18682913 L2.8411417,3.92031861 C2.85327668,3.32385634 3.32292731,2.85318912 3.91939052,2.84105285 L3.92040768,2.84105285 L4.18691778,2.83596678 C4.92043747,2.82084285 5.59628998,2.4297052 5.97620013,1.8024757 L6.11454145,1.5746194 C6.26888636,1.31945967 6.5060116,1.14806522 6.77064573,1.07720092 C6.83680426,1.0594849 6.90440857,1.04762596 6.9730717,1.04261562 Z M13.3866162,15.9397387 L15.8848977,21.3543772 L13.0539866,21.3543772 C12.8957305,21.3542859 12.7460163,21.4261488 12.6471003,21.5496826 L11.1019497,23.4803578 L9.43981953,19.679023 L10.3166595,17.6751084 C11.1537109,17.8058448 12.0264239,17.4372577 12.4873973,16.6751854 L12.6257386,16.4473291 C12.7936273,16.1701454 13.0731458,15.9924321 13.3866162,15.9397387 Z M4.3537414,15.9438073 C4.65533408,16.0030072 4.92306862,16.1792992 5.0851195,16.4473291 L5.22346083,16.6751854 C5.81582367,17.6537826 7.0884899,17.9954389 8.09099148,17.4442006 L8.09099148,17.443183 L8.32495121,17.3150142 C8.64275424,17.1399669 9.02233523,17.1377357 9.34521828,17.2987387 L6.64044213,23.4803578 L5.09529153,21.5496826 C4.99637557,21.4261488 4.84666132,21.3542859 4.68840528,21.3543772 L1.85749413,21.3543772 L4.3537414,15.9438073 Z" id="Shape"></path>
                </g>
            </g>
        </g>
    </g>
</svg>
