<svg width="25" height="25" xmlns="http://www.w3.org/2000/svg">
 <g stroke="null">
  <title>Layer 1</title>
  <path stroke="null" fill="#ffffff" d="m6.55938,7.76347l0,-3.1991l7.52127,0l0,3.1991l2.14893,0l0,-3.1991l2.14893,0l0,4.26546l-16.117,0l0,-4.26546l2.14893,0l0,3.1991l2.14893,0zm7.52127,-5.33183l-7.52127,0l0,-2.13273l-2.14893,0l0,2.13273l-4.29787,0l0,19.19457l12.68163,0c1.11469,1.91246 3.19804,3.1991 5.5843,3.1991c3.56044,0 6.4468,-2.8646 6.4468,-6.39819c0,-2.73356 -1.72731,-5.06677 -4.15776,-5.98316l0,-10.01232l-4.43798,0l0,-2.13273l-2.14893,0l0,2.13273zm1.07395,19.19457l-0.23449,0c0.86301,0.91852 2.09315,1.49291 3.45841,1.49291c2.61104,0 4.72765,-2.10065 4.72765,-4.69201c0,-2.59135 -2.11661,-4.69201 -4.72765,-4.69201c-2.61104,0 -4.72765,2.10065 -4.72765,4.69201c0,0.90692 0.25925,1.7537 0.7082,2.47141c0.23974,0.26813 0.50629,0.51203 0.79554,0.72769zm-12.89308,-2.13273l9.75934,0c-0.05862,-0.34678 -0.08914,-0.70303 -0.08914,-1.06637c0,-3.53359 2.88636,-6.39819 6.4468,-6.39819l0,-1.06637l-16.117,0l0,8.53092zm16.92285,-0.59785l0,-3.66761l-1.6117,0l0,4.33013l1.84774,1.83381l1.13962,-1.13103l-1.37566,-1.36529z" clip-rule="evenodd" fill-rule="evenodd"/>
 </g>
</svg>