<svg width="20" height="20" viewBox="0 0 20 20" fill="none" xmlns="http://www.w3.org/2000/svg">
<path fill-rule="evenodd" clip-rule="evenodd" d="M9.56989 1.0029C9.52782 1.00891 9.48726 1.02093 9.4497 1.03896L0.21893 5.65434C0.026622 5.74749 -0.0545079 5.97886 0.0386413 6.17117C0.131791 6.36347 0.36316 6.4446 0.555468 6.35146L9.61797 1.82021L18.6805 6.35146C18.8728 6.4446 19.1041 6.36347 19.1973 6.17117C19.2904 5.97886 19.2093 5.74749 19.017 5.65434L9.78624 1.03896C9.71863 1.0059 9.64351 0.993883 9.56989 1.0029ZM5.3872 6.01492C3.94339 6.01492 2.84213 6.30789 2.09393 6.60386C1.34573 6.89983 0.928064 7.21684 0.928064 7.21684C0.839422 7.28595 0.786839 7.39262 0.783834 7.5053V15.6183H0.771814V17.1567C0.771814 17.3686 0.944591 17.5414 1.15643 17.5414H7.91124C7.92453 17.5606 7.93596 17.5783 7.94693 17.5953C7.99423 17.6685 8.03298 17.7284 8.17566 17.8418C8.47464 18.0807 8.95541 18.3106 9.61797 18.3106C10.2805 18.3106 10.7613 18.0807 11.0603 17.8418C11.203 17.7284 11.2417 17.6685 11.289 17.5953C11.3 17.5783 11.3114 17.5606 11.3247 17.5414H18.0795C18.2913 17.5414 18.4641 17.3686 18.4641 17.1567V15.6183H18.4521V7.5053C18.4491 7.39262 18.3965 7.28595 18.3079 7.21684C18.3079 7.21684 17.8902 6.89983 17.142 6.60386C16.3938 6.30789 15.2925 6.01492 13.8487 6.01492C12.4049 6.01492 11.3037 6.30789 10.5555 6.60386C10.0897 6.78865 9.80727 6.95392 9.61797 7.07261C9.42867 6.95392 9.14621 6.78865 8.68047 6.60386C7.93227 6.30789 6.83101 6.01492 5.3872 6.01492ZM8.40403 7.30097C7.73395 7.03505 6.73035 6.76011 5.3872 6.76011C4.04405 6.76011 3.04044 7.03505 2.37037 7.30097C1.82174 7.51841 1.62366 7.66408 1.53937 7.72608L1.52903 7.73367V15.3779C1.58643 15.3432 1.62657 15.3152 1.66373 15.2893C1.75203 15.2277 1.82352 15.1779 2.06989 15.0774C2.81508 14.7724 3.92536 14.4765 5.3872 14.4765C6.84904 14.4765 7.95931 14.7724 8.70451 15.0774C8.95088 15.1779 9.02237 15.2277 9.11067 15.2893C9.14783 15.3152 9.18797 15.3432 9.24537 15.3779V7.73367L9.23503 7.72608C9.15073 7.66408 8.95266 7.51841 8.40403 7.30097ZM13.8487 6.76011C15.1919 6.76011 16.1955 7.03505 16.8656 7.30097C17.4142 7.51841 17.6123 7.66408 17.6966 7.72608L17.7069 7.73367V15.3779C17.6495 15.3432 17.6094 15.3152 17.5722 15.2893C17.4839 15.2277 17.4124 15.1779 17.166 15.0774C16.4209 14.7724 15.3106 14.4765 13.8487 14.4765C12.3869 14.4765 11.2766 14.7724 10.5314 15.0774C10.2851 15.1779 10.2136 15.2277 10.1253 15.2893C10.0881 15.3152 10.048 15.3432 9.99056 15.3779V7.73367L10.0009 7.72608C10.0852 7.66408 10.2833 7.51841 10.8319 7.30097C11.502 7.03505 12.5056 6.76011 13.8487 6.76011ZM8.41605 15.7745C7.75198 15.5026 6.74687 15.2216 5.3872 15.2216C4.02752 15.2216 3.02242 15.5026 2.35835 15.7745C1.90162 15.9608 1.67326 16.1051 1.54105 16.1952V16.7721H8.07951C8.22824 16.7706 8.36346 16.8548 8.42806 16.9885C8.42806 16.9885 8.47464 17.0951 8.65643 17.2409C8.83822 17.3866 9.12668 17.5414 9.61797 17.5414C10.1093 17.5414 10.3977 17.3866 10.5795 17.2409C10.7613 17.0951 10.8079 16.9885 10.8079 16.9885C10.8725 16.8548 11.0077 16.7706 11.1564 16.7721H17.6949V16.1952C17.5627 16.1051 17.3343 15.9608 16.8776 15.7745C16.2135 15.5026 15.2084 15.2216 13.8487 15.2216C12.4891 15.2216 11.484 15.5026 10.8199 15.7745C10.1558 16.0465 9.85835 16.2914 9.85835 16.2914C9.84333 16.3049 9.8268 16.3169 9.81028 16.3274H9.79826L9.78624 16.3394H9.7622C9.72464 16.3575 9.68407 16.371 9.64201 16.3755H9.61797H9.59393H9.58191H9.55787L9.54585 16.3635H9.52181H9.5098C9.50228 16.3605 9.49327 16.356 9.48576 16.3515H9.47374C9.46623 16.3485 9.45721 16.3439 9.4497 16.3394L9.43768 16.3274L9.42566 16.3154H9.41364C9.40463 16.3079 9.39711 16.3004 9.3896 16.2914H9.37758C9.37758 16.2914 9.08011 16.0465 8.41605 15.7745Z" fill="black"/>
</svg>
