<?xml version="1.0" encoding="UTF-8"?>
<svg width="20px" height="21px" viewBox="0 0 20 21" version="1.1" xmlns="http://www.w3.org/2000/svg" xmlns:xlink="http://www.w3.org/1999/xlink">
    <!-- Generator: Sketch 57.1 (83088) - https://sketch.com -->
    <title>icon-search</title>
    <desc>Created with Sketch.</desc>
    <g id="Building-Profile" stroke="none" stroke-width="1" fill="none" fill-rule="evenodd">
        <g id="Desktop-HD-Copy" transform="translate(-989.000000, -15.000000)" fill="#FFFFFF" fill-rule="nonzero">
            <g id="Header" transform="translate(0.000000, -24.000000)">
                <path d="M996.924253,39 C992.55244,39 989,42.55244 989,46.9242535 C989,51.2960669 992.55244,54.8485069 996.924253,54.8485069 C998.654042,54.8485069 1000.25273,54.2913331 1001.55645,53.3481428 L1007.689,59.4661326 L1009,58.1551347 L1002.94028,52.0808449 C1004.1311,50.6933724 1004.84851,48.8925709 1004.84851,46.9242535 C1004.84851,42.55244 1001.29607,39 996.924253,39 Z M996.924253,39.9322651 C1000.7917,39.9322651 1003.91624,43.0568099 1003.91624,46.9242535 C1003.91624,50.791697 1000.7917,53.9162418 996.924253,53.9162418 C993.05681,53.9162418 989.932265,50.791697 989.932265,46.9242535 C989.932265,43.0568099 993.05681,39.9322651 996.924253,39.9322651 Z" id="search"></path>
            </g>
        </g>
    </g>
</svg>