<?xml version="1.0" encoding="utf-8"?>
<!-- Generator: Adobe Illustrator 24.0.2, SVG Export Plug-In . SVG Version: 6.00 Build 0)  -->
<svg version="1.1" id="Layer_1" xmlns="http://www.w3.org/2000/svg" xmlns:xlink="http://www.w3.org/1999/xlink" x="0px" y="0px"
	 viewBox="0 0 25 25" style="enable-background:new 0 0 25 25;" xml:space="preserve">
<style type="text/css">
	.st0{fill:#FFFFFF;}
	.st1{fill:none;stroke:#FFFFFF;stroke-width:2;stroke-miterlimit:10;}
	.st2{fill:none;stroke:#FFFFFF;stroke-width:2.164;stroke-miterlimit:10;}
	.st3{fill:none;stroke:#FFFFFF;stroke-width:2;stroke-linecap:round;stroke-linejoin:round;stroke-miterlimit:10;}
	.st4{fill:none;stroke:#FF00FF;stroke-width:0.6907;stroke-miterlimit:10;}
	.st5{fill:none;stroke:#FFFFFF;stroke-width:1.945;stroke-linejoin:round;stroke-miterlimit:10;}
	.st6{fill:none;stroke:#FFFFFF;stroke-width:1.9384;stroke-miterlimit:10;}
	.st7{fill:none;stroke:#FFFFFF;stroke-width:1.9384;stroke-linecap:round;stroke-linejoin:round;stroke-miterlimit:10;}
	.st8{fill:none;stroke:#FFFFFF;stroke-width:2.2099;stroke-linecap:round;stroke-linejoin:round;stroke-miterlimit:10;}
	.st9{fill:none;stroke:#FFFFFF;stroke-width:2.0951;stroke-miterlimit:10;}
	.st10{fill:none;stroke:#FFFFFF;stroke-width:2.2743;stroke-miterlimit:10;}
	.st11{fill:none;stroke:#FFFFFF;stroke-width:2;stroke-linecap:round;stroke-miterlimit:10;}
	.st12{fill:none;stroke:#000000;stroke-width:2;stroke-linecap:round;stroke-linejoin:round;stroke-miterlimit:10;}
	.st13{fill:none;stroke:#000000;stroke-width:2;stroke-miterlimit:10;}
	.st14{fill:none;stroke:#FFFFFF;stroke-width:2.1825;stroke-linecap:round;stroke-linejoin:round;stroke-miterlimit:10;}
	.st15{fill:none;stroke:#FFFFFF;stroke-width:2.2392;stroke-linecap:round;stroke-linejoin:round;stroke-miterlimit:10;}
	.st16{fill:none;stroke:#000000;stroke-linecap:round;stroke-linejoin:round;stroke-miterlimit:10;}
	.st17{fill:none;stroke:#000000;stroke-miterlimit:10;}
	.st18{fill:none;stroke:#000000;stroke-width:0.9323;stroke-miterlimit:10;}
	.st19{fill:none;stroke:#000000;stroke-width:1.02;stroke-linecap:round;stroke-linejoin:round;stroke-miterlimit:10;}
	.st20{fill:none;stroke:#FFFFFF;stroke-width:1.894;stroke-linecap:round;stroke-linejoin:round;stroke-miterlimit:10;}
	.st21{fill:#FF00FF;}
</style>
<g>
	<path class="st0" d="M12.5,0.2C5.7,0.2,0.2,5.7,0.2,12.5s5.5,12.2,12.2,12.2s12.2-5.5,12.2-12.2S19.3,0.2,12.5,0.2z M22.7,7.7
		L19,9.2c-0.7-1.3-1.8-2.4-3.1-3.1l1.5-3.7C19.6,3.5,21.5,5.4,22.7,7.7z M12.5,18.8c-3.5,0-6.3-2.8-6.3-6.3S9,6.2,12.5,6.2
		s6.3,2.8,6.3,6.3S16,18.8,12.5,18.8z M16.4,2l-1.5,3.7c-0.8-0.3-1.6-0.4-2.4-0.4s-1.7,0.2-2.4,0.4L8.6,2c1.2-0.4,2.5-0.7,3.9-0.7
		S15.2,1.5,16.4,2z M7.7,2.3L9.2,6C7.8,6.7,6.7,7.8,6,9.2L2.3,7.7C3.5,5.4,5.4,3.5,7.7,2.3z M2,8.6l3.7,1.5
		c-0.3,0.8-0.4,1.6-0.4,2.4c0,0.8,0.2,1.7,0.4,2.4L2,16.4c-0.4-1.2-0.7-2.5-0.7-3.9C1.2,11.1,1.5,9.8,2,8.6z M2.3,17.3L6,15.8
		c0.7,1.3,1.8,2.5,3.1,3.1l-1.5,3.7C5.4,21.5,3.5,19.6,2.3,17.3z M8.6,23l1.5-3.7c0.8,0.3,1.6,0.4,2.4,0.4s1.7-0.2,2.4-0.4l1.5,3.7
		c-1.2,0.4-2.5,0.7-3.9,0.7S9.8,23.5,8.6,23z M17.3,22.7L15.8,19c1.3-0.7,2.5-1.8,3.1-3.1l3.7,1.5C21.5,19.6,19.6,21.5,17.3,22.7z
		 M23,16.4l-3.7-1.5c0.3-0.8,0.4-1.6,0.4-2.4c0-0.8-0.2-1.7-0.4-2.4L23,8.6c0.4,1.2,0.7,2.5,0.7,3.9C23.8,13.9,23.5,15.2,23,16.4z"
		/>
</g>
</svg>
