<svg width="25" height="25" xmlns="http://www.w3.org/2000/svg">
 <g stroke="null">
  <title>Layer 1</title>
  <path stroke="null" fill="#ffffff" d="m4.6977,25l-4.6832,-4.8275l10.7408,-10.4033c-0.1886,-0.6858 -0.2857,-1.4008 -0.2857,-2.129c0,-4.2061 3.2351,-7.6402 7.2579,-7.6402c0.9782,0 1.9308,0.20431 2.8139,0.59546l1.3987,0.61948l-4.353,4.33496l0.508,1.7387l1.5934,0.3516l4.3387,-4.1366l0.5286,1.5411c0.2832,0.8257 0.4297,1.7008 0.4297,2.5955c0,4.206 -3.2351,7.6401 -7.258,7.6401c-0.9039,0 -1.785,-0.1745 -2.6084,-0.5083l-10.4214,10.228zm0.0363,-2.9686l9.9902,-9.8048l0.68,0.3688c0.7146,0.3876 1.5044,0.5917 2.3232,0.5917c2.838,0 5.1648,-2.4699 5.1648,-5.5469c0,-0.0574 -0.0008,-0.1146 -0.0024,-0.1717l-2.6432,2.5315l-3.8894,-0.8581l-1.2044,-4.122l2.9253,-2.91415c-0.1162,-0.00835 -0.2331,-0.01255 -0.3507,-0.01255c-2.8379,0 -5.1647,2.4699 -5.1647,5.547c0,0.7166 0.1262,1.4127 0.3686,2.062l0.2395,0.6414l-10.1954,9.875l1.7586,1.8128z" clip-rule="evenodd" fill-rule="evenodd"/>
 </g>
</svg>
