<?xml version="1.0" encoding="utf-8"?>
<!-- Generator: Adobe Illustrator 24.0.2, SVG Export Plug-In . SVG Version: 6.00 Build 0)  -->
<svg version="1.1" id="Layer_1" xmlns="http://www.w3.org/2000/svg" xmlns:xlink="http://www.w3.org/1999/xlink" x="0px" y="0px"
	 viewBox="0 0 25 25" style="enable-background:new 0 0 25 25;" xml:space="preserve">
<style type="text/css">
	.st0{fill:#FFFFFF;}
	.st1{fill:none;stroke:#FFFFFF;stroke-width:2;stroke-miterlimit:10;}
	.st2{fill:none;stroke:#FFFFFF;stroke-width:2.164;stroke-miterlimit:10;}
	.st3{fill:none;stroke:#FFFFFF;stroke-width:2;stroke-linecap:round;stroke-linejoin:round;stroke-miterlimit:10;}
	.st4{fill:none;stroke:#FF00FF;stroke-width:0.6907;stroke-miterlimit:10;}
	.st5{fill:none;stroke:#FFFFFF;stroke-width:1.945;stroke-linejoin:round;stroke-miterlimit:10;}
	.st6{fill:none;stroke:#FFFFFF;stroke-width:1.9384;stroke-miterlimit:10;}
	.st7{fill:none;stroke:#FFFFFF;stroke-width:1.9384;stroke-linecap:round;stroke-linejoin:round;stroke-miterlimit:10;}
	.st8{fill:none;stroke:#FFFFFF;stroke-width:2.2099;stroke-linecap:round;stroke-linejoin:round;stroke-miterlimit:10;}
	.st9{fill:none;stroke:#FFFFFF;stroke-width:2.0951;stroke-miterlimit:10;}
	.st10{fill:none;stroke:#FFFFFF;stroke-width:2.2743;stroke-miterlimit:10;}
	.st11{fill:none;stroke:#FFFFFF;stroke-width:2;stroke-linecap:round;stroke-miterlimit:10;}
	.st12{fill:none;stroke:#000000;stroke-width:2;stroke-linecap:round;stroke-linejoin:round;stroke-miterlimit:10;}
	.st13{fill:none;stroke:#000000;stroke-width:2;stroke-miterlimit:10;}
	.st14{fill:none;stroke:#FFFFFF;stroke-width:2.1825;stroke-linecap:round;stroke-linejoin:round;stroke-miterlimit:10;}
	.st15{fill:none;stroke:#FFFFFF;stroke-width:2.2392;stroke-linecap:round;stroke-linejoin:round;stroke-miterlimit:10;}
	.st16{fill:none;stroke:#000000;stroke-linecap:round;stroke-linejoin:round;stroke-miterlimit:10;}
	.st17{fill:none;stroke:#000000;stroke-miterlimit:10;}
	.st18{fill:none;stroke:#000000;stroke-width:0.9323;stroke-miterlimit:10;}
	.st19{fill:none;stroke:#000000;stroke-width:1.02;stroke-linecap:round;stroke-linejoin:round;stroke-miterlimit:10;}
	.st20{fill:none;stroke:#FFFFFF;stroke-width:1.894;stroke-linecap:round;stroke-linejoin:round;stroke-miterlimit:10;}
	.st21{fill:#FF00FF;}
</style>
<g>
	<path class="st0" d="M23.4,0.3H3.9c-0.3,0-0.5,0.2-0.5,0.5V5H1.6C1.3,5,1.1,5.2,1.1,5.5S1.3,6,1.6,6h1.8v6H1.6
		c-0.3,0-0.5,0.2-0.5,0.5S1.3,13,1.6,13h1.8v6H1.6c-0.3,0-0.5,0.2-0.5,0.5S1.3,20,1.6,20h1.8v4.2c0,0.3,0.2,0.5,0.5,0.5h19.5
		c0.3,0,0.5-0.2,0.5-0.5V0.8C23.9,0.5,23.7,0.3,23.4,0.3z M22.9,23.7H4.4V20h1.8c0.3,0,0.5-0.2,0.5-0.5S6.5,19,6.2,19H4.4v-6h1.8
		c0.3,0,0.5-0.2,0.5-0.5S6.5,12,6.2,12H4.4V6h1.8c0.3,0,0.5-0.2,0.5-0.5S6.5,5,6.2,5H4.4V1.3h18.5V23.7z"/>
	<path class="st0" d="M9.9,18.1c0.3,0,0.5-0.2,0.5-0.5c0-1.8,1.1-3.4,2.8-3.9c0.4-0.1,0.8-0.2,1.3-0.2c2.3,0,4.1,1.9,4.1,4.1
		c0,0.3,0.2,0.5,0.5,0.5s0.5-0.2,0.5-0.5c0-2.5-1.8-4.6-4.1-5c1.1-0.4,1.9-1.5,1.9-2.8c0-1.6-1.3-2.9-2.9-2.9s-2.9,1.3-2.9,2.9
		c0,1.3,0.8,2.4,2,2.8c-0.2,0-0.4,0.1-0.6,0.1c-2.1,0.7-3.5,2.7-3.5,4.9C9.4,17.9,9.7,18.1,9.9,18.1z M12.6,9.8
		c0-1.1,0.9-1.9,1.9-1.9c1.1,0,1.9,0.9,1.9,1.9c0,1.1-0.9,1.9-1.9,1.9C13.5,11.8,12.6,10.9,12.6,9.8z"/>
</g>
</svg>
