<?xml version="1.0" encoding="utf-8"?>
<!-- Generator: Adobe Illustrator 24.0.2, SVG Export Plug-In . SVG Version: 6.00 Build 0)  -->
<svg version="1.1" id="Layer_1" xmlns="http://www.w3.org/2000/svg" xmlns:xlink="http://www.w3.org/1999/xlink" x="0px" y="0px"
	 viewBox="0 0 25 25" style="enable-background:new 0 0 25 25;" xml:space="preserve">
<style type="text/css">
	.st0{fill:#FFFFFF;}
	.st1{fill:none;stroke:#FFFFFF;stroke-width:2;stroke-miterlimit:10;}
	.st2{fill:none;stroke:#FFFFFF;stroke-width:2.164;stroke-miterlimit:10;}
	.st3{fill:none;stroke:#FFFFFF;stroke-width:2;stroke-linecap:round;stroke-linejoin:round;stroke-miterlimit:10;}
	.st4{fill:none;stroke:#FF00FF;stroke-width:0.6907;stroke-miterlimit:10;}
	.st5{fill:none;stroke:#FFFFFF;stroke-width:1.945;stroke-linejoin:round;stroke-miterlimit:10;}
	.st6{fill:none;stroke:#FFFFFF;stroke-width:1.9384;stroke-miterlimit:10;}
	.st7{fill:none;stroke:#FFFFFF;stroke-width:1.9384;stroke-linecap:round;stroke-linejoin:round;stroke-miterlimit:10;}
	.st8{fill:none;stroke:#FFFFFF;stroke-width:2.2099;stroke-linecap:round;stroke-linejoin:round;stroke-miterlimit:10;}
	.st9{fill:none;stroke:#FFFFFF;stroke-width:2.0951;stroke-miterlimit:10;}
	.st10{fill:none;stroke:#FFFFFF;stroke-width:2.2743;stroke-miterlimit:10;}
	.st11{fill:none;stroke:#FFFFFF;stroke-width:2;stroke-linecap:round;stroke-miterlimit:10;}
	.st12{fill:none;stroke:#000000;stroke-width:2;stroke-linecap:round;stroke-linejoin:round;stroke-miterlimit:10;}
	.st13{fill:none;stroke:#000000;stroke-width:2;stroke-miterlimit:10;}
	.st14{fill:none;stroke:#FFFFFF;stroke-width:2.1825;stroke-linecap:round;stroke-linejoin:round;stroke-miterlimit:10;}
	.st15{fill:none;stroke:#FFFFFF;stroke-width:2.2392;stroke-linecap:round;stroke-linejoin:round;stroke-miterlimit:10;}
	.st16{fill:none;stroke:#000000;stroke-linecap:round;stroke-linejoin:round;stroke-miterlimit:10;}
	.st17{fill:none;stroke:#000000;stroke-miterlimit:10;}
	.st18{fill:none;stroke:#000000;stroke-width:0.9323;stroke-miterlimit:10;}
	.st19{fill:none;stroke:#000000;stroke-width:1.02;stroke-linecap:round;stroke-linejoin:round;stroke-miterlimit:10;}
	.st20{fill:none;stroke:#FFFFFF;stroke-width:1.894;stroke-linecap:round;stroke-linejoin:round;stroke-miterlimit:10;}
	.st21{fill:#FF00FF;}
</style>
<g>
	<path class="st0" d="M22.6,14.5V3.5c0-0.5-0.4-0.8-0.8-0.8h-4.2V0.7c0-0.3-0.2-0.5-0.5-0.5s-0.5,0.2-0.5,0.5v1.9H6.5V0.7
		c0-0.3-0.2-0.5-0.5-0.5S5.5,0.4,5.5,0.7v1.9H1.3C0.8,2.6,0.4,3,0.4,3.5v18.2c0,0.5,0.4,0.8,0.8,0.8H14c1.1,1.4,2.8,2.3,4.7,2.3
		c3.2,0,5.9-2.6,5.9-5.9C24.6,17.2,23.8,15.6,22.6,14.5z M5.5,3.6v1.1C5.5,5,5.7,5.2,6,5.2S6.5,5,6.5,4.7V3.6h10.1v1.1
		c0,0.3,0.2,0.5,0.5,0.5s0.5-0.2,0.5-0.5V3.6h4v3.6H1.4V3.6H5.5z M1.4,21.5V8.2h20.1v5.6c-0.9-0.5-1.8-0.8-2.9-0.8
		c-3.2,0-5.9,2.6-5.9,5.9c0,0.9,0.2,1.8,0.6,2.5H1.4z M18.7,23.8c-1.7,0-3.2-0.9-4-2.2c0,0,0,0,0,0c-0.5-0.8-0.8-1.7-0.8-2.7
		c0-2.7,2.2-4.9,4.9-4.9c2.7,0,4.9,2.2,4.9,4.9C23.6,21.6,21.4,23.8,18.7,23.8z"/>
	<path class="st0" d="M21.8,19.3l-2.7-0.8v-2.1c0-0.3-0.2-0.5-0.5-0.5s-0.5,0.2-0.5,0.5v2.4c0,0.2,0.1,0.4,0.4,0.5l3,0.9
		c0,0,0.1,0,0.1,0c0.2,0,0.4-0.1,0.5-0.4C22.3,19.7,22.1,19.4,21.8,19.3z"/>
</g>
</svg>
