<svg width="27.5" height="25" xmlns="http://www.w3.org/2000/svg">
 <g stroke="null">
  <title>Layer 1</title>
  <path stroke="null" fill="#ffffff" d="m2.5,0l12.50004,0l0,0.09329l0.0013,0l0,6.15671l9.9987,0l2.5,0l0,2.5l0,13.75l0,2.5l-2.5,0l-22.50004,0l-2.5,0l0,-2.5l0,-20l0,-2.5l2.5,0zm0,2.5l0,20l10.00184,0l0,-20l-10.00184,0zm12.50134,6.25l9.9987,0l0,13.75l-9.9987,0l0,-13.75zm-6.2513,5.2976l0,-3.0952l-2.5,0l0,3.0952l2.5,0zm-0.0007,2.8572l0,3.0952l-2.5,0l0,-3.0952l2.5,0zm0.0007,-8.8096l0,-3.0952l-2.5,0l0,3.0952l2.5,0zm12.5006,2.8572l0,3.0952l-2.5,0l0,-3.0952l2.5,0zm-0.0006,9.0476l0,-3.0952l-2.5,0l0,3.0952l2.5,0z" clip-rule="evenodd" fill-rule="evenodd"/>
 </g>
</svg>