<?xml version="1.0" encoding="utf-8"?>
<!-- Generator: Adobe Illustrator 24.0.2, SVG Export Plug-In . SVG Version: 6.00 Build 0)  -->
<svg version="1.1" id="Layer_1" xmlns="http://www.w3.org/2000/svg" xmlns:xlink="http://www.w3.org/1999/xlink" x="0px" y="0px"
   viewBox="0 0 25 25" style="enable-background:new 0 0 25 25;" xml:space="preserve">
<style type="text/css">
  .st0{fill:#000;}
</style>
<g>
  <path class="st0" d="M24,3.4c-0.2-0.1-0.5,0-0.7,0.2l-1.7,1.8l-1.7-0.6l-0.7-1.7l1.7-1.8c0.2-0.2,0.2-0.4,0.2-0.7
    c-0.1-0.2-0.3-0.4-0.5-0.4c-1.6-0.3-3.3,0.2-4.5,1.4s-1.6,3-1.2,4.6L6.4,15c-1.6-0.4-3.4,0.2-4.6,1.4s-1.6,2.9-1.2,4.5
    c0.1,0.2,0.2,0.4,0.5,0.5c0.2,0.1,0.5,0,0.7-0.2l1.7-1.8L5.2,20l0.7,1.7l-1.7,1.8C4,23.7,4,23.9,4,24.2c0.1,0.2,0.3,0.4,0.5,0.5
    c0.3,0.1,0.6,0.1,0.9,0.1c1.3,0,2.6-0.5,3.5-1.5c1.2-1.2,1.6-3,1.2-4.6l8.5-8.8c1.6,0.4,3.4-0.2,4.6-1.4s1.6-2.9,1.2-4.5
    C24.4,3.7,24.3,3.5,24,3.4z M22.5,7.7c-1,1-2.3,1.4-3.7,1.1c-0.3-0.1-0.6,0-0.8,0.2l-8.6,8.9c-0.2,0.2-0.3,0.5-0.2,0.8
    c0.4,1.3,0,2.7-1,3.7c-0.8,0.8-1.8,1.2-2.9,1.2l1.5-1.5C6.9,22,7,21.7,6.9,21.6l-0.8-2.1c-0.1-0.1-0.2-0.2-0.3-0.3l-2.2-0.8
    c-0.2-0.1-0.4,0-0.5,0.1L1.7,20c-0.2-1.1,0.2-2.1,1-2.9c0.9-1,2.4-1.4,3.7-1.1c0.3,0.1,0.6,0,0.8-0.2l8.6-8.9
    C16,6.7,16.1,6.4,16,6.1c-0.4-1.3,0-2.7,1-3.7c0.8-0.8,1.8-1.2,2.9-1.2l-1.5,1.5c-0.1,0.1-0.2,0.4-0.1,0.5l0.8,2.1
    c0.1,0.1,0.2,0.2,0.3,0.3l2.2,0.8c0.2,0.1,0.4,0,0.5-0.1l1.4-1.5C23.7,5.9,23.3,6.9,22.5,7.7z"/>
</g>
</svg>
