<?xml version="1.0" encoding="utf-8"?>
<!-- Generator: Adobe Illustrator 24.0.2, SVG Export Plug-In . SVG Version: 6.00 Build 0)  -->
<svg version="1.1" id="Layer_1" xmlns="http://www.w3.org/2000/svg" xmlns:xlink="http://www.w3.org/1999/xlink" x="0px" y="0px"
	 viewBox="0 0 25 25" style="enable-background:new 0 0 25 25;" xml:space="preserve">
<style type="text/css">
	.st0{fill:#FFFFFF;}
	.st1{fill:none;stroke:#FFFFFF;stroke-width:2;stroke-miterlimit:10;}
	.st2{fill:none;stroke:#FFFFFF;stroke-width:2.164;stroke-miterlimit:10;}
	.st3{fill:none;stroke:#FFFFFF;stroke-width:2;stroke-linecap:round;stroke-linejoin:round;stroke-miterlimit:10;}
	.st4{fill:none;stroke:#FF00FF;stroke-width:0.6907;stroke-miterlimit:10;}
	.st5{fill:none;stroke:#FFFFFF;stroke-width:1.945;stroke-linejoin:round;stroke-miterlimit:10;}
	.st6{fill:none;stroke:#FFFFFF;stroke-width:1.9384;stroke-miterlimit:10;}
	.st7{fill:none;stroke:#FFFFFF;stroke-width:1.9384;stroke-linecap:round;stroke-linejoin:round;stroke-miterlimit:10;}
	.st8{fill:none;stroke:#FFFFFF;stroke-width:2.2099;stroke-linecap:round;stroke-linejoin:round;stroke-miterlimit:10;}
	.st9{fill:none;stroke:#FFFFFF;stroke-width:2.0951;stroke-miterlimit:10;}
	.st10{fill:none;stroke:#FFFFFF;stroke-width:2.2743;stroke-miterlimit:10;}
	.st11{fill:none;stroke:#FFFFFF;stroke-width:2;stroke-linecap:round;stroke-miterlimit:10;}
	.st12{fill:none;stroke:#000000;stroke-width:2;stroke-linecap:round;stroke-linejoin:round;stroke-miterlimit:10;}
	.st13{fill:none;stroke:#000000;stroke-width:2;stroke-miterlimit:10;}
	.st14{fill:none;stroke:#FFFFFF;stroke-width:2.1825;stroke-linecap:round;stroke-linejoin:round;stroke-miterlimit:10;}
	.st15{fill:none;stroke:#FFFFFF;stroke-width:2.2392;stroke-linecap:round;stroke-linejoin:round;stroke-miterlimit:10;}
	.st16{fill:none;stroke:#000000;stroke-linecap:round;stroke-linejoin:round;stroke-miterlimit:10;}
	.st17{fill:none;stroke:#000000;stroke-miterlimit:10;}
	.st18{fill:none;stroke:#000000;stroke-width:0.9323;stroke-miterlimit:10;}
	.st19{fill:none;stroke:#000000;stroke-width:1.02;stroke-linecap:round;stroke-linejoin:round;stroke-miterlimit:10;}
	.st20{fill:none;stroke:#FFFFFF;stroke-width:1.894;stroke-linecap:round;stroke-linejoin:round;stroke-miterlimit:10;}
	.st21{fill:#FF00FF;}
</style>
<g>
	<path class="st0" d="M11.6,14.8c2.8-0.9,4.9-3.6,4.9-6.9c0-4-3.1-7.2-6.9-7.2S2.7,3.9,2.7,7.9c0,3.1,1.9,5.8,4.6,6.8
		c-4,0.9-7,4.7-7,9.1c0,0.3,0.2,0.5,0.5,0.5s0.5-0.2,0.5-0.5c0-4.6,3.6-8.3,8-8.3s8,3.7,8,8.3c0,0.3,0.2,0.5,0.5,0.5
		s0.5-0.2,0.5-0.5C18.3,19.5,15.5,15.8,11.6,14.8z M3.7,7.9c0-3.4,2.6-6.2,5.9-6.2s5.9,2.8,5.9,6.2s-2.6,6.2-5.9,6.2
		S3.7,11.3,3.7,7.9z"/>
	<path class="st0" d="M24.6,21.6c-0.6-3.3-2.9-5.9-5.9-7c2.6-1,4.4-3.6,4.4-6.7c0-4-3.1-7.2-6.9-7.2c-0.5,0-0.9,0-1.4,0.1
		c-0.3,0.1-0.5,0.3-0.4,0.6c0.1,0.3,0.3,0.5,0.6,0.4c0.4-0.1,0.8-0.1,1.2-0.1c3.3,0,5.9,2.8,5.9,6.2s-2.6,6.2-5.9,6.2c0,0,0,0,0,0
		c0,0-0.1,0-0.1,0c0,0,0,0,0,0c-0.3,0-0.5,0.2-0.5,0.5c0,0.3,0.2,0.5,0.5,0.5c3.7,0.1,6.8,2.9,7.5,6.7c0.1,0.5,0.2,1.1,0.2,1.6
		c0,0.3,0.2,0.5,0.5,0.5s0.5-0.2,0.5-0.5C24.7,22.8,24.7,22.2,24.6,21.6z"/>
</g>
</svg>
