<?xml version="1.0" encoding="UTF-8"?>
<svg width="16px" height="16px" viewBox="0 0 16 16" version="1.1" xmlns="http://www.w3.org/2000/svg" xmlns:xlink="http://www.w3.org/1999/xlink">
    <!-- Generator: Sketch 57.1 (83088) - https://sketch.com -->
    <title>Shape</title>
    <desc>Created with Sketch.</desc>
    <g id="Symbols" stroke="none" stroke-width="1" fill="none" fill-rule="evenodd">
        <g id="UI-/-Rating" transform="translate(-11.000000, -7.000000)" fill="#333333" fill-rule="nonzero">
            <g id="Group-2">
                <path d="M18.9996273,7 C18.8676128,7 18.7492156,7.0812797 18.7015067,7.20437196 L16.7284113,12.2911711 L11.303492,12.5680422 C11.1713038,12.5747333 11.0568736,12.6621084 11.0156006,12.7878662 C10.9743276,12.9136241 11.0147289,13.0518139 11.1172448,13.1355335 L15.3415567,16.5892322 L13.9540775,21.8297791 C13.9201733,21.9574734 13.9682241,22.092877 14.0750374,22.1706348 C14.1818506,22.2483927 14.3254681,22.2525196 14.4365702,22.1810237 L18.9996273,19.2523173 L23.5626845,22.1810237 C23.6737867,22.2525196 23.8174041,22.2483926 23.9242173,22.1706348 C24.0310306,22.092877 24.0790814,21.9574734 24.0451772,21.8297791 L22.657698,16.5892322 L26.8820098,13.1355335 C26.9845257,13.0518139 27.0249269,12.9136241 26.983654,12.7878663 C26.942381,12.6621084 26.8279508,12.5747334 26.6957626,12.5680422 L21.2708434,12.2911711 L19.297748,7.20437196 C19.2500391,7.0812797 19.1316419,7 18.9996273,7 Z M18.9996274,8.20435706 L20.7489763,12.7155398 C20.7947011,12.8332384 20.9053578,12.9130484 21.031472,12.9192868 L25.8345255,13.1649082 L22.0933314,16.2242376 C21.9962564,16.303609 21.9544791,16.4323612 21.9864577,16.5536077 L23.2158145,21.1979136 L19.1727499,18.602327 C19.0672996,18.5345013 18.9319551,18.5345013 18.8265048,18.602327 L14.7834403,21.1979136 L16.012797,16.5536077 C16.0447756,16.4323612 16.0029983,16.303609 15.9059234,16.2242376 L12.1647292,13.1649082 L16.9677828,12.9192868 C17.093897,12.9130484 17.2045536,12.8332384 17.2502784,12.7155398 L18.9996274,8.20435706 Z" id="Shape"></path>
            </g>
        </g>
    </g>
</svg>
