<svg width="25" height="25" xmlns="http://www.w3.org/2000/svg">
 <g>
  <path stroke="null" style="vector-effect: non-scaling-stroke;" id="svg_1" fill="white" d="m22.25495,1.58535l1.06262,1.0338l-0.56869,1.35403l-0.19242,0.47527c0.25439,0.53103 0.39621,1.10369 0.42622,1.68374l1.63001,1.25295l-0.39177,1.41495l-2.12633,0.28776c-0.15612,0.21387 -0.33272,0.41793 -0.52958,0.60956c-0.19718,0.19173 -0.40715,0.36365 -0.62719,0.51564l-0.31528,2.07373l-1.45439,0.38104l-1.26945,-1.5913c-0.59502,-0.0293 -1.18245,-0.16707 -1.7272,-0.41382l-1.88223,0.73994l-0.01452,-0.01412l-0.00011,0l-1.06262,-1.03381l0.56869,-1.35403l0.19632,-0.48476c-0.24615,-0.52165 -0.38418,-1.08293 -0.41463,-1.65138l-1.65071,-1.25653l0.39166,-1.41495l2.14442,-0.31706l0.01679,0.00432c0.15255,-0.20659 0.32427,-0.40402 0.51506,-0.58974c0.19079,-0.18551 0.39361,-0.35258 0.60585,-0.50088l-0.00444,-0.01634l0.30607,-2.08106l1.45428,-0.3811l1.31062,1.60055c0.58429,0.02949 1.16111,0.16362 1.69729,0.40278l1.89101,-0.74331l0.01452,0.01417l0.00011,-0.00003zm-6.23988,7.10448c-1.23705,-1.20351 -1.23402,-3.17795 0.00683,-4.38516c1.24085,-1.2071 3.27021,-1.21015 4.50737,-0.00654c1.23705,1.20351 1.23402,3.17795 -0.00683,4.38516c-1.24085,1.2071 -3.27021,1.21005 -4.50737,0.00654zm-0.56728,5.54682l0.48007,1.74329l-1.45482,1.09937l-0.51322,0.39801c-0.06425,0.71981 -0.27454,1.41664 -0.60888,2.05413l0.94702,2.31922l-1.3117,1.27614l-2.45016,-0.97099c-0.30163,0.13471 -0.61896,0.24654 -0.95006,0.33287c-0.3312,0.08633 -0.6636,0.14377 -0.99415,0.17392l-1.64681,2.0262l-1.79188,-0.46715l-0.34854,-2.46331c-0.61614,-0.38894 -1.15569,-0.8893 -1.58093,-1.48052l-2.47468,-0.34098l-0.00657,-0.02382l-0.00003,0l-0.48015,-1.7434l1.45493,-1.09937l0.52232,-0.40507c0.06706,-0.70558 0.27454,-1.3885 0.60141,-2.01439l-0.96641,-2.33429l1.31181,-1.27624l2.48743,0.95033l0.01484,0.01444c0.29328,-0.12902 0.60108,-0.23663 0.92189,-0.32022c0.3208,-0.08369 0.64269,-0.14019 0.96306,-0.17107l0.00542,-0.01992l1.64128,-2.03937l1.79198,0.46715l0.38646,2.49788c0.60444,0.38272 1.13489,0.87275 1.55558,1.45069l2.48689,0.34267l0.0065,0.02382l0.00011,0zm-11.14411,3.83926c-0.55894,-2.02957 0.69177,-4.13714 2.7779,-4.68103c2.08613,-0.54378 4.25255,0.67301 4.81149,2.70258c0.55905,2.02957 -0.69177,4.13724 -2.7779,4.68113c-2.08613,0.54378 -4.25255,-0.67312 -4.81149,-2.70268z" clip-rule="evenodd" fill-rule="evenodd"/>
 </g>
</svg>
