<?xml version="1.0" encoding="UTF-8"?>
<svg width="14px" height="17px" viewBox="0 0 14 17" version="1.1" xmlns="http://www.w3.org/2000/svg" xmlns:xlink="http://www.w3.org/1999/xlink">
    <!-- Generator: Sketch 57.1 (83088) - https://sketch.com -->
    <title>Shape</title>
    <desc>Created with Sketch.</desc>
    <g id="Symbols" stroke="none" stroke-width="1" fill="none" fill-rule="evenodd">
        <g id="UI-/-Rating" transform="translate(-87.000000, -7.000000)" fill="#FFFFFF" fill-rule="nonzero">
            <g id="Group-2">
                <path d="M93.4,7 C92.9296876,7 92.4765624,7.2906252 92.175,7.7625 C92.1640624,7.7781252 92.1468752,7.7843752 92.1375,7.8 L87.675,13.925 C87.2281252,14.5515624 87,15.2796876 87,16.0375 L87,19.8 C87,21.7781252 88.6218752,23.4 90.6,23.4 L98.2,23.4 C98.80625,23.4 99.3078124,23.1546876 99.65,22.825 C99.9921876,22.4953124 100.2,22.0890624 100.2,21.675 C100.2,21.3328124 100.120312,21.0515624 100.0375,20.8375 C100.426562,20.6281252 101,20.23125 101,19.325 C101,18.7546876 100.723438,18.38125 100.45,18.1375 C100.723438,17.86875 101,17.4734376 101,16.875 C101,15.9781252 100.43125,15.6109376 100.1,15.4375 C100.134375,15.23125 100.2,14.9281252 100.2,14.5625 C100.2,13.7796876 99.4609376,13.04375 98.375,13.0375 C98.3718752,13.0375 98.3656252,13.0375 98.3625,13.0375 C97.1203124,13.0015624 94.1203124,13 93.375,13 C93.5078124,12.7015624 93.6046876,12.49375 93.85,11.9375 C94.2234376,11.0906252 94.6156252,10.2031252 94.7375,9.8625 C94.7375,9.8609376 94.7375,9.8515624 94.7375,9.85 C94.8453124,9.5640624 95,9.28125 95,8.8375 C95,8.2203124 94.7593752,7.7390624 94.4375,7.4375 C94.1156252,7.1359376 93.7406252,7 93.4,7 Z M93.4,7.8 C93.4984376,7.8 93.71875,7.8671876 93.8875,8.025 C94.05625,8.1828124 94.2,8.4156252 94.2,8.8375 C94.2,9.1093752 94.11875,9.2234376 93.9875,9.575 C93.9875,9.5796876 93.9875,9.5828124 93.9875,9.5875 C93.9078124,9.8109376 93.5,10.7640624 93.125,11.6125 C92.75,12.4609376 92.4,13.2375 92.4,13.2375 C92.3453124,13.3609376 92.35625,13.5031252 92.4296876,13.6171876 C92.5031252,13.7296876 92.6281252,13.7984376 92.7625,13.8 C92.7625,13.8 97.0140624,13.7984376 98.35,13.8375 C98.3546876,13.8375 98.3578124,13.8375 98.3625,13.8375 C99.1078124,13.8375 99.4,14.3093752 99.4,14.5625 C99.4,14.8828124 99.2875,15.575 99.2875,15.575 C99.2578124,15.7656252 99.36875,15.9484376 99.55,16.0125 C99.55,16.0125 100.2,16.2218752 100.2,16.875 C100.2,17.4609376 99.6125,17.8125 99.6125,17.8125 C99.475,17.8859376 99.3921876,18.03125 99.4,18.1875 C99.4078124,18.3421876 99.5046876,18.4796876 99.65,18.5375 C99.65,18.5375 100.2,18.7390624 100.2,19.325 C100.2,19.9843752 99.375,20.3 99.375,20.3 C99.25625,20.3421876 99.1640624,20.4390624 99.1281252,20.5593752 C99.0906252,20.6796876 99.1125,20.8109376 99.1875,20.9125 C99.1875,20.9125 99.4,21.2 99.4,21.675 C99.4,21.78125 99.3078124,22.05 99.1,22.25 C98.8921876,22.45 98.59375,22.6 98.2,22.6 L90.6,22.6 C89.0578124,22.6 87.8,21.3421876 87.8,19.8 L87.8,16.0375 C87.8,15.4390624 87.9765624,14.8921876 88.325,14.4 C88.3265624,14.3968752 88.3234376,14.3906252 88.325,14.3875 L92.8,8.2375 C92.8093752,8.225 92.8171876,8.2125 92.825,8.2 C93.0046876,7.9015624 93.2468752,7.8 93.4,7.8 Z" id="Shape" transform="translate(94.000000, 15.200000) scale(1, -1) translate(-94.000000, -15.200000) "></path>
            </g>
        </g>
    </g>
</svg>