<?xml version="1.0" encoding="UTF-8"?>
<svg width="14px" height="17px" viewBox="0 0 14 17" version="1.1" xmlns="http://www.w3.org/2000/svg" xmlns:xlink="http://www.w3.org/1999/xlink">
    <!-- Generator: Sketch 57.1 (83088) - https://sketch.com -->
    <title>Shape</title>
    <desc>Created with Sketch.</desc>
    <g id="Symbols" stroke="none" stroke-width="1" fill="none" fill-rule="evenodd">
        <g id="UI-/-Rating" transform="translate(-118.000000, -6.000000)" fill="#333333" fill-rule="nonzero">
            <g id="Group-2">
                <path d="M124.4,6 C123.929688,6 123.476562,6.2906252 123.175,6.7625 C123.164062,6.7781252 123.146875,6.7843752 123.1375,6.8 L118.675,12.925 C118.228125,13.5515624 118,14.2796876 118,15.0375 L118,18.8 C118,20.7781252 119.621875,22.4 121.6,22.4 L129.2,22.4 C129.80625,22.4 130.307812,22.1546876 130.65,21.825 C130.992188,21.4953124 131.2,21.0890624 131.2,20.675 C131.2,20.3328124 131.120312,20.0515624 131.0375,19.8375 C131.426562,19.6281252 132,19.23125 132,18.325 C132,17.7546876 131.723438,17.38125 131.45,17.1375 C131.723438,16.86875 132,16.4734376 132,15.875 C132,14.9781252 131.43125,14.6109376 131.1,14.4375 C131.134375,14.23125 131.2,13.9281252 131.2,13.5625 C131.2,12.7796876 130.460938,12.04375 129.375,12.0375 C129.371875,12.0375 129.365625,12.0375 129.3625,12.0375 C128.120312,12.0015624 125.120312,12 124.375,12 C124.507812,11.7015624 124.604688,11.49375 124.85,10.9375 C125.223438,10.0906252 125.615625,9.2031252 125.7375,8.8625 C125.7375,8.8609376 125.7375,8.8515624 125.7375,8.85 C125.845312,8.5640624 126,8.28125 126,7.8375 C126,7.2203124 125.759375,6.7390624 125.4375,6.4375 C125.115625,6.1359376 124.740625,6 124.4,6 Z M124.4,6.8 C124.498438,6.8 124.71875,6.8671876 124.8875,7.025 C125.05625,7.1828124 125.2,7.4156252 125.2,7.8375 C125.2,8.1093752 125.11875,8.2234376 124.9875,8.575 C124.9875,8.5796876 124.9875,8.5828124 124.9875,8.5875 C124.907812,8.8109376 124.5,9.7640624 124.125,10.6125 C123.75,11.4609376 123.4,12.2375 123.4,12.2375 C123.345312,12.3609376 123.35625,12.5031252 123.429688,12.6171876 C123.503125,12.7296876 123.628125,12.7984376 123.7625,12.8 C123.7625,12.8 128.014062,12.7984376 129.35,12.8375 C129.354688,12.8375 129.357812,12.8375 129.3625,12.8375 C130.107812,12.8375 130.4,13.3093752 130.4,13.5625 C130.4,13.8828124 130.2875,14.575 130.2875,14.575 C130.257812,14.7656252 130.36875,14.9484376 130.55,15.0125 C130.55,15.0125 131.2,15.2218752 131.2,15.875 C131.2,16.4609376 130.6125,16.8125 130.6125,16.8125 C130.475,16.8859376 130.392188,17.03125 130.4,17.1875 C130.407812,17.3421876 130.504688,17.4796876 130.65,17.5375 C130.65,17.5375 131.2,17.7390624 131.2,18.325 C131.2,18.9843752 130.375,19.3 130.375,19.3 C130.25625,19.3421876 130.164062,19.4390624 130.128125,19.5593752 C130.090625,19.6796876 130.1125,19.8109376 130.1875,19.9125 C130.1875,19.9125 130.4,20.2 130.4,20.675 C130.4,20.78125 130.307812,21.05 130.1,21.25 C129.892188,21.45 129.59375,21.6 129.2,21.6 L121.6,21.6 C120.057812,21.6 118.8,20.3421876 118.8,18.8 L118.8,15.0375 C118.8,14.4390624 118.976562,13.8921876 119.325,13.4 C119.326562,13.3968752 119.323438,13.3906252 119.325,13.3875 L123.8,7.2375 C123.809375,7.225 123.817188,7.2125 123.825,7.2 C124.004688,6.9015624 124.246875,6.8 124.4,6.8 Z" id="Shape"></path>
            </g>
        </g>
    </g>
</svg>
