<svg width="20" height="20" viewBox="0 0 20 20" fill="none" xmlns="http://www.w3.org/2000/svg">
<path fill-rule="evenodd" clip-rule="evenodd" d="M8.07151 0C7.38677 0 6.80925 0.51777 6.71121 1.17647H6.3068C4.80558 1.17647 3.5617 2.35141 3.5617 3.81127V15.0123C3.5617 16.0248 4.16373 16.8995 5.03229 17.3407L3.14504 18.9093C2.97653 19.0487 2.95049 19.2984 3.08989 19.4669C3.22929 19.6354 3.47898 19.6615 3.64749 19.5221L5.91465 17.6225C6.04179 17.6394 6.17506 17.6471 6.3068 17.6471H14.1499C14.2817 17.6471 14.415 17.6394 14.5421 17.6225L16.8093 19.5221C16.9778 19.6615 17.2275 19.6354 17.3669 19.4669C17.5063 19.2984 17.4802 19.0487 17.3117 18.9093L15.4244 17.3407C16.293 16.8995 16.895 16.0248 16.895 15.0123V3.81127C16.895 2.35141 15.6512 1.17647 14.1499 1.17647H13.7455C13.6475 0.51777 13.07 0 12.3852 0C11.7005 0 11.123 0.51777 11.0249 1.17647H9.4318C9.33376 0.51777 8.75625 0 8.07151 0ZM8.07151 0.784314C8.40086 0.784314 8.65974 1.0432 8.65974 1.37255C8.65974 1.7019 8.40086 1.96078 8.07151 1.96078C7.74216 1.96078 7.48327 1.7019 7.48327 1.37255C7.48327 1.0432 7.74216 0.784314 8.07151 0.784314ZM12.9735 1.37255C12.9735 1.0432 12.7146 0.784314 12.3852 0.784314C12.0559 0.784314 11.797 1.0432 11.797 1.37255C11.797 1.40931 11.8031 1.44761 11.8093 1.48284V1.4951V1.51961C11.8721 1.77849 12.1049 1.96078 12.3852 1.96078C12.7146 1.96078 12.9735 1.7019 12.9735 1.37255ZM6.3068 1.96078H6.84602C7.06967 2.41728 7.53229 2.7451 8.07151 2.7451C8.61072 2.7451 9.07335 2.41728 9.297 1.96078H11.1597C11.3834 2.41728 11.846 2.7451 12.3852 2.7451C12.9244 2.7451 13.3871 2.41728 13.6107 1.96078H14.1499C15.2468 1.96078 16.1107 2.79718 16.1107 3.81127V15.0123C16.1107 16.0263 15.2468 16.8627 14.1499 16.8627H6.3068C5.20999 16.8627 4.34602 16.0263 4.34602 15.0123V3.81127C4.34602 2.79718 5.20999 1.96078 6.3068 1.96078ZM7.09112 4.31373C7.09112 3.8848 7.44651 3.52941 7.87543 3.52941H12.5813C13.0102 3.52941 13.3656 3.8848 13.3656 4.31373V5.09804H14.1499C14.778 5.09804 15.3264 5.58517 15.3264 6.21324V9.47304C15.3264 10.1011 14.778 10.5882 14.1499 10.5882H6.3068C5.67874 10.5882 5.13033 10.1011 5.13033 9.47304V6.21324C5.13033 5.58517 5.67874 5.09804 6.3068 5.09804H7.09112V4.31373ZM7.87543 4.31373H12.5813V5.09804H7.87543V4.31373ZM14.1499 5.88235H6.3068C6.06783 5.88235 5.91465 6.04779 5.91465 6.21324V9.47304C5.91465 9.63848 6.06783 9.80392 6.3068 9.80392H14.1499C14.3889 9.80392 14.5421 9.63848 14.5421 9.47304V6.21324C14.5421 6.04779 14.3889 5.88235 14.1499 5.88235ZM6.69896 12.549C5.83652 12.549 5.13033 13.2552 5.13033 14.1176C5.13033 14.9801 5.83652 15.6863 6.69896 15.6863C7.5614 15.6863 8.26759 14.9801 8.26759 14.1176C8.26759 13.2552 7.5614 12.549 6.69896 12.549ZM12.1892 14.1176C12.1892 13.2552 12.8953 12.549 13.7578 12.549C14.6202 12.549 15.3264 13.2552 15.3264 14.1176C15.3264 14.9801 14.6202 15.6863 13.7578 15.6863C12.8953 15.6863 12.1892 14.9801 12.1892 14.1176ZM6.69896 13.3333C7.13707 13.3333 7.48327 13.6795 7.48327 14.1176C7.48327 14.5558 7.13707 14.902 6.69896 14.902C6.26085 14.902 5.91465 14.5558 5.91465 14.1176C5.91465 13.6795 6.26085 13.3333 6.69896 13.3333ZM14.5421 14.1176C14.5421 13.6795 14.1959 13.3333 13.7578 13.3333C13.3197 13.3333 12.9735 13.6795 12.9735 14.1176C12.9735 14.5558 13.3197 14.902 13.7578 14.902C14.1959 14.902 14.5421 14.5558 14.5421 14.1176Z" fill="#FFFFFF"/>
</svg>
