<?xml version="1.0" encoding="UTF-8"?>
<svg width="21px" height="14px" viewBox="0 0 21 14" version="1.1" xmlns="http://www.w3.org/2000/svg" xmlns:xlink="http://www.w3.org/1999/xlink">
    <!-- Generator: Sketch 57.1 (83088) - https://sketch.com -->
    <title>Shape</title>
    <desc>Created with Sketch.</desc>
    <g id="Symbols" stroke="none" stroke-width="1" fill="none" fill-rule="evenodd">
        <g id="Icon-/-Van" transform="translate(0.000000, -4.000000)" fill="#FFFFFF" fill-rule="nonzero">
            <path d="M1.68,4 C0.75632802,4 0,4.75632802 0,5.68 L0,14.5 C0,15.423672 0.75632802,16.18 1.68,16.18 L2.979375,16.18 C3.17625,17.134844 4.029375,17.86 5.04,17.86 C6.050625,17.86 6.90375,17.134844 7.100625,16.18 L15.159375,16.18 C15.35625,17.134844 16.209375,17.86 17.22,17.86 C18.230625,17.86 19.08375,17.134844 19.280625,16.18 L19.74,16.18 C20.430703,16.18 21,15.610703 21,14.92 L21,12.150625 C21,11.678125 20.834297,11.2089065 20.540625,10.838125 L19.3725,9.368125 L19.359375,9.32875 L17.22,5.141875 C16.862344,4.43804698 16.1453905,4 15.35625,4 L1.68,4 Z M1.68,4.84 L12.691875,4.84 L13.72875,8.974375 C13.86,9.49773448 14.30625,9.88984396 14.844375,9.9325 L19.018125,10.260625 L19.884375,11.363125 C20.059922,11.5846095 20.16,11.866797 20.16,12.150625 L20.16,14.92 C20.16,15.1578905 19.9778905,15.34 19.74,15.34 L19.280625,15.34 C19.08375,14.3851565 18.230625,13.66 17.22,13.66 C16.209375,13.66 15.35625,14.3851565 15.159375,15.34 L7.100625,15.34 C6.90375,14.3851565 6.050625,13.66 5.04,13.66 C4.029375,13.66 3.17625,14.3851565 2.979375,15.34 L1.68,15.34 C1.21078146,15.34 0.84,14.969219 0.84,14.5 L0.84,5.68 C0.84,5.21078146 1.21078146,4.84 1.68,4.84 Z M13.558125,4.84 L15.35625,4.84 C15.8303905,4.84 16.256953,5.09921896 16.471875,5.5225 L18.4275,9.368125 L14.91,9.0925 C14.7278905,9.07773448 14.586797,8.9546875 14.5425,8.7775 L13.558125,4.84 Z M5.04,14.5 C5.70445302,14.5 6.23273448,15.006953 6.286875,15.655 C6.286875,15.659922 6.286875,15.663203 6.286875,15.668125 C6.27539052,15.7239065 6.27539052,15.782969 6.286875,15.83875 C6.286875,15.843672 6.286875,15.846953 6.286875,15.851875 C6.23765646,16.5064845 5.70773448,17.02 5.04,17.02 C4.35257802,17.02 3.80132802,16.4802345 3.78,15.799375 C3.78328146,15.768203 3.78328146,15.738672 3.78,15.7075 C3.80789052,15.0315625 4.3575,14.5 5.04,14.5 Z M17.22,14.5 C17.920547,14.5 18.48,15.059453 18.48,15.76 C18.4783595,15.778047 18.4783595,15.794453 18.48,15.8125 C18.4521095,16.4884375 17.9025,17.02 17.22,17.02 C16.532578,17.02 15.981328,16.4802345 15.96,15.799375 C15.9632815,15.768203 15.9632815,15.738672 15.96,15.7075 C15.9878905,15.0315625 16.5375,14.5 17.22,14.5 Z" id="Shape"></path>
        </g>
    </g>
</svg>