<?xml version="1.0" encoding="UTF-8"?>
<svg width="23px" height="20px" viewBox="0 0 23 20" version="1.1" xmlns="http://www.w3.org/2000/svg" xmlns:xlink="http://www.w3.org/1999/xlink">
    <!-- Generator: Sketch 57.1 (83088) - https://sketch.com -->
    <title>Shape</title>
    <desc>Created with Sketch.</desc>
    <g id="Invoice-UI" stroke="none" stroke-width="1" fill="none" fill-rule="evenodd">
        <g id="Job-Detail-Page-Copy-2" transform="translate(-209.000000, -245.000000)" fill="#333333" fill-rule="nonzero">
            <path d="M219.992687,245.005595 C219.857922,245.026328 219.740434,245.107533 219.674778,245.226748 L209.059394,263.610162 C208.979916,263.748383 208.979916,263.917704 209.061121,264.054197 C209.140599,264.190691 209.287459,264.275351 209.446413,264.273649 L230.677182,264.273649 C230.836136,264.275351 230.982996,264.190691 231.062474,264.054197 C231.143679,263.917704 231.143679,263.748383 231.064201,263.610162 L220.448817,245.226748 C220.358973,245.064339 220.17583,244.976223 219.992687,245.005595 Z M220.061798,246.332518 L229.903144,263.389008 L210.220451,263.389008 L220.061798,246.332518 Z M219.550379,251.847542 C219.455352,251.847542 219.398336,251.904558 219.398336,251.999585 L219.398336,258.399224 C219.398336,258.494252 219.455352,258.56509 219.550379,258.56509 L220.573216,258.56509 C220.668243,258.56509 220.725259,258.494252 220.725259,258.399224 L220.725259,251.999585 C220.725259,251.904558 220.668243,251.847542 220.573216,251.847542 L219.550379,251.847542 Z M219.453624,259.836724 C219.394881,259.859185 219.370692,259.917929 219.370692,259.988768 L219.370692,261.149825 C219.370692,261.244853 219.427708,261.301869 219.522735,261.301869 L220.60086,261.301869 C220.695887,261.301869 220.752903,261.244853 220.752903,261.149825 L220.752903,259.988768 C220.752903,259.893741 220.695887,259.836724 220.60086,259.836724 L219.522735,259.836724 C219.498547,259.836724 219.47263,259.829813 219.453624,259.836724 Z" id="Shape"></path>
        </g>
    </g>
</svg>
