<?xml version="1.0" encoding="UTF-8"?>
<svg width="25px" height="25px" viewBox="0 0 25 25" version="1.1" xmlns="http://www.w3.org/2000/svg" xmlns:xlink="http://www.w3.org/1999/xlink">
    <!-- Generator: Sketch 59.1 (86144) - https://sketch.com -->
    <title>Shape</title>
    <desc>Created with Sketch.</desc>
    <g id="Symbols" stroke="none" stroke-width="1" fill="none" fill-rule="evenodd">
        <g id="Icon-/-Work" transform="translate(-1.000000, 0.000000)" fill="#FFFFFF" fill-rule="nonzero">
            <path d="M25.8139219,4.43214548 C25.7631404,4.28370798 25.6127499,4.13331698 25.4623594,4.13331698 C25.3139219,4.08253598 25.1127499,4.13331698 25.0131404,4.28370798 L22.3627499,6.93214548 C22.2123594,7.08253598 21.9135309,7.08253598 21.7631404,6.93214548 L19.1127499,4.28370798 C18.9623594,4.13331698 18.9623594,3.83253598 19.1127499,3.68214548 L21.7631404,0.982926485 C21.8627499,0.883316985 21.9135309,0.682145485 21.9135309,0.533707985 C21.8627499,0.383316985 21.7631404,0.232926485 21.6127499,0.182145485 C19.6127499,-0.517073515 16.4135309,0.932145485 15.1127499,2.23292648 C13.8139219,3.53370798 13.6635309,5.33253598 14.7123594,7.28370798 L14.6127499,7.38331698 L13.5131404,6.23292648 C12.5639219,5.18214548 11.2631404,4.58253598 9.81392186,4.53370798 C8.36274986,4.48292648 7.06392186,5.03370798 6.06392186,6.03370798 L2.56392186,9.53370798 C0.563921363,11.533708 0.563921363,14.783708 2.56392186,16.783708 L3.51314036,17.7329265 L2.01314036,19.133317 C1.61274986,19.533708 1.16353086,20.2329265 1.01314036,21.133317 C0.962358863,21.883317 1.01314036,22.9321455 2.01314036,23.9829265 C2.81392186,24.783708 3.66353086,24.9829265 4.36274986,24.9829265 C4.51314036,24.9829265 4.71235936,24.9829265 4.86274986,24.9321455 C5.76314036,24.783708 6.46235936,24.332536 6.86274986,23.9321455 L8.56392186,22.1821455 C8.66353086,22.1821455 8.76314036,22.2329265 8.91353086,22.2329265 C9.71235936,22.2329265 10.4623594,21.832536 10.8627499,21.1821455 C11.1127499,21.283708 11.4135309,21.332536 11.6635309,21.332536 C12.8139219,21.332536 13.7631404,20.533708 13.9623594,19.4321455 C14.1127499,19.4829265 14.2631404,19.4829265 14.4135309,19.4829265 C15.5639219,19.4829265 16.5131404,18.6821455 16.7123594,17.582536 C16.8627499,17.633317 17.0131404,17.633317 17.1635309,17.633317 C18.4623594,17.633317 19.5131404,16.582536 19.5131404,15.283708 C19.5131404,14.582536 19.1635309,13.883317 18.6127499,13.4321455 L17.6127499,12.4321455 L18.7123594,11.332536 C20.6635309,12.383317 22.4135309,12.2329265 23.7631404,10.9321455 C25.0639219,9.58253598 26.5131404,6.38331698 25.8139219,4.43214548 Z M6.16353086,23.2329265 C5.91353086,23.4829265 5.36274986,23.832536 4.71235936,23.9321455 C3.96235936,24.033708 3.31392186,23.783708 2.76314036,23.2329265 C2.16353086,22.633317 1.96235936,21.9829265 2.06392186,21.283708 C2.16353086,20.633317 2.51314036,20.133317 2.76314036,19.832536 L4.21235936,18.4321455 L7.11274986,21.332536 C7.26314036,21.4829265 7.41353086,21.633317 7.61274986,21.783708 L6.16353086,23.2329265 Z M18.0131404,14.1821455 C18.3627499,14.4321455 18.5639219,14.832536 18.5639219,15.2329265 C18.5639219,15.9829265 17.9623594,16.582536 17.2123594,16.582536 C16.9623594,16.582536 16.7631404,16.533708 16.5131404,16.383317 L15.6127499,15.832536 L15.7631404,16.883317 C15.7631404,16.9321455 15.7631404,16.9829265 15.7631404,17.082536 C15.7631404,17.832536 15.1635309,18.4321455 14.4135309,18.4321455 C14.1635309,18.4321455 13.9623594,18.383317 13.7123594,18.2329265 L12.8139219,17.6821455 L12.9623594,18.7329265 C12.9623594,18.783708 12.9623594,18.832536 12.9623594,18.9321455 C12.9623594,19.6821455 12.3627499,20.283708 11.6127499,20.283708 C11.3627499,20.283708 11.0639219,20.1821455 10.8627499,20.033708 L10.3139219,19.6821455 L10.1127499,20.283708 C9.91353086,20.832536 9.41353086,21.1821455 8.86274986,21.1821455 C8.46235936,21.1821455 8.06392186,20.9829265 7.81392186,20.6821455 L3.21235936,16.082536 C1.61274986,14.4829265 1.61274986,11.832536 3.21235936,10.2329265 L6.71235936,6.73292648 C7.51314036,5.93214548 8.61274986,5.48292648 9.76314036,5.53370798 C10.9135309,5.58253598 11.9623594,6.03370798 12.7631404,6.93214548 L13.9135309,8.13331698 L13.6127499,8.43214548 L13.5131404,8.28370798 C13.3139219,8.08253598 13.0131404,8.08253598 12.8139219,8.28370798 C12.6127499,8.48292648 12.6127499,8.78370798 12.8139219,8.98292648 L17.9623594,14.133317 L18.0131404,14.1821455 Z M23.0131404,10.1821455 C21.6635309,11.533708 20.0131404,10.9829265 18.8627499,10.2329265 C18.6635309,10.133317 18.4135309,10.133317 18.2631404,10.332536 L16.9135309,11.6821455 L14.3139219,9.08253598 L15.6635309,7.73292648 C15.8139219,7.58253598 15.8627499,7.33253598 15.7631404,7.13331698 C15.0639219,5.93214548 14.5131404,4.28370798 15.8139219,2.98292648 C16.7631404,2.03370798 18.8139219,1.03370798 20.3627499,0.982926485 L18.4135309,2.93214548 C17.8627499,3.48292648 17.8627499,4.38331698 18.4135309,4.98292648 L21.0639219,7.63331698 C21.6127499,8.18214548 22.5131404,8.18214548 23.1127499,7.63331698 L25.0639219,5.68214548 C25.0131404,7.18214548 23.9623594,9.23292648 23.0131404,10.1821455 Z" id="Shape"></path>
        </g>
    </g>
</svg>
