<?xml version="1.0" encoding="UTF-8"?>
<svg width="43px" height="44px" viewBox="0 0 43 44" version="1.1" xmlns="http://www.w3.org/2000/svg" xmlns:xlink="http://www.w3.org/1999/xlink">
    <!-- Generator: Sketch 63.1 (92452) - https://sketch.com -->
    <title>plus-button</title>
    <desc>Created with Sketch.</desc>
    <g id="plus-button" stroke="none" stroke-width="1" fill="none" fill-rule="evenodd">
        <rect id="Rectangle" fill="#333333" x="0" y="0" width="44" height="44" rx="3"></rect>
        <path d="M18.8863802,7 C12.32866,7 7,12.32866 7,18.8863802 C7,25.4441003 12.32866,30.7727604 18.8863802,30.7727604 C21.4810637,30.7727604 23.8790969,29.9369996 25.8346686,28.5222141 L35.0335033,37.6991988 L37,35.7327021 L27.9104151,26.6212673 C29.69665,24.5400586 30.7727604,21.8388563 30.7727604,18.8863802 C30.7727604,12.32866 25.4441003,7 18.8863802,7 Z M18.8863802,8.39839767 C24.6875455,8.39839767 29.3743627,13.0852149 29.3743627,18.8863802 C29.3743627,24.6875455 24.6875455,29.3743627 18.8863802,29.3743627 C13.0852149,29.3743627 8.39839767,24.6875455 8.39839767,18.8863802 C8.39839767,13.0852149 13.0852149,8.39839767 18.8863802,8.39839767 Z M18.1871814,13.2927895 L18.1871814,18.1871814 L13.2927895,18.1871814 L13.2927895,19.585579 L18.1871814,19.585579 L18.1871814,24.4799709 L19.585579,24.4799709 L19.585579,19.585579 L24.4799709,19.585579 L24.4799709,18.1871814 L19.585579,18.1871814 L19.585579,13.2927895 L18.1871814,13.2927895 Z" id="Shape" fill="#FFFFFF" fill-rule="nonzero"></path>
    </g>
</svg>