<?xml version="1.0" encoding="UTF-8"?>
<svg width="43px" height="44px" viewBox="0 0 43 44" version="1.1" xmlns="http://www.w3.org/2000/svg" xmlns:xlink="http://www.w3.org/1999/xlink">
    <!-- Generator: Sketch 63.1 (92452) - https://sketch.com -->
    <title>expand</title>
    <desc>Created with Sketch.</desc>
    <g id="expand" stroke="none" stroke-width="1" fill="none" fill-rule="evenodd">
        <path d="M2.08500747,1.03738842 C2.03981904,1.03788264 1.99470992,1.04129999 1.94996277,1.04761905 L1.04761905,1.04761905 L1.04761905,1.95200888 C1.03524607,2.04435421 1.03524607,2.13793736 1.04761905,2.23028269 L1.04761905,13.6190476 C1.04227589,13.9968567 1.24077412,14.3482757 1.56710489,14.5387395 C1.89343566,14.7292033 2.29704053,14.7292033 2.6233713,14.5387395 C2.94970207,14.3482757 3.1482003,13.9968567 3.14285714,13.6190476 L3.14285714,4.62425595 L17.0688247,18.550223 C17.2905215,18.7810124 17.6055385,18.8978252 17.9241071,18.8673739 C17.958424,18.8642847 17.9925676,18.8595045 18.0264134,18.8530509 C18.4101376,18.7778435 18.7200497,18.495212 18.8301974,18.1200216 C18.940345,17.7448311 18.8323963,17.3395248 18.550223,17.0688247 L4.62425595,3.14285714 L13.6190476,3.14285714 C13.9968567,3.1482003 14.3482757,2.94970207 14.5387395,2.6233713 C14.7292033,2.29704053 14.7292033,1.89343566 14.5387395,1.56710489 C14.3482757,1.24077412 13.9968567,1.04227589 13.6190476,1.04761905 L2.21800595,1.04761905 C2.17393543,1.04138731 2.1295126,1.03797018 2.08500747,1.03738842 Z M41.8843009,1.03738842 C41.8452641,1.03862215 41.8063269,1.04203769 41.7676715,1.04761905 L30.3809524,1.04761905 C30.0031433,1.04227589 29.6517243,1.24077412 29.4612605,1.56710489 C29.2707967,1.89343566 29.2707967,2.29704053 29.4612605,2.6233713 C29.6517243,2.94970207 30.0031433,3.1482003 30.3809524,3.14285714 L39.3757446,3.14285714 L25.449777,17.0688247 C25.1760962,17.3315849 25.0658502,17.721771 25.1615573,18.0889008 C25.2572645,18.4560306 25.5439694,18.7427355 25.9110992,18.8384427 C26.278229,18.9341498 26.6684151,18.8239038 26.9311753,18.550223 L40.8571429,4.62425595 L40.8571429,13.6190476 C40.8517997,13.9968567 41.0502979,14.3482757 41.3766287,14.5387395 C41.7029595,14.7292033 42.1065643,14.7292033 42.4328951,14.5387395 C42.7592259,14.3482757 42.9577241,13.9968567 42.952381,13.6190476 L42.952381,2.22823658 C42.9656849,2.13252855 42.9656849,2.03544017 42.952381,1.93973214 L42.952381,1.04761905 L42.0582213,1.04761905 C42.0006324,1.03938632 41.9424578,1.03596428 41.8843009,1.03738842 Z M17.7890628,25.1326261 C17.5168927,25.140736 17.258571,25.2544859 17.0688247,25.449777 L3.14285714,39.3757446 L3.14285714,30.3809524 C3.14673486,30.0977806 3.03581491,29.8250997 2.83537082,29.6250411 C2.63492674,29.4249824 2.36203284,29.3145875 2.07886905,29.3190103 C1.50109018,29.3280419 1.03970667,29.8031571 1.04761905,30.3809524 L1.04761905,41.7451634 C1.02823735,41.8603012 1.02823735,41.9778687 1.04761905,42.0930065 L1.04761905,42.952381 L1.91108636,42.952381 C2.02488825,42.9713061 2.14103447,42.9713061 2.25483636,42.952381 L13.6190476,42.952381 C13.9968567,42.9577241 14.3482757,42.7592259 14.5387395,42.4328951 C14.7292033,42.1065643 14.7292033,41.7029595 14.5387395,41.3766287 C14.3482757,41.0502979 13.9968567,40.8517997 13.6190476,40.8571429 L4.62425595,40.8571429 L18.550223,26.9311753 C18.8600673,26.6299939 18.9532305,26.1694872 18.7848213,25.7715523 C18.6164122,25.3736175 18.2209789,25.1198886 17.7890628,25.1326261 Z M26.1802451,25.1326261 C25.767295,25.1326261 25.3928795,25.3752433 25.2240995,25.7521268 C25.0553196,26.1290103 25.1236613,26.5698798 25.3986239,26.8779762 C25.4150449,26.8963045 25.4321065,26.9140485 25.449777,26.9311753 L39.3757446,40.8571429 L30.3809524,40.8571429 C30.0031433,40.8517997 29.6517243,41.0502979 29.4612605,41.3766287 C29.2707967,41.7029595 29.2707967,42.1065643 29.4612605,42.4328951 C29.6517243,42.7592259 30.0031433,42.9577241 30.3809524,42.952381 L41.7451634,42.952381 C41.8603012,42.9717627 41.9778687,42.9717627 42.0930065,42.952381 L42.952381,42.952381 L42.952381,42.0889134 C42.9713061,41.9751115 42.9713061,41.8589653 42.952381,41.7451634 L42.952381,30.3809524 C42.9562587,30.0977806 42.8453387,29.8250997 42.6448946,29.6250411 C42.4444505,29.4249824 42.1715566,29.3145875 41.8883929,29.3190103 C41.310614,29.3280419 40.8492305,29.8031571 40.8571429,30.3809524 L40.8571429,39.3757446 L26.9311753,25.449777 C26.733939,25.2470282 26.4631042,25.1326261 26.1802451,25.1326261 L26.1802451,25.1326261 Z" id="Shape" fill="#333333" fill-rule="nonzero"></path>
    </g>
</svg>