<?xml version="1.0" encoding="UTF-8"?>
<svg width="43px" height="44px" viewBox="0 0 43 44" version="1.1" xmlns="http://www.w3.org/2000/svg" xmlns:xlink="http://www.w3.org/1999/xlink">
    <!-- Generator: Sketch 63.1 (92452) - https://sketch.com -->
    <title>expand-button</title>
    <desc>Created with Sketch.</desc>
    <g id="expand-button" stroke="none" stroke-width="1" fill="none" fill-rule="evenodd">
        <rect id="Rectangle" fill="#333333" x="0" y="0" width="44" height="44" rx="3"></rect>
        <path d="M7.76294975,7 C7.73001047,7.00036024 7.697129,7.0028512 7.66451137,7.00745725 L7.00676429,7.00745725 L7.00676429,7.66667988 C6.99774524,7.7339917 6.99774524,7.8022058 7.00676429,7.86951762 L7.00676429,16.1709506 C7.00286949,16.446341 7.14756118,16.7024953 7.38543407,16.8413271 C7.62330696,16.9801589 7.91750741,16.9801589 8.1553803,16.8413271 C8.39325319,16.7024953 8.53794487,16.446341 8.53405007,16.1709506 L8.53405007,9.61451883 L18.6851314,19.7653545 C18.8467332,19.9335802 19.0763592,20.0187267 19.308574,19.9965304 C19.3335886,19.9942786 19.358477,19.9907943 19.3831483,19.9860901 C19.6628571,19.9312704 19.8887619,19.7252563 19.969052,19.4517746 C20.0493421,19.178293 19.9706549,18.8828594 19.7649697,18.6855422 L9.61388885,8.53470614 L16.170479,8.53470614 C16.445876,8.53860085 16.7020366,8.39391266 16.8408717,8.15604551 C16.9797068,7.91817837 16.9797068,7.62398503 16.8408717,7.38611788 C16.7020366,7.14825073 16.445876,7.00356255 16.170479,7.00745725 L7.85989658,7.00745725 C7.82777218,7.00291485 7.79539096,7.00042405 7.76294975,7 Z M36.2141866,7.00022887 C36.1857322,7.00112813 36.1573502,7.00361769 36.1291737,7.0076859 L27.8292162,7.0076859 C27.5538253,7.00379131 27.2976704,7.14847517 27.1588384,7.38633521 C27.0200064,7.62419525 27.0200064,7.9183798 27.1588384,8.15623984 C27.2976704,8.39409988 27.5538253,8.53878375 27.8292162,8.53488916 L34.3856608,8.53488916 L24.2348054,18.685422 C24.0353152,18.8769459 23.9549552,19.1613497 24.0247176,19.4289478 C24.09448,19.6965459 24.3034637,19.905523 24.5710704,19.9752832 C24.838677,20.0450434 25.1230898,19.9646859 25.3146198,19.765202 L35.4654751,9.61466959 L35.4654751,16.1709055 C35.4615804,16.4462876 35.6062689,16.7024343 35.8441365,16.841262 C36.0820041,16.9800896 36.376198,16.9800896 36.6140656,16.841262 C36.8519332,16.7024343 36.9966216,16.4462876 36.9927269,16.1709055 L36.9927269,7.86822912 C37.0024244,7.79846826 37.0024244,7.72770127 36.9927269,7.65794041 L36.9927269,7.0076859 L36.34096,7.0076859 C36.2989825,7.00168512 36.2565782,6.99919083 36.2141866,7.00022887 Z M19.2137567,24.0003341 C19.0153667,24.0062456 18.827071,24.0891611 18.6887613,24.2315143 L8.53785519,34.382543 L8.53785519,27.8259865 C8.54068174,27.6195746 8.45983004,27.4208098 8.31372249,27.2749815 C8.16761493,27.1291531 7.96869731,27.0486832 7.76229377,27.0519071 C7.34113961,27.0584905 7.00482829,27.4048153 7.01059577,27.8259865 L7.01059577,36.109679 C6.99646808,36.1936061 6.99646808,36.2793044 7.01059577,36.3632315 L7.01059577,36.9896537 L7.63999373,36.9896537 C7.72294612,37.0034488 7.80760734,37.0034488 7.89055973,36.9896537 L16.1741523,36.9896537 C16.4495446,36.9935485 16.7057007,36.8488575 16.8445334,36.6109859 C16.9833662,36.3731142 16.9833662,36.0789153 16.8445334,35.8410436 C16.7057007,35.603172 16.4495446,35.458481 16.1741523,35.4623758 L9.61767533,35.4623758 L19.768581,25.3113471 C19.9944325,25.0918076 20.062341,24.7561312 19.9395843,24.4660654 C19.8168276,24.1759995 19.5285886,23.9910494 19.2137567,24.0003341 Z M24.7636945,24 C24.4626767,24 24.1897485,24.1768517 24.0667173,24.4515744 C23.943686,24.7262972 23.9935033,25.0476614 24.1939359,25.272243 C24.2059059,25.285603 24.2183429,25.2985373 24.2312237,25.3110216 L34.3824834,35.4621162 L27.8257777,35.4621162 C27.5503758,35.4582214 27.2942107,35.6029133 27.1553731,35.8407865 C27.0165356,36.0786597 27.0165356,36.3728606 27.1553731,36.6107338 C27.2942107,36.848607 27.5503758,36.9932988 27.8257777,36.989404 L36.1096587,36.989404 C36.1935877,37.003532 36.279288,37.003532 36.363217,36.989404 L36.9896535,36.989404 L36.9896535,36.3599942 C37.0034488,36.2770403 37.0034488,36.1923775 36.9896535,36.1094236 L36.9896535,27.8256772 C36.9924801,27.619264 36.9116256,27.420498 36.765513,27.2746687 C36.6194003,27.1288394 36.4204758,27.0483689 36.214065,27.0515928 C35.7928962,27.0581762 35.4565731,27.4045033 35.4623408,27.8256772 L35.4623408,34.3822764 L25.3110811,24.2311817 C25.1673067,24.0833914 24.9698831,24 24.7636945,24 L24.7636945,24 Z" id="Shape" fill="#FFFFFF" fill-rule="nonzero"></path>
    </g>
</svg>