<?xml version="1.0" encoding="UTF-8"?>
<svg width="111px" height="98px" viewBox="0 0 111 98" version="1.1" xmlns="http://www.w3.org/2000/svg" xmlns:xlink="http://www.w3.org/1999/xlink">
    <!-- Generator: Sketch 59 (86127) - https://sketch.com -->
    <title>Shape</title>
    <desc>Created with Sketch.</desc>
    <g id="Symbols" stroke="none" stroke-width="1" fill="none" fill-rule="evenodd">
        <g id="Building-Profile-/-Intro" transform="translate(-309.000000, -166.000000)" fill="#4FCBB2" fill-rule="nonzero">
            <g id="Building-Intro">
                <g id="Building-Image" transform="translate(86.000000, 49.000000)">
                    <path d="M233.55847,117 C233.4489,117 233.339468,117.00788 233.230968,117.023335 C229.415572,117.082172 225.891618,118.128954 223,119.916826 L223,125.867151 C225.503405,123.382108 229.307406,121.778927 233.55847,121.778927 C239.184628,121.778927 243.868596,124.632872 245.952793,128.387288 C246.348301,129.101438 247.077592,129.561062 247.885514,129.605355 C250.459082,129.745378 252.577606,130.558214 253.96044,131.705469 C255.343273,132.852725 256.063831,134.235912 256.063831,136.11571 C256.063831,136.711938 256.129595,137.191872 256.160698,137.64646 C256.191802,138.101048 256.11683,138.586313 256.1976,138.253159 C255.981011,139.143934 256.287521,140.081528 256.98637,140.665958 C257.957753,141.47477 259.083621,143.234632 259.827793,145.21154 C260.571966,147.188446 260.966677,149.386842 260.934841,150.849181 C260.928929,151.103507 260.963187,151.357158 261.036321,151.600555 L242.705453,167.766771 C242.035552,168.317298 241.715766,169.193668 241.871377,170.052547 C242.026987,170.911426 242.633216,171.616054 243.452563,171.890381 C244.27191,172.164708 245.173909,171.965052 245.805187,171.369633 L248.978724,168.56948 L248.978724,188.184552 C247.909875,187.954908 246.770382,187.509008 245.565328,186.695804 C244.401181,185.91082 243.235551,185.462974 242.170381,185.27706 C241.63779,185.184102 241.131482,185.156289 240.662027,185.18372 C240.192572,185.211154 239.759973,185.293831 239.379697,185.421735 C237.858591,185.933345 237.478022,186.294448 237.170214,186.294448 L230.085107,186.294448 C229.555152,186.28817 229.03851,186.462408 228.618269,186.789141 C225.770926,188.504982 224.260619,188.782231 223.779547,188.828587 C223.51976,188.733008 223.259788,188.683353 223,188.707247 L223,193.556176 C224.228086,193.723441 225.811534,193.415984 227.677278,192.627461 C227.299406,206.84477 224.891392,209.950884 224.489903,210.357093 C223.592456,210.715513 223,211.598869 223,212.578549 C223,212.698022 223,212.81843 223.023065,212.937903 C223.188384,214.10874 224.204469,214.968013 225.361703,214.968013 C225.479788,214.968013 225.598796,214.968572 225.716881,214.944677 C228.119455,214.577763 232.069287,210.775973 232.386844,191.073376 L234.868477,191.073376 C235.022263,201.479681 236.061339,207.241971 237.340884,210.478435 C238.032127,212.226856 238.803231,213.331581 239.642621,214.039295 C240.062315,214.393153 240.49975,214.637693 240.897275,214.781336 C241.2948,214.924979 241.893618,214.968013 241.893618,214.968013 C243.061502,214.97677 244.060364,214.12061 244.243759,212.953625 C244.427154,211.78664 243.740011,210.659254 242.627037,210.301091 C242.553896,210.234497 242.191754,209.890799 241.722948,208.705004 C240.80364,206.379719 239.753875,200.719555 239.619557,190.336001 C239.946358,190.167711 240.717993,190.008972 240.869599,189.957981 C241.318153,189.80711 241.343732,189.59207 242.945312,190.67202 C244.932094,192.012753 246.990646,192.749494 248.978724,193.019481 L248.978724,212.578549 C248.978855,213.898159 250.036148,214.967881 251.340426,214.968013 L272.199053,214.968013 C272.454096,215.010662 272.71433,215.010662 272.969374,214.968013 L291.092669,214.968013 C291.347713,215.010662 291.607947,215.010662 291.86299,214.968013 L309.202128,214.968013 L312.744681,214.968013 L322.191489,214.968013 C327.380938,214.968013 331.638298,210.660608 331.638298,205.410158 C331.638298,203.793774 331.131415,202.338385 330.425158,200.999917 C332.440892,199.477325 334,197.386394 334,194.657571 C334,190.066962 330.271316,186.294448 325.734043,186.294448 C325.518632,186.294448 325.364883,186.360412 325.162067,186.378452 C323.509997,183.625051 320.874458,181.515521 317.468085,181.515521 C316.631995,181.515521 315.845327,181.647247 315.106383,181.879541 L315.106383,168.56948 L318.27992,171.369633 C318.911198,171.965052 319.813198,172.164708 320.632545,171.890381 C321.451891,171.616054 322.05812,170.911426 322.213731,170.052547 C322.369341,169.193668 322.049555,168.317298 321.379654,167.766771 L308.021277,155.98746 L308.021277,138.505174 L293.851064,138.505174 L293.851064,143.489447 L283.592421,134.440285 C283.173641,134.070888 282.63956,133.862676 282.084068,133.852252 C281.499987,133.842413 280.933023,134.051912 280.492687,134.440285 L265.386097,147.759679 C265.148033,146.353501 264.770597,144.916623 264.242148,143.51278 C263.487659,141.508464 262.222614,139.807333 260.828749,138.267161 C260.821664,137.975403 260.888212,137.577476 260.870263,137.315108 C260.83108,136.742829 260.787235,136.188531 260.787235,136.11571 C260.787235,132.846214 259.289049,129.942628 256.958694,128.009267 C254.913233,126.312266 252.226301,125.409899 249.315451,125.059773 C246.08754,120.195243 240.269678,117 233.55847,117 Z M282.042554,139.410556 L294.42304,150.326486 C294.572315,150.50358 294.74636,150.657659 294.939662,150.783844 L304.035905,158.806282 C304.091802,158.860494 304.1503,158.911892 304.211188,158.96029 L310.406043,164.425254 C310.3892,164.545822 310.381489,164.667517 310.382979,164.789275 L310.382979,185.505739 C310.128024,185.864803 309.88564,186.234549 309.668011,186.621133 C309.114183,186.515094 308.609508,186.294448 308.021277,186.294448 C302.831829,186.294448 298.574468,190.601853 298.574468,195.852303 C298.574468,198.689903 300.055232,200.967987 302.010929,202.717345 C301.383661,203.896791 300.936171,205.182236 300.936171,206.60489 C300.936171,207.890445 301.254986,209.096728 301.775682,210.189085 L293.851064,210.189085 L293.851064,179.126057 L270.234043,179.126057 L270.234043,210.189085 L253.702128,210.189085 L253.702128,164.789275 C253.701857,164.668956 253.692606,164.54883 253.674452,164.429921 L282.042554,139.410556 Z M298.574468,143.284101 L303.297873,143.284101 L303.297873,151.819901 L298.574468,147.652339 L298.574468,143.284101 Z M274.957447,183.904984 L289.12766,183.904984 L289.12766,210.189085 L274.957447,210.189085 L274.957447,183.904984 Z M317.468085,186.294448 C319.592911,186.294448 321.330987,187.698227 321.937791,189.635965 C322.31925,190.857403 323.584761,191.557292 324.80689,191.222717 C325.177307,191.120993 325.471797,191.073376 325.734043,191.073376 C327.71979,191.073376 329.276596,192.648481 329.276596,194.657571 C329.276596,196.334497 328.160862,197.685005 326.642745,198.097092 C325.833015,198.31684 325.199093,198.954392 324.977062,199.772313 C324.755032,200.590234 324.978168,201.465942 325.563372,202.07331 C326.40299,202.943713 326.914894,204.10067 326.914894,205.410158 C326.914894,208.078391 324.828722,210.189085 322.191489,210.189085 L312.744681,210.189085 L309.202128,210.189085 C307.21638,210.189085 305.659575,208.613979 305.659575,206.60489 C305.659575,205.592037 306.061855,204.71015 306.720496,204.056751 C307.275753,203.506792 307.528137,202.715703 307.395466,201.941081 C307.262795,201.166459 306.762044,200.507412 306.056267,200.178539 C304.428901,199.419232 303.297873,197.793812 303.297873,195.852303 C303.297873,193.18407 305.384044,191.073376 308.021277,191.073376 C308.631283,191.073376 309.214796,191.198844 309.778716,191.428063 C310.40513,191.682226 311.109087,191.653125 311.712919,191.348106 C312.316751,191.043086 312.762772,190.491288 312.938414,189.831975 C313.14281,189.067122 313.521797,188.377941 314.031624,187.815865 C314.034562,187.812625 314.037902,187.809762 314.040849,187.806529 C314.255223,187.664347 314.445291,187.487807 314.603598,187.283834 C315.390248,186.663099 316.377583,186.294448 317.468085,186.294448 Z" id="Shape"></path>
                </g>
            </g>
        </g>
    </g>
</svg>